# Blender v2.92.0 OBJ File: 'boots.blend'
# www.blender.org
mtllib boots.mtl
o Cube_Cube.002
v -5.250000 -0.000000 0.000001
v -4.725000 -0.000000 0.000001
v -3.675000 -0.000000 0.000001
v -2.625000 -0.000000 0.000001
v -1.575000 -0.000000 0.000001
v -1.050000 -0.000000 0.000001
v -5.423400 0.525000 0.227583
v -5.481200 1.198099 0.303443
v -4.725000 0.525000 0.439941
v -4.725000 1.365785 0.439940
v -3.675000 0.525000 0.431480
v -3.724546 1.633769 0.475255
v -3.362588 2.625000 0.229454
v -3.227826 3.675000 0.212621
v -3.306044 4.725000 0.335615
v -3.384449 5.775000 0.407880
v -3.458810 6.825000 0.453991
v -3.379313 7.566667 0.314624
v -2.625000 0.525000 0.467409
v -2.625000 1.575000 0.849850
v -2.625000 2.625000 0.669565
v -2.625000 3.675000 0.653275
v -2.625000 4.725000 0.781595
v -2.625000 5.775000 0.868340
v -2.625000 6.825000 0.924834
v -2.625000 7.675000 0.471936
v -1.575000 0.525000 0.305484
v -1.575000 1.575000 0.578245
v -1.575000 2.625000 0.545931
v -1.575000 3.675000 0.546475
v -1.575000 4.725000 0.551801
v -1.575000 5.775000 0.566281
v -1.478343 6.791658 0.419003
v -1.763905 7.566667 0.314624
v -1.046394 0.525000 0.057196
v -1.042788 1.575000 0.110106
v -1.042788 2.625000 0.105821
v -1.042788 3.675000 0.105821
v -1.042788 4.725000 0.105821
v -1.042788 5.775000 0.105821
v -1.045192 6.419431 0.070547
v -5.250000 -0.000000 -0.000001
v -4.725000 -0.000000 -0.000001
v -3.675000 -0.000000 -0.000001
v -2.625000 -0.000000 -0.000001
v -1.575000 -0.000000 -0.000001
v -1.050000 -0.000000 -0.000001
v -5.423400 0.525000 -0.210275
v -5.481200 1.198099 -0.280365
v -4.725000 0.525000 -0.408471
v -4.725000 1.365785 -0.408470
v -3.675000 0.525000 -0.405889
v -3.724546 1.633769 -0.454783
v -3.362588 2.625000 -0.231598
v -3.227826 3.675000 -0.224169
v -3.306044 4.725000 -0.360889
v -3.384449 5.775000 -0.444704
v -3.458810 6.825000 -0.482728
v -3.379313 7.566667 -0.325000
v -2.625000 0.525000 -0.428094
v -2.625000 1.575000 -0.813040
v -2.625000 2.625000 -0.688329
v -2.625000 3.675000 -0.706424
v -2.625000 4.725000 -0.857476
v -2.625000 5.775000 -0.942639
v -2.625000 6.825000 -0.975706
v -2.625000 7.675000 -0.487500
v -1.575000 0.525000 -0.273312
v -1.575000 1.575000 -0.552859
v -1.575000 2.625000 -0.571117
v -1.575000 3.675000 -0.596645
v -1.575000 4.725000 -0.610978
v -1.575000 5.775000 -0.612325
v -1.478343 6.791658 -0.440138
v -1.763905 7.566667 -0.325000
v -1.046394 0.525000 -0.052911
v -1.042788 1.575000 -0.110101
v -1.042788 2.625000 -0.114386
v -1.042788 3.675000 -0.114390
v -1.042788 4.725000 -0.114390
v -1.042788 5.775000 -0.114390
v -1.045192 6.419431 -0.076260
v 1.050000 -0.000000 0.000001
v 1.575000 -0.000000 0.000001
v 2.625000 -0.000000 0.000001
v 3.675000 -0.000000 0.000001
v 4.725000 -0.000000 0.000001
v 5.250000 -0.000000 0.000001
v 1.046394 0.525000 0.052911
v 1.042788 1.575000 0.110101
v 1.042788 2.625000 0.114386
v 1.042788 3.675000 0.114390
v 1.042788 4.725000 0.114390
v 1.042788 5.775000 0.114390
v 1.045192 6.419431 0.076260
v 1.575000 0.525000 0.273312
v 1.575000 1.575000 0.552859
v 1.575000 2.625000 0.571117
v 1.575000 3.675000 0.596645
v 1.575000 4.725000 0.610978
v 1.575000 5.775000 0.612325
v 1.478343 6.791658 0.440138
v 1.763905 7.566667 0.325000
v 2.625000 0.525000 0.428094
v 2.625000 1.575000 0.813040
v 2.625000 2.625000 0.688329
v 2.625000 3.675000 0.706424
v 2.625000 4.725000 0.857476
v 2.625000 5.775000 0.942639
v 2.625000 6.825000 0.975706
v 2.625000 7.675000 0.487500
v 3.675000 0.525000 0.405889
v 3.724546 1.633769 0.454783
v 3.362588 2.625000 0.231598
v 3.227826 3.675000 0.224169
v 3.306044 4.725000 0.360889
v 3.384449 5.775000 0.444704
v 3.458810 6.825000 0.482728
v 3.379313 7.566667 0.325000
v 4.725000 0.525000 0.408471
v 4.725000 1.365785 0.408470
v 5.423400 0.525000 0.210275
v 5.481200 1.198099 0.280365
v 1.050000 -0.000000 -0.000001
v 1.575000 -0.000000 -0.000001
v 2.625000 -0.000000 -0.000001
v 3.675000 -0.000000 -0.000001
v 4.725000 -0.000000 -0.000001
v 5.250000 -0.000000 -0.000001
v 1.046394 0.525000 -0.057196
v 1.042788 1.575000 -0.110106
v 1.042788 2.625000 -0.105821
v 1.042788 3.675000 -0.105821
v 1.042788 4.725000 -0.105821
v 1.042788 5.775000 -0.105821
v 1.045192 6.419431 -0.070547
v 1.575000 0.525000 -0.305484
v 1.575000 1.575000 -0.578245
v 1.575000 2.625000 -0.545931
v 1.575000 3.675000 -0.546475
v 1.575000 4.725000 -0.551801
v 1.575000 5.775000 -0.566281
v 1.478343 6.791658 -0.419003
v 1.763905 7.566667 -0.314624
v 2.625000 0.525000 -0.467409
v 2.625000 1.575000 -0.849850
v 2.625000 2.625000 -0.669565
v 2.625000 3.675000 -0.653275
v 2.625000 4.725000 -0.781595
v 2.625000 5.775000 -0.868340
v 2.625000 6.825000 -0.924834
v 2.625000 7.675000 -0.471936
v 3.675000 0.525000 -0.431480
v 3.724546 1.633769 -0.475255
v 3.362588 2.625000 -0.229454
v 3.227826 3.675000 -0.212621
v 3.306044 4.725000 -0.335615
v 3.384449 5.775000 -0.407880
v 3.458810 6.825000 -0.453991
v 3.379313 7.566667 -0.314624
v 4.725000 0.525000 -0.439941
v 4.725000 1.365785 -0.439940
v 5.423400 0.525000 -0.227583
v 5.481200 1.198099 -0.303443
vn -0.1431 -0.5477 0.8243
vn -0.2266 -0.0574 0.9723
vn 0.0031 -0.6386 0.7695
vn -0.0101 -0.0227 0.9997
vn -0.0130 -0.6503 0.7596
vn -0.1891 -0.1944 0.9625
vn -0.3854 0.2535 0.8873
vn -0.5485 0.0484 0.8347
vn -0.5642 -0.1188 0.8170
vn -0.5307 -0.0837 0.8434
vn -0.5037 -0.0599 0.8618
vn -0.3658 0.3406 0.8661
vn 0.0620 -0.5917 0.8038
vn 0.1934 -0.2922 0.9366
vn 0.1841 0.0990 0.9779
vn 0.1091 0.0075 0.9940
vn 0.1580 -0.0627 0.9855
vn 0.2452 -0.0467 0.9683
vn 0.3454 0.0251 0.9381
vn 0.3156 0.3570 0.8792
vn 0.2174 -0.3193 0.9224
vn 0.5550 -0.1284 0.8219
vn 0.6490 0.0133 0.7606
vn 0.6375 -0.0002 0.7704
vn 0.6400 -0.0019 0.7684
vn 0.6483 -0.0052 0.7613
vn 0.6520 0.0462 0.7568
vn -0.0000 -1.0000 0.0000
vn -0.9495 -0.3136 0.0000
vn -0.9963 -0.0856 0.0000
vn -0.1366 -0.5196 -0.8434
vn -0.2127 -0.0533 -0.9757
vn -0.2165 0.9763 0.0000
vn 0.0010 -0.6129 -0.7902
vn -0.0180 -0.0255 -0.9995
vn -0.2587 0.9659 0.0000
vn -0.9393 0.3430 0.0000
vn -0.9919 0.1273 0.0000
vn -0.9972 -0.0743 0.0000
vn -0.9972 -0.0745 0.0000
vn -0.9975 -0.0706 0.0000
vn -0.9943 0.1066 0.0000
vn -0.0083 -0.6219 -0.7830
vn -0.1761 -0.1978 -0.9643
vn -0.3895 0.2214 -0.8940
vn -0.5734 0.0326 -0.8186
vn -0.6011 -0.1304 -0.7884
vn -0.5660 -0.0871 -0.8198
vn -0.5275 -0.0474 -0.8482
vn -0.3764 0.3645 -0.8518
vn -0.1422 0.9898 0.0000
vn 0.0612 -0.5544 -0.8300
vn 0.1851 -0.2965 -0.9369
vn 0.1767 0.0498 -0.9830
vn 0.1074 -0.0206 -0.9940
vn 0.1668 -0.0774 -0.9830
vn 0.2647 -0.0397 -0.9635
vn 0.3669 0.0454 -0.9291
vn 0.9383 0.3457 0.0000
vn 0.3277 0.3789 -0.8655
vn 0.1248 0.9922 0.0000
vn 1.0000 -0.0069 0.0000
vn 0.1959 -0.2916 -0.9363
vn 1.0000 -0.0034 0.0000
vn 0.5252 -0.1356 -0.8401
vn 1.0000 -0.0000 0.0000
vn 0.6454 -0.0082 -0.7638
vn 0.6615 -0.0091 -0.7499
vn 0.6769 -0.0050 -0.7361
vn 0.6827 -0.0005 -0.7307
vn 1.0000 0.0037 0.0000
vn 0.6766 0.0546 -0.7343
vn 0.6518 0.7584 0.0000
vn -0.1959 -0.2916 0.9363
vn -0.5252 -0.1356 0.8401
vn -0.6454 -0.0082 0.7638
vn -0.6615 -0.0091 0.7499
vn -0.6769 -0.0050 0.7361
vn -0.6827 -0.0005 0.7307
vn -0.6766 0.0546 0.7343
vn -0.0612 -0.5544 0.8300
vn -0.1851 -0.2965 0.9369
vn -0.1767 0.0498 0.9830
vn -0.1074 -0.0206 0.9940
vn -0.1668 -0.0774 0.9830
vn -0.2647 -0.0397 0.9635
vn -0.3669 0.0454 0.9291
vn -0.3277 0.3789 0.8655
vn 0.0083 -0.6219 0.7830
vn 0.1761 -0.1978 0.9643
vn 0.3895 0.2214 0.8940
vn 0.5734 0.0326 0.8186
vn 0.6011 -0.1304 0.7884
vn 0.5660 -0.0871 0.8198
vn 0.5275 -0.0474 0.8482
vn 0.3764 0.3645 0.8518
vn -0.0010 -0.6129 0.7902
vn 0.0180 -0.0255 0.9995
vn 0.1366 -0.5196 0.8434
vn 0.2127 -0.0533 0.9757
vn -1.0000 -0.0069 0.0000
vn -1.0000 -0.0034 0.0000
vn -1.0000 -0.0000 0.0000
vn -1.0000 0.0037 0.0000
vn -0.2174 -0.3193 -0.9224
vn -0.5550 -0.1284 -0.8219
vn -0.6490 0.0133 -0.7606
vn -0.6375 -0.0002 -0.7704
vn -0.6400 -0.0019 -0.7684
vn -0.6483 -0.0052 -0.7613
vn -0.6520 0.0462 -0.7568
vn -0.6518 0.7584 0.0000
vn -0.9383 0.3457 0.0000
vn -0.0620 -0.5917 -0.8038
vn -0.1934 -0.2922 -0.9366
vn -0.1841 0.0990 -0.9779
vn -0.1091 0.0075 -0.9940
vn -0.1580 -0.0627 -0.9855
vn -0.2452 -0.0467 -0.9683
vn -0.3454 0.0251 -0.9381
vn -0.3156 0.3570 -0.8792
vn -0.1248 0.9922 0.0000
vn 0.0130 -0.6503 -0.7596
vn 0.1891 -0.1944 -0.9625
vn 0.9393 0.3430 0.0000
vn 0.3854 0.2535 -0.8873
vn 0.9919 0.1273 0.0000
vn 0.5485 0.0484 -0.8347
vn 0.9972 -0.0743 0.0000
vn 0.5642 -0.1188 -0.8170
vn 0.9972 -0.0745 0.0000
vn 0.5307 -0.0837 -0.8434
vn 0.9975 -0.0706 0.0000
vn 0.5037 -0.0599 -0.8618
vn 0.9943 0.1066 0.0000
vn 0.3658 0.3406 -0.8661
vn 0.1422 0.9898 0.0000
vn -0.0031 -0.6386 -0.7695
vn 0.0101 -0.0227 -0.9997
vn 0.2587 0.9659 0.0000
vn 0.9495 -0.3136 0.0000
vn 0.1431 -0.5477 -0.8243
vn 0.9963 -0.0856 0.0000
vn 0.2266 -0.0574 -0.9723
vn 0.2165 0.9763 0.0000
usemtl None
s off
f 7//1 1//1 2//1 9//1
f 8//2 7//2 9//2 10//2
f 9//3 2//3 3//3 11//3
f 10//4 9//4 11//4 12//4
f 11//5 3//5 4//5 19//5
f 12//6 11//6 19//6 20//6
f 13//7 12//7 20//7 21//7
f 14//8 13//8 21//8 22//8
f 15//9 14//9 22//9 23//9
f 16//10 15//10 23//10 24//10
f 17//11 16//11 24//11 25//11
f 18//12 17//12 25//12 26//12
f 19//13 4//13 5//13 27//13
f 20//14 19//14 27//14 28//14
f 21//15 20//15 28//15 29//15
f 22//16 21//16 29//16 30//16
f 23//17 22//17 30//17 31//17
f 24//18 23//18 31//18 32//18
f 25//19 24//19 32//19 33//19
f 26//20 25//20 33//20 34//20
f 27//21 5//21 6//21 35//21
f 28//22 27//22 35//22 36//22
f 29//23 28//23 36//23 37//23
f 30//24 29//24 37//24 38//24
f 31//25 30//25 38//25 39//25
f 32//26 31//26 39//26 40//26
f 33//27 32//27 40//27 41//27
f 43//28 2//28 1//28 42//28
f 44//28 3//28 2//28 43//28
f 45//28 4//28 3//28 44//28
f 46//28 5//28 4//28 45//28
f 47//28 6//28 5//28 46//28
f 42//29 1//29 7//29 48//29
f 48//30 7//30 8//30 49//30
f 50//31 43//31 42//31 48//31
f 51//32 50//32 48//32 49//32
f 49//33 8//33 10//33 51//33
f 52//34 44//34 43//34 50//34
f 53//35 52//35 50//35 51//35
f 51//36 10//36 12//36 53//36
f 53//37 12//37 13//37 54//37
f 54//38 13//38 14//38 55//38
f 55//39 14//39 15//39 56//39
f 56//40 15//40 16//40 57//40
f 57//41 16//41 17//41 58//41
f 58//42 17//42 18//42 59//42
f 60//43 45//43 44//43 52//43
f 61//44 60//44 52//44 53//44
f 62//45 61//45 53//45 54//45
f 63//46 62//46 54//46 55//46
f 64//47 63//47 55//47 56//47
f 65//48 64//48 56//48 57//48
f 66//49 65//49 57//49 58//49
f 67//50 66//50 58//50 59//50
f 59//51 18//51 26//51 67//51
f 68//52 46//52 45//52 60//52
f 69//53 68//53 60//53 61//53
f 70//54 69//54 61//54 62//54
f 71//55 70//55 62//55 63//55
f 72//56 71//56 63//56 64//56
f 73//57 72//57 64//57 65//57
f 74//58 73//58 65//58 66//58
f 75//59 34//59 33//59 74//59
f 75//60 74//60 66//60 67//60
f 67//61 26//61 34//61 75//61
f 76//62 35//62 6//62 47//62
f 76//63 47//63 46//63 68//63
f 77//64 36//64 35//64 76//64
f 77//65 76//65 68//65 69//65
f 78//66 37//66 36//66 77//66
f 78//67 77//67 69//67 70//67
f 79//66 38//66 37//66 78//66
f 79//68 78//68 70//68 71//68
f 80//66 39//66 38//66 79//66
f 80//69 79//69 71//69 72//69
f 81//66 40//66 39//66 80//66
f 81//70 80//70 72//70 73//70
f 82//71 41//71 40//71 81//71
f 82//72 81//72 73//72 74//72
f 74//73 33//73 41//73 82//73
f 89//74 83//74 84//74 96//74
f 90//75 89//75 96//75 97//75
f 91//76 90//76 97//76 98//76
f 92//77 91//77 98//77 99//77
f 93//78 92//78 99//78 100//78
f 94//79 93//79 100//79 101//79
f 95//80 94//80 101//80 102//80
f 96//81 84//81 85//81 104//81
f 97//82 96//82 104//82 105//82
f 98//83 97//83 105//83 106//83
f 99//84 98//84 106//84 107//84
f 100//85 99//85 107//85 108//85
f 101//86 100//86 108//86 109//86
f 102//87 101//87 109//87 110//87
f 103//88 102//88 110//88 111//88
f 104//89 85//89 86//89 112//89
f 105//90 104//90 112//90 113//90
f 106//91 105//91 113//91 114//91
f 107//92 106//92 114//92 115//92
f 108//93 107//93 115//93 116//93
f 109//94 108//94 116//94 117//94
f 110//95 109//95 117//95 118//95
f 111//96 110//96 118//96 119//96
f 112//97 86//97 87//97 120//97
f 113//98 112//98 120//98 121//98
f 120//99 87//99 88//99 122//99
f 121//100 120//100 122//100 123//100
f 125//28 84//28 83//28 124//28
f 126//28 85//28 84//28 125//28
f 127//28 86//28 85//28 126//28
f 128//28 87//28 86//28 127//28
f 129//28 88//28 87//28 128//28
f 124//101 83//101 89//101 130//101
f 130//102 89//102 90//102 131//102
f 131//103 90//103 91//103 132//103
f 132//103 91//103 92//103 133//103
f 133//103 92//103 93//103 134//103
f 134//103 93//103 94//103 135//103
f 135//104 94//104 95//104 136//104
f 137//105 125//105 124//105 130//105
f 138//106 137//106 130//106 131//106
f 139//107 138//107 131//107 132//107
f 140//108 139//108 132//108 133//108
f 141//109 140//109 133//109 134//109
f 142//110 141//110 134//110 135//110
f 143//111 142//111 135//111 136//111
f 136//112 95//112 102//112 143//112
f 143//113 102//113 103//113 144//113
f 145//114 126//114 125//114 137//114
f 146//115 145//115 137//115 138//115
f 147//116 146//116 138//116 139//116
f 148//117 147//117 139//117 140//117
f 149//118 148//118 140//118 141//118
f 150//119 149//119 141//119 142//119
f 151//120 150//120 142//120 143//120
f 152//121 151//121 143//121 144//121
f 144//122 103//122 111//122 152//122
f 153//123 127//123 126//123 145//123
f 154//124 153//124 145//124 146//124
f 155//125 114//125 113//125 154//125
f 155//126 154//126 146//126 147//126
f 156//127 115//127 114//127 155//127
f 156//128 155//128 147//128 148//128
f 157//129 116//129 115//129 156//129
f 157//130 156//130 148//130 149//130
f 158//131 117//131 116//131 157//131
f 158//132 157//132 149//132 150//132
f 159//133 118//133 117//133 158//133
f 159//134 158//134 150//134 151//134
f 160//135 119//135 118//135 159//135
f 160//136 159//136 151//136 152//136
f 152//137 111//137 119//137 160//137
f 161//138 128//138 127//138 153//138
f 162//139 161//139 153//139 154//139
f 154//140 113//140 121//140 162//140
f 163//141 122//141 88//141 129//141
f 163//142 129//142 128//142 161//142
f 164//143 123//143 122//143 163//143
f 164//144 163//144 161//144 162//144
f 162//145 121//145 123//145 164//145
