# Blender v2.92.0 OBJ File: 'staff.blend'
# www.blender.org
mtllib staff.mtl
o Cube
v 0.000000 0.737405 0.362908
v 0.000000 1.635000 0.507883
v 0.000000 2.905000 0.471405
v 0.003922 4.175000 0.441730
v 0.007415 5.445000 0.411551
v 0.011813 6.715000 0.415874
v 0.017296 7.985000 0.424562
v 0.014526 9.255000 0.433201
v 0.007432 10.525000 0.449185
v 0.001882 11.795000 0.380679
v 0.000000 12.740519 0.200644
v -0.362908 0.737405 0.000000
v -0.507883 1.635000 0.000000
v -0.471405 2.905000 0.000000
v -0.441730 4.175000 -0.003922
v -0.411551 5.445000 -0.007415
v -0.415874 6.715000 -0.011813
v -0.424562 7.985000 -0.017296
v -0.433201 9.255000 -0.014526
v -0.449185 10.525000 -0.007432
v -0.380679 11.795000 -0.001882
v -0.200644 12.740519 0.000000
v 0.362908 0.737405 0.000000
v 0.507883 1.635000 0.000000
v 0.471405 2.905000 0.000000
v 0.441730 4.175000 0.003922
v 0.411551 5.445000 0.007415
v 0.415874 6.715000 0.011813
v 0.424562 7.985000 0.017296
v 0.433201 9.255000 0.014526
v 0.449185 10.525000 0.007432
v 0.380679 11.795000 0.001882
v 0.200644 12.740519 0.000000
v 0.000000 0.737405 -0.362908
v 0.000000 1.635000 -0.507883
v 0.000000 2.905000 -0.471405
v -0.003922 4.175000 -0.441730
v -0.007415 5.445000 -0.411551
v -0.011813 6.715000 -0.415874
v -0.017296 7.985000 -0.424562
v -0.014526 9.255000 -0.433201
v -0.007432 10.525000 -0.449185
v -0.001882 11.795000 -0.380679
v 0.000000 12.740519 -0.200644
vn -0.7025 -0.1135 0.7025
vn -0.7070 0.0203 0.7070
vn -0.7070 0.0187 0.7070
vn -0.7071 0.0000 0.7071
vn -0.7071 -0.0018 0.7071
vn -0.7071 -0.0064 0.7071
vn -0.7070 -0.0128 0.7070
vn -0.7067 0.0350 0.7067
vn -0.7009 0.1321 0.7009
vn 0.7025 -0.1135 0.7025
vn 0.7070 0.0203 0.7070
vn 0.7070 0.0143 0.7070
vn 0.7070 0.0149 0.7070
vn 0.7071 -0.0049 0.7071
vn 0.7071 -0.0079 0.7071
vn 0.7071 -0.0033 0.7071
vn 0.7071 -0.0050 0.7071
vn 0.7065 0.0412 0.7065
vn 0.7007 0.1348 0.7007
vn 0.0000 -1.0000 0.0000
vn 0.7025 -0.1135 -0.7025
vn -0.7025 -0.1135 -0.7025
vn 0.7070 0.0203 -0.7070
vn -0.7070 0.0203 -0.7070
vn 0.7070 0.0187 -0.7070
vn -0.7070 0.0143 -0.7070
vn -0.7070 0.0149 -0.7070
vn 0.7071 0.0000 -0.7071
vn -0.7071 -0.0049 -0.7071
vn 0.7071 -0.0018 -0.7071
vn -0.7071 -0.0079 -0.7071
vn 0.7071 -0.0064 -0.7071
vn -0.7071 -0.0033 -0.7071
vn 0.7070 -0.0128 -0.7070
vn -0.7071 -0.0050 -0.7071
vn 0.7067 0.0350 -0.7067
vn -0.7065 0.0412 -0.7065
vn 0.7009 0.1321 -0.7009
vn -0.7007 0.1348 -0.7007
vn 0.0000 1.0000 0.0000
usemtl Material
s off
f 12//1 1//1 2//1 13//1
f 13//2 2//2 3//2 14//2
f 14//3 3//3 4//3 15//3
f 15//3 4//3 5//3 16//3
f 16//4 5//4 6//4 17//4
f 17//5 6//5 7//5 18//5
f 18//6 7//6 8//6 19//6
f 19//7 8//7 9//7 20//7
f 20//8 9//8 10//8 21//8
f 21//9 10//9 11//9 22//9
f 2//10 1//10 23//10 24//10
f 3//11 2//11 24//11 25//11
f 4//12 3//12 25//12 26//12
f 5//13 4//13 26//13 27//13
f 6//14 5//14 27//14 28//14
f 7//15 6//15 28//15 29//15
f 8//16 7//16 29//16 30//16
f 9//17 8//17 30//17 31//17
f 10//18 9//18 31//18 32//18
f 11//19 10//19 32//19 33//19
f 34//20 23//20 1//20 12//20
f 35//21 24//21 23//21 34//21
f 35//22 34//22 12//22 13//22
f 36//23 25//23 24//23 35//23
f 36//24 35//24 13//24 14//24
f 37//25 26//25 25//25 36//25
f 37//26 36//26 14//26 15//26
f 38//25 27//25 26//25 37//25
f 38//27 37//27 15//27 16//27
f 39//28 28//28 27//28 38//28
f 39//29 38//29 16//29 17//29
f 40//30 29//30 28//30 39//30
f 40//31 39//31 17//31 18//31
f 41//32 30//32 29//32 40//32
f 41//33 40//33 18//33 19//33
f 42//34 31//34 30//34 41//34
f 42//35 41//35 19//35 20//35
f 43//36 32//36 31//36 42//36
f 43//37 42//37 20//37 21//37
f 44//38 33//38 32//38 43//38
f 44//39 43//39 21//39 22//39
f 22//40 11//40 33//40 44//40
o Cone
v 0.000000 13.500000 -1.000000
v 0.000000 12.500000 0.000000
v -0.382683 13.500000 -0.923880
v -0.707106 13.500000 -0.707107
v -0.923879 13.500000 -0.382683
v -1.000000 13.500000 0.000000
v -0.923879 13.500000 0.382684
v -0.707106 13.500000 0.707107
v -0.382683 13.500000 0.923880
v 0.000000 13.500000 1.000000
v 0.382684 13.500000 0.923880
v 0.707107 13.500000 0.707107
v 0.923880 13.500000 0.382684
v 1.000000 13.500000 0.000000
v 0.923880 13.500000 -0.382684
v 0.707107 13.500000 -0.707107
v 0.461659 13.709980 -0.461659
v 0.603186 13.709980 -0.249848
v 0.382683 13.500000 -0.923880
v 0.461659 13.709980 0.461659
v 0.603186 13.709980 0.249848
v 0.000000 13.706296 0.000000
v -0.603185 13.709981 -0.249848
v -0.461658 13.709981 -0.461658
v -0.249847 13.709980 0.603186
v -0.461658 13.709981 0.461658
v 0.249848 13.709980 -0.603186
v -0.652883 13.709981 0.000000
v -0.249847 13.709980 -0.603186
v 0.000000 13.709980 -0.652884
v 0.000000 13.709980 0.652884
v 0.652884 13.709980 0.000000
v -0.603185 13.709981 0.249848
v 0.249848 13.709980 0.603186
vt 0.250000 0.490000
vt 0.250000 0.250000
vt 0.341844 0.471731
vt 0.419706 0.419706
vt 0.471731 0.341844
vt 0.490000 0.250000
vt 0.471731 0.158156
vt 0.419706 0.080294
vt 0.341844 0.028269
vt 0.250000 0.010000
vt 0.158156 0.028269
vt 0.080294 0.080294
vt 0.028269 0.158156
vt 0.010000 0.250000
vt 0.028269 0.341844
vt 0.080294 0.419706
vt 0.080294 0.419706
vt 0.028269 0.341844
vt 0.158156 0.471731
vt 0.080294 0.080294
vt 0.028269 0.158156
vt 0.080294 0.080294
vt 0.471731 0.341844
vt 0.419706 0.419706
vt 0.341844 0.028269
vt 0.419706 0.080294
vt 0.158156 0.471731
vt 0.490000 0.250000
vt 0.341844 0.471731
vt 0.250000 0.490000
vt 0.250000 0.010000
vt 0.010000 0.250000
vt 0.471731 0.158156
vt 0.158156 0.028269
vt 0.471731 0.341844
vt 0.028269 0.158156
vt 0.490000 0.250000
vt 0.010000 0.250000
vt 0.471731 0.158156
vt 0.028269 0.341844
vt 0.419706 0.080294
vt 0.080294 0.419706
vt 0.341844 0.028269
vt 0.250000 0.490000
vt 0.158156 0.471731
vt 0.250000 0.010000
vt 0.341844 0.471731
vt 0.158156 0.028269
vt 0.419706 0.419706
vn -0.1393 -0.7002 -0.7002
vn -0.3966 -0.7002 -0.5936
vn -0.5936 -0.7002 -0.3966
vn -0.7002 -0.7002 -0.1393
vn -0.7002 -0.7002 0.1393
vn -0.5936 -0.7002 0.3966
vn -0.3966 -0.7002 0.5936
vn -0.1393 -0.7002 0.7002
vn 0.1393 -0.7002 0.7002
vn 0.3966 -0.7002 0.5936
vn 0.5936 -0.7002 0.3966
vn 0.7002 -0.7002 0.1393
vn 0.7002 -0.7002 -0.1393
vn 0.5936 -0.7002 -0.3966
vn 0.4365 0.8511 -0.2916
vn 0.3966 -0.7002 -0.5936
vn 0.1393 -0.7002 -0.7002
vn -0.0040 1.0000 -0.0040
vn -0.0052 1.0000 -0.0022
vn 0.0000 1.0000 0.0000
vn -0.4365 0.8511 -0.2916
vn -0.2917 0.8511 0.4365
vn 0.4365 0.8511 0.2916
vn 0.2917 0.8511 -0.4365
vn -0.5149 0.8511 -0.1024
vn -0.1024 0.8511 -0.5149
vn -0.1024 0.8511 0.5149
vn 0.5149 0.8511 0.1024
vn 0.1024 0.8511 -0.5149
vn -0.5149 0.8511 0.1024
vn 0.1024 0.8511 0.5149
vn 0.5149 0.8511 -0.1024
vn -0.2917 0.8511 -0.4365
vn -0.4365 0.8511 0.2917
vn 0.2917 0.8511 0.4365
vn 0.0052 1.0000 0.0022
vn 0.0056 1.0000 0.0000
vn -0.0056 1.0000 0.0000
vn 0.0052 1.0000 -0.0022
vn -0.0052 1.0000 0.0022
vn 0.0040 1.0000 -0.0040
vn -0.0040 1.0000 0.0040
vn 0.0022 1.0000 -0.0052
vn -0.0022 1.0000 0.0052
vn 0.0000 1.0000 -0.0056
vn 0.0000 1.0000 0.0056
vn 0.0022 1.0000 0.0052
vn -0.0022 1.0000 -0.0052
vn 0.0040 1.0000 0.0040
usemtl None.001
s 1
f 45/1/41 46/2/41 47/3/41
f 47/3/42 46/2/42 48/4/42
f 48/4/43 46/2/43 49/5/43
f 49/5/44 46/2/44 50/6/44
f 50/6/45 46/2/45 51/7/45
f 51/7/46 46/2/46 52/8/46
f 52/8/47 46/2/47 53/9/47
f 53/9/48 46/2/48 54/10/48
f 54/10/49 46/2/49 55/11/49
f 55/11/50 46/2/50 56/12/50
f 56/12/51 46/2/51 57/13/51
f 57/13/52 46/2/52 58/14/52
f 58/14/53 46/2/53 59/15/53
f 59/15/54 46/2/54 60/16/54
f 59/15/55 60/16/55 61/17/55 62/18/55
f 60/16/56 46/2/56 63/19/56
f 63/19/57 46/2/57 45/1/57
f 64/20/58 65/21/59 66/22/60
f 48/4/61 49/5/61 67/23/61 68/24/61
f 52/8/62 53/9/62 69/25/62 70/26/62
f 56/12/63 57/13/63 65/21/63 64/20/63
f 60/16/64 63/19/64 71/27/64 61/17/64
f 49/5/65 50/6/65 72/28/65 67/23/65
f 45/1/66 47/3/66 73/29/66 74/30/66
f 53/9/67 54/10/67 75/31/67 69/25/67
f 57/13/68 58/14/68 76/32/68 65/21/68
f 63/19/69 45/1/69 74/30/69 71/27/69
f 50/6/70 51/7/70 77/33/70 72/28/70
f 54/10/71 55/11/71 78/34/71 75/31/71
f 58/14/72 59/15/72 62/18/72 76/32/72
f 47/3/73 48/4/73 68/24/73 73/29/73
f 51/7/74 52/8/74 70/26/74 77/33/74
f 55/11/75 56/12/75 64/20/75 78/34/75
f 67/23/76 72/28/77 66/35/60
f 65/21/59 76/32/78 66/36/60
f 72/28/77 77/33/79 66/37/60
f 76/32/78 62/18/80 66/38/60
f 77/33/79 70/26/81 66/39/60
f 62/18/80 61/17/82 66/40/60
f 70/26/81 69/25/83 66/41/60
f 61/17/82 71/27/84 66/42/60
f 69/25/83 75/31/85 66/43/60
f 74/30/86 73/29/87 66/44/60
f 71/27/84 74/30/86 66/45/60
f 75/31/85 78/34/88 66/46/60
f 73/29/87 68/24/89 66/47/60
f 78/34/88 64/20/58 66/48/60
f 68/24/89 67/23/76 66/49/60
