# Blender v2.92.0 OBJ File: 'crystals.blend'
# www.blender.org
mtllib crystal1.mtl
o Icosphere
v -0.058171 -0.304977 -0.684198
v 0.194339 0.952126 -0.429716
v -0.512253 0.733716 -0.968902
v 0.008276 0.595570 -1.204722
v 0.491398 0.739600 -0.924277
v -0.212766 1.458492 -1.088878
v 0.087185 -0.454095 -0.190730
v 0.096755 0.180077 -0.092362
v 0.447545 0.014129 -0.488043
v -0.490160 -0.049828 -0.195906
v -0.460664 0.979826 -0.417403
v -0.612825 0.526481 -0.411710
v 0.124670 1.393548 -1.009058
vt 0.272727 0.000000
vt 0.194689 0.137153
vt 0.427623 0.139429
vt 0.318592 0.288606
vt 0.681202 0.157461
vt 0.658666 0.274305
vt 0.840484 0.274305
vt 0.863020 0.157461
vt 0.985060 0.289045
vt 0.476848 0.274305
vt 0.448444 0.139429
vt 0.727272 0.393651
vt 0.932540 0.431766
vt 0.106898 0.289045
vt 0.181818 0.393651
vt 0.351338 0.412450
vt 0.590909 0.393651
vt 0.522419 0.432483
vt 0.863635 0.393651
vt 0.181818 0.236191
vt 0.136065 0.116845
vt 0.000000 0.157461
vt 0.067874 0.039899
vt 0.636363 0.078731
vt 0.805883 0.059932
vn -0.5713 -0.8169 -0.0786
vn -0.7708 -0.4583 -0.4425
vn 0.8754 0.2092 0.4359
vn 0.0340 0.3966 0.9174
vn -0.4646 -0.4172 -0.7811
vn 0.5449 -0.4494 -0.7079
vn 0.8214 0.4969 0.2798
vn 0.0452 0.8055 0.5909
vn -0.9259 0.3696 -0.0783
vn -0.4087 0.0178 -0.9125
vn 0.4635 0.1467 -0.8739
vn 0.2610 0.1938 -0.9457
vn 0.0100 0.7960 0.6053
vn -0.9469 0.3172 -0.0530
vn -0.9140 -0.2978 -0.2757
vn -0.5405 0.1917 0.8192
vn -0.2492 0.2105 0.9453
vn 0.7717 0.1702 0.6128
vn 0.5560 -0.4527 -0.6970
vn -0.1143 -0.1506 0.9820
vn 0.5948 -0.7041 -0.3880
vn 0.7182 -0.1172 0.6859
usemtl None
s off
f 7/1/1 10/2/1 1/3/1
f 1/3/2 10/2/2 3/4/2
f 9/5/3 5/6/3 2/7/3
f 8/8/4 2/7/4 11/9/4
f 1/3/5 3/4/5 4/10/5
f 1/11/6 4/10/6 5/6/6
f 2/7/7 5/6/7 13/12/7
f 11/9/8 2/7/8 6/13/8
f 3/4/9 11/14/9 6/15/9
f 4/10/10 3/4/10 6/16/10
f 5/6/11 4/10/11 13/17/11
f 13/17/12 4/10/12 6/18/12
f 6/13/13 2/7/13 13/19/13
f 12/20/14 11/14/14 3/4/14
f 3/4/15 10/2/15 12/20/15
f 12/20/16 10/21/16 11/14/16
f 10/21/17 8/22/17 11/14/17
f 8/8/18 9/5/18 2/7/18
f 9/5/19 1/11/19 5/6/19
f 7/23/20 8/22/20 10/21/20
f 9/5/21 7/24/21 1/11/21
f 7/25/22 9/5/22 8/8/22
o Icosphere.001
v -0.003159 0.843359 -0.136775
v -0.733551 1.054616 0.366325
v -0.209607 1.010869 -0.473193
v -0.512633 1.855857 -0.028166
v -0.925937 2.133725 -0.209507
v 0.098926 -0.356055 -0.079719
v -0.110341 -0.463498 0.223431
v -0.173247 0.804045 0.292895
v -0.596151 0.083006 -0.085207
v -0.394996 0.491948 -0.472913
v -1.028296 1.573990 -0.404786
vt 0.874777 0.254416
vt 0.673742 0.344725
vt 0.746428 0.439202
vt 1.000000 0.314921
vt 0.909615 0.393651
vt 0.464437 0.251883
vt 0.239242 0.325976
vt 0.375104 0.452519
vt 0.614249 0.353224
vt 0.533986 0.452519
vt 0.579127 0.215785
vt 0.336731 0.204062
vt 0.724000 0.213543
vt 0.173415 0.175567
vt 0.016522 0.186077
vt 0.458569 0.078731
vt 0.318182 0.078731
vt 0.238677 0.058977
vt 0.078618 0.070491
vt 0.590909 0.078731
vt 0.662857 0.045890
vt 0.818968 0.078731
vn -0.0805 0.4581 0.8853
vn -0.9249 0.0371 0.3785
vn 0.1311 0.3051 -0.9433
vn 0.6131 0.5289 -0.5868
vn 0.8420 0.4548 -0.2902
vn -0.0672 0.0235 -0.9975
vn 0.2783 0.3614 0.8899
vn -0.6450 -0.3342 -0.6872
vn -0.9505 -0.2310 0.2078
vn 0.8453 0.3856 0.3699
vn 0.8620 0.0494 -0.5044
vn 0.4366 -0.1565 -0.8859
vn -0.3427 -0.5521 -0.7601
vn -0.4412 -0.7055 -0.5546
vn -0.7545 -0.3613 0.5479
vn 0.9224 0.0963 0.3740
vn 0.8213 0.0095 0.5704
vn 0.1082 -0.0490 0.9929
usemtl None
s off
f 15/26/23 17/27/23 18/28/23
f 24/29/24 15/26/24 18/30/24
f 16/31/25 24/32/25 18/33/25
f 17/34/26 16/31/26 18/35/26
f 14/36/27 16/31/27 17/27/27
f 16/31/28 23/37/28 24/32/28
f 21/38/29 17/27/29 15/26/29
f 23/37/30 22/39/30 24/32/30
f 22/39/31 15/40/31 24/32/31
f 21/38/32 14/36/32 17/27/32
f 19/41/33 16/31/33 14/36/33
f 19/41/34 23/37/34 16/31/34
f 19/42/35 22/39/35 23/37/35
f 19/42/36 20/43/36 22/39/36
f 20/44/37 15/40/37 22/39/37
f 21/38/38 19/45/38 14/36/38
f 21/38/39 20/46/39 19/45/39
f 20/47/40 21/38/40 15/26/40
o Icosphere.002
v -0.341181 -0.331829 -0.235562
v -0.554039 -0.160833 -0.211649
v 0.858457 1.322639 -0.193218
v -0.377061 -0.206710 0.053317
v 0.297931 -0.020213 0.036856
v 0.159444 0.416961 0.421889
v -0.023295 0.720650 -0.422089
v -0.143791 0.733180 0.104921
v 0.203321 0.270766 -0.483579
v 0.894559 1.164420 0.417552
v 0.340456 1.502117 0.097089
v 0.712763 1.710038 0.570641
v 0.725285 2.126051 0.202353
v 0.516629 2.100379 0.453884
vt 0.090909 0.000000
vt 0.046843 0.081136
vt 0.191540 0.080654
vt 0.181818 0.236191
vt 0.384748 0.415473
vt 0.239606 0.314921
vt 0.318182 0.393651
vt 0.090909 0.314921
vt 0.181818 0.393651
vt 0.954545 0.393651
vt 0.894510 0.366299
vt 0.909090 0.472382
vt 0.772726 0.393651
vt 0.780448 0.314921
vt 0.713807 0.449060
vt 0.540163 0.314921
vt 0.366713 0.212121
vt 0.906013 0.212121
vt 0.741538 0.179870
vt 0.509142 0.184530
vt 0.253614 0.080654
vt 0.014241 0.182127
vt 0.466931 0.021453
vt 0.409090 0.078731
vt 0.635350 0.041151
vt 0.863635 0.078731
vt 0.802549 0.027076
vn -0.5870 -0.7670 0.2593
vn -0.8059 0.1689 0.5675
vn -0.6866 0.5108 -0.5174
vn -0.7356 -0.1738 0.6547
vn 0.6422 0.4972 0.5835
vn 0.9295 0.2284 0.2896
vn 0.9853 0.1703 -0.0141
vn -0.0619 0.4326 -0.8995
vn -0.8059 0.5386 -0.2460
vn -0.7760 0.4927 0.3938
vn 0.2083 -0.1993 0.9576
vn 0.9014 -0.4033 -0.1577
vn 0.1204 0.1937 -0.9736
vn -0.8297 0.5204 -0.2021
vn -0.8591 0.4677 -0.2076
vn -0.6176 0.1761 0.7665
vn -0.6540 0.1213 0.7467
vn 0.4938 -0.4814 0.7242
vn 0.8285 -0.4110 -0.3804
vn -0.2449 -0.1714 -0.9543
vn -0.3213 -0.0325 -0.9464
vn 0.5414 -0.6881 -0.4831
vn 0.1885 -0.6148 0.7658
vn 0.2521 -0.8762 0.4108
usemtl None
s off
f 25/48/41 28/49/41 26/50/41
f 26/50/42 28/49/42 32/51/42
f 37/52/43 35/53/43 38/54/43
f 35/53/44 36/55/44 38/56/44
f 38/57/45 36/58/45 37/59/45
f 36/60/46 34/61/46 37/62/46
f 34/61/47 27/63/47 37/62/47
f 31/64/48 37/52/48 27/63/48
f 31/64/49 35/53/49 37/52/49
f 32/51/50 36/55/50 35/53/50
f 30/65/51 34/61/51 36/58/51
f 29/66/52 27/63/52 34/61/52
f 33/67/53 31/64/53 27/63/53
f 31/64/54 32/51/54 35/53/54
f 31/64/55 26/68/55 32/51/55
f 32/51/56 30/69/56 36/55/56
f 32/51/57 28/49/57 30/69/57
f 30/65/58 29/66/58 34/61/58
f 29/66/59 33/67/59 27/63/59
f 25/70/60 26/71/60 33/67/60
f 26/71/61 31/64/61 33/67/61
f 29/66/62 25/72/62 33/67/62
f 28/73/63 29/66/63 30/65/63
f 28/73/64 25/74/64 29/66/64
