# Blender v2.92.0 OBJ File: 'crystals.blend'
# www.blender.org
mtllib crystal5.mtl
o Icosphere.001
v -0.252002 0.757387 -0.067452
v -1.009713 0.702644 0.436620
v -0.501231 0.875826 -0.395651
v -1.045393 1.557229 0.097760
v -1.524561 1.707349 -0.071879
v 0.211141 -0.355014 -0.085722
v 0.045985 -0.540769 0.206605
v -0.400035 0.639980 0.356097
v -0.584718 -0.149086 -0.073990
v -0.519591 0.326258 -0.431509
v -1.452299 1.157142 -0.304182
vt 0.874777 0.254416
vt 0.673742 0.344725
vt 0.746428 0.439202
vt 1.000000 0.314921
vt 0.909615 0.393651
vt 0.464437 0.251883
vt 0.239242 0.325976
vt 0.375104 0.452519
vt 0.614249 0.353224
vt 0.533986 0.452519
vt 0.579127 0.215785
vt 0.336731 0.204062
vt 0.724000 0.213543
vt 0.173415 0.175567
vt 0.016522 0.186077
vt 0.458569 0.078731
vt 0.318182 0.078731
vt 0.238677 0.058977
vt 0.078618 0.070491
vt 0.590909 0.078731
vt 0.662857 0.045890
vt 0.818968 0.078731
vn -0.2122 0.3525 0.9114
vn -0.8904 -0.2713 0.3655
vn 0.0275 0.3919 -0.9196
vn 0.4199 0.7279 -0.5421
vn 0.6619 0.7076 -0.2473
vn -0.0757 0.0674 -0.9948
vn 0.1589 0.3696 0.9155
vn -0.5155 -0.4688 -0.7172
vn -0.8339 -0.5226 0.1776
vn 0.6891 0.5995 0.4070
vn 0.8036 0.3426 -0.4866
vn 0.4595 0.0425 -0.8872
vn -0.1616 -0.5790 -0.7992
vn -0.2077 -0.7682 -0.6055
vn -0.6059 -0.6091 0.5117
vn 0.8509 0.3478 0.3938
vn 0.7820 0.2216 0.5826
vn 0.1225 -0.0790 0.9893
usemtl None
s off
f 2/1/1 4/2/1 5/3/1
f 11/4/2 2/1/2 5/5/2
f 3/6/3 11/7/3 5/8/3
f 4/9/4 3/6/4 5/10/4
f 1/11/5 3/6/5 4/2/5
f 3/6/6 10/12/6 11/7/6
f 8/13/7 4/2/7 2/1/7
f 10/12/8 9/14/8 11/7/8
f 9/14/9 2/15/9 11/7/9
f 8/13/10 1/11/10 4/2/10
f 6/16/11 3/6/11 1/11/11
f 6/16/12 10/12/12 3/6/12
f 6/17/13 9/14/13 10/12/13
f 6/17/14 7/18/14 9/14/14
f 7/19/15 2/15/15 9/14/15
f 8/13/16 6/20/16 1/11/16
f 8/13/17 7/21/17 6/20/17
f 7/22/18 8/13/18 2/1/18
o Icosphere.009_Icosphere.015
v 0.659788 0.532457 0.211140
v 0.086088 1.119158 -0.186178
v 0.950112 0.645750 -0.083368
v 0.825576 1.637164 -0.009426
v 0.963694 1.965537 -0.401866
v 0.145263 -0.552164 0.105626
v -0.224357 -0.484341 0.028055
v 0.223213 0.687244 0.234256
v 0.110710 0.067881 -0.433156
v 0.675072 0.245084 -0.343114
v 0.864749 1.440262 -0.677927
vt 0.874777 0.254416
vt 0.673742 0.344725
vt 0.746428 0.439202
vt 1.000000 0.314921
vt 0.909615 0.393651
vt 0.464437 0.251883
vt 0.239242 0.325976
vt 0.375104 0.452519
vt 0.614249 0.353224
vt 0.533986 0.452519
vt 0.579127 0.215785
vt 0.336731 0.204062
vt 0.724000 0.213543
vt 0.173415 0.175567
vt 0.016522 0.186077
vt 0.458569 0.078731
vt 0.318182 0.078731
vt 0.238677 0.058977
vt 0.078618 0.070491
vt 0.590909 0.078731
vt 0.662857 0.045890
vt 0.818968 0.078731
vn -0.5894 0.7095 0.3863
vn -0.6020 0.4574 -0.6545
vn 0.9721 -0.0645 -0.2257
vn 0.9152 0.0856 0.3937
vn 0.7048 0.0357 0.7085
vn 0.8379 -0.2664 -0.4763
vn -0.5190 0.5059 0.6890
vn 0.2407 -0.2971 -0.9240
vn -0.5761 0.1741 -0.7986
vn 0.1148 0.1779 0.9773
vn 0.7251 -0.3986 0.5615
vn 0.8289 -0.5593 -0.0150
vn 0.3087 -0.6140 -0.7264
vn 0.0385 -0.6542 -0.7553
vn -0.8575 0.0985 -0.5050
vn 0.0157 -0.1042 0.9944
vn -0.2199 -0.0870 0.9716
vn -0.8316 0.2286 0.5061
usemtl None
s off
f 13/23/19 15/24/19 16/25/19
f 22/26/20 13/23/20 16/27/20
f 14/28/21 22/29/21 16/30/21
f 15/31/22 14/28/22 16/32/22
f 12/33/23 14/28/23 15/24/23
f 14/28/24 21/34/24 22/29/24
f 19/35/25 15/24/25 13/23/25
f 21/34/26 20/36/26 22/29/26
f 20/36/27 13/37/27 22/29/27
f 19/35/28 12/33/28 15/24/28
f 17/38/29 14/28/29 12/33/29
f 17/38/30 21/34/30 14/28/30
f 17/39/31 20/36/31 21/34/31
f 17/39/32 18/40/32 20/36/32
f 18/41/33 13/37/33 20/36/33
f 19/35/34 17/42/34 12/33/34
f 19/35/35 18/43/35 17/42/35
f 18/44/36 19/35/36 13/23/36
