# Blender v2.92.0 OBJ File: 'crystals.blend'
# www.blender.org
mtllib crystal4.mtl
o Icosphere
v 0.080249 0.119365 -0.348436
v 0.071827 1.151578 0.453622
v -0.370987 1.197563 -0.346065
v 0.211822 1.151576 -0.408230
v 0.545870 1.151576 0.062103
v -0.140172 1.897287 -0.051958
v 0.062431 -0.224169 0.062103
v -0.040928 0.312766 0.398198
v 0.443002 0.312769 0.128071
v -0.522308 0.165208 0.005073
v -0.544801 1.193282 0.234584
v -0.632405 0.782969 0.005073
v 0.153822 1.794210 0.113555
vt 0.272727 0.000000
vt 0.194689 0.137153
vt 0.427623 0.139429
vt 0.318592 0.288606
vt 0.681202 0.157461
vt 0.658666 0.274305
vt 0.840484 0.274305
vt 0.863020 0.157461
vt 0.985060 0.289045
vt 0.476848 0.274305
vt 0.448444 0.139429
vt 0.727272 0.393651
vt 0.932540 0.431766
vt 0.106898 0.289045
vt 0.181818 0.393651
vt 0.351338 0.412450
vt 0.590909 0.393651
vt 0.522419 0.432483
vt 0.863635 0.393651
vt 0.181818 0.236191
vt 0.136065 0.116845
vt 0.000000 0.157461
vt 0.067874 0.039899
vt 0.636363 0.078731
vt 0.805883 0.059932
vn -0.4033 -0.6931 -0.5975
vn -0.5066 -0.2102 -0.8362
vn 0.6367 -0.0175 0.7709
vn -0.3357 -0.0171 0.9418
vn -0.1094 -0.0436 -0.9930
vn 0.8077 -0.1362 -0.5737
vn 0.6053 0.3106 0.7329
vn -0.2623 0.4893 0.8317
vn -0.8791 0.3994 -0.2602
vn -0.0653 0.4049 -0.9120
vn 0.7163 0.4777 -0.5087
vn 0.5471 0.5568 -0.6250
vn -0.2988 0.4759 0.8272
vn -0.9010 0.3418 -0.2672
vn -0.7173 -0.1278 -0.6849
vn -0.8105 -0.1445 0.5676
vn -0.5858 -0.1888 0.7882
vn 0.4837 -0.1223 0.8666
vn 0.8147 -0.1441 -0.5617
vn -0.4286 -0.5372 0.7264
vn 0.7743 -0.5014 -0.3860
vn 0.4440 -0.4124 0.7955
usemtl None
s off
f 7/1/1 10/2/1 1/3/1
f 1/3/2 10/2/2 3/4/2
f 9/5/3 5/6/3 2/7/3
f 8/8/4 2/7/4 11/9/4
f 1/3/5 3/4/5 4/10/5
f 1/11/6 4/10/6 5/6/6
f 2/7/7 5/6/7 13/12/7
f 11/9/8 2/7/8 6/13/8
f 3/4/9 11/14/9 6/15/9
f 4/10/10 3/4/10 6/16/10
f 5/6/11 4/10/11 13/17/11
f 13/17/12 4/10/12 6/18/12
f 6/13/13 2/7/13 13/19/13
f 12/20/14 11/14/14 3/4/14
f 3/4/15 10/2/15 12/20/15
f 12/20/16 10/21/16 11/14/16
f 10/21/17 8/22/17 11/14/17
f 8/8/18 9/5/18 2/7/18
f 9/5/19 1/11/19 5/6/19
f 7/23/20 8/22/20 10/21/20
f 9/5/21 7/24/21 1/11/21
f 7/25/22 9/5/22 8/8/22
o Icosphere.006
v 0.322982 -0.058413 -0.083635
v -0.245246 -0.099972 -0.116696
v 0.426596 -0.092843 -1.297763
v -0.032601 -0.562005 -0.732789
v -0.176983 -0.350641 -1.385065
v 0.782119 0.485155 -1.008357
v -0.056195 0.486445 0.103368
v -0.725301 0.228184 -1.004406
v 0.211168 0.904956 -1.413553
v 0.365476 0.682501 -1.319921
v 0.316176 0.801851 -0.078291
v 0.160196 1.081138 -0.887177
v -0.506765 0.924558 -0.589553
v -0.322409 0.837786 -1.291264
vt 0.818082 0.157461
vt 0.638178 0.003145
vt 0.518997 0.135696
vt 0.454545 0.000000
vt 0.382408 0.095940
vt 0.619197 0.240588
vt 0.909090 0.157461
vt 0.879533 0.255334
vt 0.810634 0.313699
vt 0.306901 0.332663
vt 0.466777 0.336107
vt 0.530193 0.288487
vt 0.563955 0.440336
vt 0.433057 0.352139
vt 0.363636 0.472382
vt 0.255667 0.344470
vt 0.133606 0.334530
vt 0.181818 0.472382
vt 0.982712 0.344865
vt 0.909090 0.472382
vt 0.708771 0.440336
vt 0.195043 0.217918
vt 0.045454 0.236191
vt 0.027489 0.157461
vt 0.248345 0.042231
vt 0.090996 0.078730
vt 0.841721 0.043689
vn 0.7604 -0.6441 0.0832
vn 0.4099 -0.8372 -0.3620
vn 0.8287 -0.5530 0.0864
vn -0.0296 -0.3428 0.9389
vn 0.8947 0.0043 0.4467
vn -0.2290 0.0487 -0.9722
vn 0.6063 0.0251 -0.7949
vn 0.6067 0.7070 -0.3635
vn 0.8367 0.5386 -0.0993
vn -0.1917 0.9250 -0.3282
vn -0.3060 0.9317 -0.1956
vn -0.0697 0.9387 0.3376
vn -0.2910 0.7118 0.6393
vn 0.6988 0.7069 0.1093
vn -0.8563 0.4348 -0.2787
vn 0.5378 0.0183 -0.8429
vn 0.1746 -0.0762 -0.9817
vn -0.5743 -0.0057 -0.8186
vn -0.8504 -0.0454 0.5242
vn -0.8617 0.0904 0.4994
vn 0.4399 -0.0021 0.8981
vn -0.7419 -0.6684 -0.0524
vn -0.7697 -0.6091 0.1911
vn 0.0230 -0.7960 0.6049
usemtl None
s off
f 14/26/23 17/27/23 16/28/23
f 17/29/24 18/30/24 16/28/24
f 14/26/25 16/28/25 19/31/25
f 15/32/26 14/26/26 20/33/26
f 14/26/27 19/31/27 24/34/27
f 18/30/28 27/35/28 22/36/28
f 16/28/29 23/37/29 19/31/29
f 19/31/30 23/37/30 25/38/30
f 25/38/31 23/37/31 22/36/31
f 22/39/32 27/35/32 25/40/32
f 27/41/33 26/42/33 25/43/33
f 26/44/34 24/34/34 25/45/34
f 26/44/35 20/33/35 24/34/35
f 24/34/36 19/31/36 25/46/36
f 21/47/37 26/42/37 27/35/37
f 23/37/38 16/28/38 22/36/38
f 16/28/39 18/30/39 22/36/39
f 27/35/40 18/30/40 21/47/40
f 21/47/41 20/48/41 26/42/41
f 21/47/42 15/49/42 20/48/42
f 20/33/43 14/26/43 24/34/43
f 17/50/44 21/47/44 18/30/44
f 17/51/45 15/49/45 21/47/45
f 17/52/46 14/26/46 15/32/46
o Icosphere.007
v -0.824392 -0.179187 1.170498
v -1.637710 -0.461146 0.534233
v -0.903337 -0.280478 -0.447389
v -0.276415 0.223553 -0.358063
v -0.686890 0.971642 0.861240
v 0.094989 -0.519966 0.830443
v -0.324376 -0.971580 0.534233
v -0.939757 -0.868405 0.919575
v -0.811216 -1.004826 0.256736
v -1.191531 -0.437945 0.201864
v -0.215876 -0.537722 -0.185516
v -0.466571 -0.436266 1.318831
v -1.694341 -0.013931 0.843245
v -1.649042 0.238309 0.107726
v -0.474962 0.468735 1.283065
v -0.982445 0.483545 -0.282773
v 0.136661 0.224988 0.087924
v -0.772593 1.004000 0.219900
v -1.480501 0.692804 0.613485
vt 0.818181 0.000000
vt 0.772726 0.078731
vt 0.863635 0.078731
vt 0.181818 0.157461
vt 0.049581 0.188660
vt 0.136363 0.236191
vt 0.383801 0.192388
vt 0.272727 0.157461
vt 0.361813 0.311763
vt 0.684708 0.157461
vt 0.575746 0.276854
vt 0.820649 0.182733
vt 0.249881 0.275351
vt 0.499383 0.157461
vt 0.477581 0.275022
vt 0.165357 0.340729
vt 0.227273 0.393651
vt 0.374838 0.393651
vt 0.511027 0.393651
vt 0.181818 0.472382
vt 0.985100 0.340729
vt 0.827380 0.314921
vt 0.882486 0.426302
vt 0.753876 0.426302
vt 0.681818 0.393651
vt 0.927103 0.188660
vt 0.500000 0.078731
vt 0.431544 0.039839
vt 0.295728 0.039839
vt 0.227273 0.078731
vt 0.073466 0.078731
vt 0.636363 0.078731
vn -0.0433 -0.9802 0.1933
vn -0.3830 -0.5575 0.7366
vn -0.9134 -0.0069 -0.4071
vn 0.5926 0.5518 0.5868
vn -0.9941 -0.0676 -0.0844
vn 0.7305 -0.0952 -0.6763
vn -0.5561 0.7018 -0.4453
vn 0.1608 0.6514 -0.7415
vn 0.5255 0.6962 -0.4890
vn -0.5384 0.6876 -0.4872
vn -0.3561 0.9296 0.0945
vn -0.4104 0.4783 0.7764
vn 0.9457 0.3055 -0.1110
vn 0.6547 0.7327 0.1856
vn -0.0277 0.2078 -0.9778
vn -0.9520 0.3027 0.0452
vn -0.5273 0.1387 0.8383
vn -0.3621 0.0335 0.9315
vn 0.8920 0.0261 0.4512
vn 0.2866 -0.1900 -0.9390
vn -0.3661 -0.3667 -0.8553
vn -0.5178 -0.4515 -0.7267
vn -0.2648 0.3697 0.8906
vn 0.9070 -0.3217 -0.2719
vn 0.3159 -0.8329 -0.4544
vn 0.0129 -0.6961 -0.7178
vn -0.7216 -0.5275 -0.4483
vn -0.8275 -0.5596 -0.0453
vn -0.2706 -0.8645 -0.4236
vn -0.5601 -0.1990 0.8042
vn 0.7837 -0.5771 -0.2297
vn -0.5041 -0.2197 0.8352
vn 0.2296 -0.7841 0.5766
vn 0.3844 -0.7287 0.5668
usemtl None
s off
f 36/53/47 34/54/47 35/55/47
f 29/56/48 28/57/48 40/58/48
f 30/59/49 37/60/49 43/61/49
f 33/62/50 44/63/50 39/64/50
f 29/56/51 40/58/51 41/65/51
f 38/66/52 31/67/52 44/63/52
f 41/65/53 46/68/53 45/69/53
f 31/67/54 43/61/54 45/70/54
f 44/63/55 31/67/55 45/71/55
f 43/61/56 41/65/56 45/70/56
f 45/69/57 46/68/57 32/72/57
f 46/73/58 42/74/58 32/75/58
f 32/76/59 42/74/59 45/77/59
f 42/74/60 44/63/60 45/77/60
f 30/59/61 43/61/61 31/67/61
f 41/65/62 40/58/62 46/68/62
f 28/78/63 42/74/63 46/73/63
f 28/78/64 39/64/64 42/74/64
f 39/64/65 44/63/65 42/74/65
f 31/67/66 38/66/66 30/59/66
f 43/61/67 37/60/67 41/65/67
f 37/60/68 29/56/68 41/65/68
f 40/58/69 28/57/69 46/68/69
f 33/62/70 38/66/70 44/63/70
f 34/79/71 36/80/71 38/66/71
f 36/80/72 30/59/72 38/66/72
f 36/81/73 37/60/73 30/59/73
f 36/81/74 35/82/74 37/60/74
f 35/82/75 29/56/75 37/60/75
f 35/83/76 28/57/76 29/56/76
f 33/62/77 34/84/77 38/66/77
f 35/55/78 39/64/78 28/78/78
f 35/55/79 34/54/79 39/64/79
f 34/54/80 33/62/80 39/64/80
