# Blender v2.92.0 OBJ File: 'crystals.blend'
# www.blender.org
mtllib crystal2.mtl
o Icosphere.002
v -0.350297 0.038419 -0.396681
v -0.334742 -0.204659 -0.271018
v 0.371767 0.859830 1.330194
v -0.055786 -0.073888 -0.364375
v 0.129752 0.542403 -0.087919
v 0.567843 0.252112 0.199062
v -0.194384 0.171405 0.699476
v 0.277266 -0.043967 0.545930
v -0.310646 0.489603 0.321635
v 0.916380 0.813518 1.012973
v 0.570089 0.272263 1.345976
v 1.152719 0.502780 1.462162
v 0.910941 0.500541 1.962560
v 1.093515 0.258433 1.838003
vt 0.090909 0.000000
vt 0.046843 0.081136
vt 0.191540 0.080654
vt 0.181818 0.236191
vt 0.384748 0.415473
vt 0.239606 0.314921
vt 0.318182 0.393651
vt 0.090909 0.314921
vt 0.181818 0.393651
vt 0.954545 0.393651
vt 0.894510 0.366299
vt 0.909090 0.472382
vt 0.772726 0.393651
vt 0.780448 0.314921
vt 0.713807 0.449060
vt 0.540163 0.314921
vt 0.366713 0.212121
vt 0.906013 0.212121
vt 0.741538 0.179870
vt 0.509142 0.184530
vt 0.253614 0.080654
vt 0.014241 0.182127
vt 0.466931 0.021453
vt 0.409090 0.078731
vt 0.635350 0.041151
vt 0.863635 0.078731
vt 0.802549 0.027076
vn -0.0792 -0.4618 -0.8835
vn 0.3905 -0.9136 -0.1129
vn -0.5197 -0.6667 0.5342
vn 0.4046 -0.7945 -0.4528
vn 0.8192 0.4132 0.3977
vn 0.5426 0.7968 0.2657
vn 0.2551 0.9179 0.3040
vn -0.7550 0.0205 0.6554
vn -0.2848 -0.8370 0.4673
vn 0.3133 -0.9168 0.2477
vn 0.9007 0.0638 -0.4297
vn -0.0403 0.9765 -0.2117
vn -0.8416 0.2568 0.4752
vn -0.2533 -0.8644 0.4344
vn -0.2782 -0.8814 0.3818
vn 0.6230 -0.7703 -0.1356
vn 0.5825 -0.7910 -0.1871
vn 0.6773 0.4373 -0.5916
vn -0.2686 0.9487 -0.1665
vn -0.9971 -0.0267 0.0718
vn -0.9731 -0.1291 0.1907
vn -0.4994 0.7458 -0.4409
vn 0.6136 0.1620 -0.7728
vn 0.2297 0.3399 -0.9120
usemtl None
s off
f 1/1/1 4/2/1 2/3/1
f 2/3/2 4/2/2 8/4/2
f 13/5/3 11/6/3 14/7/3
f 11/6/4 12/8/4 14/9/4
f 14/10/5 12/11/5 13/12/5
f 12/13/6 10/14/6 13/15/6
f 10/14/7 3/16/7 13/15/7
f 7/17/8 13/5/8 3/16/8
f 7/17/9 11/6/9 13/5/9
f 8/4/10 12/8/10 11/6/10
f 6/18/11 10/14/11 12/11/11
f 5/19/12 3/16/12 10/14/12
f 9/20/13 7/17/13 3/16/13
f 7/17/14 8/4/14 11/6/14
f 7/17/15 2/21/15 8/4/15
f 8/4/16 6/22/16 12/8/16
f 8/4/17 4/2/17 6/22/17
f 6/18/18 5/19/18 10/14/18
f 5/19/19 9/20/19 3/16/19
f 1/23/20 2/24/20 9/20/20
f 2/24/21 7/17/21 9/20/21
f 5/19/22 1/25/22 9/20/22
f 4/26/23 5/19/23 6/18/23
f 4/26/24 1/27/24 5/19/24
