# Blender v2.92.0 OBJ File: 'crystals.blend'
# www.blender.org
mtllib crystal6.mtl
o Icosphere.002
v -0.512467 0.073916 -1.318177
v -0.524479 -0.189747 -1.244304
v 0.413259 0.424459 0.470214
v -0.235457 -0.079178 -1.333037
v 0.050412 0.438469 -0.957555
v 0.458319 0.042090 -0.770347
v -0.278681 -0.041995 -0.233989
v 0.148519 -0.279474 -0.465329
v -0.369594 0.359169 -0.531199
v 0.927387 0.375359 0.106017
v 0.527087 -0.174181 0.354073
v 1.142000 -0.048499 0.464444
v 0.930503 -0.122669 0.972999
v 1.069812 -0.355259 0.788720
vt 0.090909 0.000000
vt 0.046843 0.081136
vt 0.191540 0.080654
vt 0.181818 0.236191
vt 0.384748 0.415473
vt 0.239606 0.314921
vt 0.318182 0.393651
vt 0.090909 0.314921
vt 0.181818 0.393651
vt 0.954545 0.393651
vt 0.894510 0.366299
vt 0.909090 0.472382
vt 0.772726 0.393651
vt 0.780448 0.314921
vt 0.713807 0.449060
vt 0.540163 0.314921
vt 0.366713 0.212121
vt 0.906013 0.212121
vt 0.741538 0.179870
vt 0.509142 0.184530
vt 0.253614 0.080654
vt 0.014241 0.182127
vt 0.466931 0.021453
vt 0.409090 0.078731
vt 0.635350 0.041151
vt 0.863635 0.078731
vt 0.802549 0.027076
vn -0.1926 -0.2566 -0.9471
vn 0.2506 -0.9131 -0.3217
vn -0.5783 -0.6905 0.4344
vn 0.2625 -0.7295 -0.6316
vn 0.8902 0.2150 0.4016
vn 0.6637 0.6496 0.3708
vn 0.3988 0.7958 0.4557
vn -0.7070 -0.0186 0.7070
vn -0.3738 -0.8719 0.3162
vn 0.1938 -0.9804 0.0364
vn 0.8754 0.0356 -0.4821
vn 0.0865 0.9962 -0.0122
vn -0.7691 0.2587 0.5844
vn -0.3484 -0.8958 0.2761
vn -0.3784 -0.8983 0.2234
vn 0.4994 -0.7990 -0.3351
vn 0.4536 -0.8032 -0.3861
vn 0.6984 0.4596 -0.5486
vn -0.1406 0.9890 0.0454
vn -0.9853 0.0862 0.1476
vn -0.9695 -0.0406 0.2418
vn -0.4127 0.8778 -0.2433
vn 0.5864 0.2378 -0.7743
vn 0.2244 0.4879 -0.8435
usemtl None
s off
f 1/1/1 4/2/1 2/3/1
f 2/3/2 4/2/2 8/4/2
f 13/5/3 11/6/3 14/7/3
f 11/6/4 12/8/4 14/9/4
f 14/10/5 12/11/5 13/12/5
f 12/13/6 10/14/6 13/15/6
f 10/14/7 3/16/7 13/15/7
f 7/17/8 13/5/8 3/16/8
f 7/17/9 11/6/9 13/5/9
f 8/4/10 12/8/10 11/6/10
f 6/18/11 10/14/11 12/11/11
f 5/19/12 3/16/12 10/14/12
f 9/20/13 7/17/13 3/16/13
f 7/17/14 8/4/14 11/6/14
f 7/17/15 2/21/15 8/4/15
f 8/4/16 6/22/16 12/8/16
f 8/4/17 4/2/17 6/22/17
f 6/18/18 5/19/18 10/14/18
f 5/19/19 9/20/19 3/16/19
f 1/23/20 2/24/20 9/20/20
f 2/24/21 7/17/21 9/20/21
f 5/19/22 1/25/22 9/20/22
f 4/26/23 5/19/23 6/18/23
f 4/26/24 1/27/24 5/19/24
o Icosphere.009_Icosphere.015
v -0.311514 0.153235 0.786959
v 0.501709 0.043617 0.389640
v -0.470706 -0.114685 0.492451
v 0.237373 -0.819691 0.566393
v 0.330492 -1.163543 0.173952
v -0.573106 1.324862 0.681445
v -0.239979 1.498774 0.603874
v 0.127898 0.299776 0.810074
v -0.164426 0.857283 0.142663
v -0.500350 0.370394 0.232705
v 0.085360 -0.688554 -0.102109
vt 0.874777 0.254416
vt 0.673742 0.344725
vt 0.746428 0.439202
vt 1.000000 0.314921
vt 0.909615 0.393651
vt 0.464437 0.251883
vt 0.239242 0.325976
vt 0.375104 0.452519
vt 0.614249 0.353224
vt 0.533986 0.452519
vt 0.579127 0.215785
vt 0.336731 0.204062
vt 0.724000 0.213543
vt 0.173415 0.175567
vt 0.016522 0.186077
vt 0.458569 0.078731
vt 0.318182 0.078731
vt 0.238677 0.058977
vt 0.078618 0.070491
vt 0.590909 0.078731
vt 0.662857 0.045890
vt 0.818968 0.078731
vn 0.9011 -0.1968 0.3863
vn 0.7560 0.0097 -0.6545
vn -0.8060 -0.5472 -0.2257
vn -0.6689 -0.6305 0.3937
vn -0.5337 -0.4617 0.7085
vn -0.8245 -0.3054 -0.4763
vn 0.7204 -0.0795 0.6890
vn -0.3725 0.0861 -0.9240
vn 0.5613 0.2172 -0.7986
vn 0.0189 -0.2109 0.9773
vn -0.8169 -0.1318 0.5615
vn -0.9975 -0.0690 -0.0150
vn -0.6211 0.2942 -0.7264
vn -0.4328 0.4921 -0.7553
vn 0.7367 0.4498 -0.5050
vn -0.0765 0.0725 0.9944
vn 0.1198 0.2039 0.9716
vn 0.7963 0.3314 0.5061
usemtl None
s off
f 16/28/25 18/29/25 19/30/25
f 25/31/26 16/28/26 19/32/26
f 17/33/27 25/34/27 19/35/27
f 18/36/28 17/33/28 19/37/28
f 15/38/29 17/33/29 18/29/29
f 17/33/30 24/39/30 25/34/30
f 22/40/31 18/29/31 16/28/31
f 24/39/32 23/41/32 25/34/32
f 23/41/33 16/42/33 25/34/33
f 22/40/34 15/38/34 18/29/34
f 20/43/35 17/33/35 15/38/35
f 20/43/36 24/39/36 17/33/36
f 20/44/37 23/41/37 24/39/37
f 20/44/38 21/45/38 23/41/38
f 21/46/39 16/42/39 23/41/39
f 22/40/40 20/47/40 15/38/40
f 22/40/41 21/48/41 20/47/41
f 21/49/42 22/40/42 16/28/42
