# Blender v2.92.0 OBJ File: 'crystals.blend'
# www.blender.org
mtllib crystal7.mtl
o Icosphere.001
v -0.360481 0.791134 -0.386570
v -1.118192 0.736391 0.117502
v -0.609710 0.909573 -0.714769
v -1.153872 1.590976 -0.221358
v -1.633039 1.741096 -0.390997
v 0.102662 -0.321267 -0.404840
v -0.062494 -0.507022 -0.112513
v -0.508514 0.673726 0.036979
v -0.693197 -0.115339 -0.393108
v -0.628070 0.360004 -0.750627
v -1.560778 1.190889 -0.623300
vt 0.874777 0.254416
vt 0.673742 0.344725
vt 0.746428 0.439202
vt 1.000000 0.314921
vt 0.909615 0.393651
vt 0.464437 0.251883
vt 0.239242 0.325976
vt 0.375104 0.452519
vt 0.614249 0.353224
vt 0.533986 0.452519
vt 0.579127 0.215785
vt 0.336731 0.204062
vt 0.724000 0.213543
vt 0.173415 0.175567
vt 0.016522 0.186077
vt 0.458569 0.078731
vt 0.318182 0.078731
vt 0.238677 0.058977
vt 0.078618 0.070491
vt 0.590909 0.078731
vt 0.662857 0.045890
vt 0.818968 0.078731
vn -0.2122 0.3525 0.9114
vn -0.8904 -0.2713 0.3655
vn 0.0275 0.3919 -0.9196
vn 0.4199 0.7279 -0.5421
vn 0.6619 0.7076 -0.2473
vn -0.0757 0.0674 -0.9948
vn 0.1589 0.3696 0.9155
vn -0.5155 -0.4688 -0.7172
vn -0.8339 -0.5226 0.1776
vn 0.6891 0.5995 0.4070
vn 0.8036 0.3426 -0.4866
vn 0.4595 0.0425 -0.8872
vn -0.1616 -0.5790 -0.7992
vn -0.2077 -0.7682 -0.6055
vn -0.6059 -0.6091 0.5117
vn 0.8509 0.3478 0.3938
vn 0.7820 0.2216 0.5826
vn 0.1225 -0.0790 0.9893
usemtl None
s off
f 2/1/1 4/2/1 5/3/1
f 11/4/2 2/1/2 5/5/2
f 3/6/3 11/7/3 5/8/3
f 4/9/4 3/6/4 5/10/4
f 1/11/5 3/6/5 4/2/5
f 3/6/6 10/12/6 11/7/6
f 8/13/7 4/2/7 2/1/7
f 10/12/8 9/14/8 11/7/8
f 9/14/9 2/15/9 11/7/9
f 8/13/10 1/11/10 4/2/10
f 6/16/11 3/6/11 1/11/11
f 6/16/12 10/12/12 3/6/12
f 6/17/13 9/14/13 10/12/13
f 6/17/14 7/18/14 9/14/14
f 7/19/15 2/15/15 9/14/15
f 8/13/16 6/20/16 1/11/16
f 8/13/17 7/21/17 6/20/17
f 7/22/18 8/13/18 2/1/18
o Icosphere.009_Icosphere.015
v -0.010116 0.752444 -0.834248
v 0.661050 1.080279 -0.311495
v -0.276961 1.012990 -0.622667
v 0.287108 1.839585 -0.672099
v 0.226322 2.239483 -0.329606
v -0.067195 -0.427029 -0.593714
v 0.266960 -0.514984 -0.426857
v 0.442936 0.701875 -0.748935
v 0.119165 0.177865 -0.069015
v -0.272809 0.567170 -0.298823
v 0.018626 1.759162 -0.032843
vt 0.874777 0.254416
vt 0.673742 0.344725
vt 0.746428 0.439202
vt 1.000000 0.314921
vt 0.909615 0.393651
vt 0.464437 0.251883
vt 0.239242 0.325976
vt 0.375104 0.452519
vt 0.614249 0.353224
vt 0.533986 0.452519
vt 0.579127 0.215785
vt 0.336731 0.204062
vt 0.724000 0.213543
vt 0.173415 0.175567
vt 0.016522 0.186077
vt 0.458569 0.078731
vt 0.318182 0.078731
vt 0.238677 0.058977
vt 0.078618 0.070491
vt 0.590909 0.078731
vt 0.662857 0.045890
vt 0.818968 0.078731
vn 0.9117 0.3383 -0.2332
vn 0.5818 0.2304 0.7800
vn -0.9229 0.3844 -0.0238
vn -0.6706 0.4211 -0.6107
vn -0.4406 0.2491 -0.8624
vn -0.9510 0.1758 0.2542
vn 0.8269 0.1499 -0.5420
vn -0.5442 -0.0538 0.8372
vn 0.4020 0.0046 0.9156
vn 0.1942 0.0926 -0.9766
vn -0.6832 -0.1140 -0.7213
vn -0.9715 -0.1453 -0.1875
vn -0.7004 -0.3322 0.6318
vn -0.4898 -0.4803 0.7276
vn 0.6776 -0.2182 0.7023
vn 0.1590 -0.2047 -0.9658
vn 0.3663 -0.2872 -0.8850
vn 0.9353 -0.2105 -0.2843
usemtl None
s off
f 13/23/19 15/24/19 16/25/19
f 22/26/20 13/23/20 16/27/20
f 14/28/21 22/29/21 16/30/21
f 15/31/22 14/28/22 16/32/22
f 12/33/23 14/28/23 15/24/23
f 14/28/24 21/34/24 22/29/24
f 19/35/25 15/24/25 13/23/25
f 21/34/26 20/36/26 22/29/26
f 20/36/27 13/37/27 22/29/27
f 19/35/28 12/33/28 15/24/28
f 17/38/29 14/28/29 12/33/29
f 17/38/30 21/34/30 14/28/30
f 17/39/31 20/36/31 21/34/31
f 17/39/32 18/40/32 20/36/32
f 18/41/33 13/37/33 20/36/33
f 19/35/34 17/42/34 12/33/34
f 19/35/35 18/43/35 17/42/35
f 18/44/36 19/35/36 13/23/36
o Icosphere.010_Icosphere.016
v 0.226137 0.442571 0.647253
v -0.371756 1.041931 0.308874
v 0.533702 0.728258 0.559823
v 0.075452 1.530573 0.947347
v 0.202798 2.023176 0.798890
v 0.147557 -0.532460 -0.056602
v -0.186159 -0.498994 -0.243016
v -0.224824 0.492561 0.551196
v 0.064742 0.252779 -0.285681
v 0.490204 0.458087 0.081531
v 0.363556 1.682329 0.329961
vt 0.874777 0.254416
vt 0.673742 0.344725
vt 0.746428 0.439202
vt 1.000000 0.314921
vt 0.909615 0.393651
vt 0.464437 0.251883
vt 0.239242 0.325976
vt 0.375104 0.452519
vt 0.614249 0.353224
vt 0.533986 0.452519
vt 0.579127 0.215785
vt 0.336731 0.204062
vt 0.724000 0.213543
vt 0.173415 0.175567
vt 0.016522 0.186077
vt 0.458569 0.078731
vt 0.318182 0.078731
vt 0.238677 0.058977
vt 0.078618 0.070491
vt 0.590909 0.078731
vt 0.662857 0.045890
vt 0.818968 0.078731
vn -0.8729 0.3331 0.3565
vn -0.5086 0.6041 -0.6135
vn 0.9613 0.2134 0.1744
vn 0.6864 0.0414 0.7260
vn 0.4244 -0.1857 0.8862
vn 0.9771 0.1345 -0.1649
vn -0.8279 0.0257 0.5602
vn 0.5746 0.2194 -0.7885
vn -0.3518 0.4313 -0.8308
vn -0.2299 -0.2882 0.9295
vn 0.6266 -0.4887 0.6071
vn 0.9351 -0.3382 0.1060
vn 0.6842 -0.1368 -0.7163
vn 0.4619 -0.2032 -0.8634
vn -0.6634 0.1802 -0.7262
vn -0.2316 -0.5570 0.7975
vn -0.4433 -0.5708 0.6911
vn -0.9674 -0.1802 0.1779
usemtl None
s off
f 24/45/37 26/46/37 27/47/37
f 33/48/38 24/45/38 27/49/38
f 25/50/39 33/51/39 27/52/39
f 26/53/40 25/50/40 27/54/40
f 23/55/41 25/50/41 26/46/41
f 25/50/42 32/56/42 33/51/42
f 30/57/43 26/46/43 24/45/43
f 32/56/44 31/58/44 33/51/44
f 31/58/45 24/59/45 33/51/45
f 30/57/46 23/55/46 26/46/46
f 28/60/47 25/50/47 23/55/47
f 28/60/48 32/56/48 25/50/48
f 28/61/49 31/58/49 32/56/49
f 28/61/50 29/62/50 31/58/50
f 29/63/51 24/59/51 31/58/51
f 30/57/52 28/64/52 23/55/52
f 30/57/53 29/65/53 28/64/53
f 29/66/54 30/57/54 24/45/54
