# Blender v2.92.0 OBJ File: ''
# www.blender.org
mtllib deadtree.mtl
o Cube
v -0.114866 -0.011144 -0.181968
v 0.182275 -0.011144 -0.114377
v 0.114866 0.011144 0.181968
v -0.182275 0.011144 0.114377
v 2.666781 3.998964 0.040992
v 2.764891 3.998964 0.329498
v 2.910653 4.261942 0.279929
v 2.812542 4.261942 -0.008576
v -0.409872 4.920261 -1.368819
v -0.175181 4.920261 -1.174444
v -0.308667 5.141769 -1.013271
v -0.543358 5.141769 -1.207645
v -2.756913 4.740241 -0.346810
v -2.705219 4.740241 -0.647125
v -2.537271 4.992865 -0.618216
v -2.588965 4.992865 -0.317901
v 1.807593 6.011741 -0.525042
v 2.068418 6.011741 -0.367460
v 1.965567 6.242616 -0.197225
v 1.704743 6.242616 -0.354807
v 0.257997 6.041096 1.012851
v 0.204914 6.041096 0.712778
v 0.431182 6.241251 0.672752
v 0.484265 6.241251 0.972824
v -1.158328 3.847479 -0.226250
v -1.158328 3.847479 -0.226250
v -1.158328 3.847479 -0.226250
v -1.158328 3.847479 -0.226250
v -0.967006 4.063428 1.081842
v -0.967006 4.063428 1.081842
v -0.967006 4.063428 1.081842
v -0.967006 4.063428 1.081842
v -1.120063 3.890669 0.035369
v -1.120063 3.890669 0.035369
v -1.120063 3.890669 0.035369
v -1.120063 3.890669 0.035369
v -1.081799 3.933859 0.296987
v -1.081799 3.933859 0.296987
v -1.081799 3.933859 0.296987
v -1.081799 3.933859 0.296987
v -1.043535 3.977048 0.558606
v -1.043535 3.977048 0.558606
v -1.043535 3.977048 0.558606
v -1.043535 3.977048 0.558606
v -1.005270 4.020238 0.820224
v -1.005270 4.020238 0.820224
v -1.005270 4.020238 0.820224
v -1.005270 4.020238 0.820224
v 0.987671 5.190413 0.883772
v 0.934589 5.190413 0.583700
v 1.170342 5.379359 0.528844
v 1.213939 5.390569 0.843745
v 0.805253 5.403084 0.916042
v 0.752170 5.403084 0.615969
v 0.978438 5.603240 0.575943
v 1.031521 5.603240 0.876015
v 0.622834 5.615755 0.948311
v 0.569752 5.615755 0.648239
v 0.796019 5.815910 0.608212
v 0.849102 5.815910 0.908285
v 0.440416 5.828425 0.980581
v 0.387333 5.828425 0.680508
v 0.613601 6.028581 0.640482
v 0.666683 6.028581 0.940554
v 1.332120 4.789321 0.509500
v 1.451719 4.810993 0.776063
v 1.597481 5.073971 0.726494
v 1.521437 5.105624 0.469675
v 1.572470 4.675655 0.413129
v 1.670581 4.675655 0.701635
v 1.816343 4.938633 0.652066
v 1.718232 4.938633 0.363561
v 1.791332 4.540316 0.338702
v 1.889443 4.540316 0.627208
v 2.035205 4.803295 0.577639
v 1.937094 4.803295 0.289133
v 2.010195 4.404978 0.264274
v 2.108305 4.404978 0.552780
v 2.254067 4.667957 0.503212
v 2.155956 4.667957 0.214706
v 2.229056 4.269640 0.189847
v 2.327167 4.269640 0.478353
v 2.472929 4.532619 0.428784
v 2.374818 4.532619 0.140278
v 2.447918 4.134302 0.115420
v 2.546029 4.134302 0.403925
v 2.691791 4.397280 0.354357
v 2.593680 4.397280 0.065851
v -1.013651 4.009305 -0.750955
v -0.666456 3.908092 -0.455181
v -0.865356 4.333882 -0.229968
v -1.307179 4.322762 -0.505030
v -0.843597 4.265875 -0.924976
v -0.530460 4.265875 -0.665630
v -0.708565 4.561422 -0.450584
v -1.021702 4.561422 -0.709929
v -0.690135 4.497411 -1.082018
v -0.404754 4.497411 -0.845661
v -0.567072 4.766762 -0.649676
v -0.852453 4.766762 -0.886033
v -0.546544 4.714056 -1.228959
v -0.287133 4.714056 -1.014111
v -0.434680 4.958895 -0.835962
v -0.694090 4.958895 -1.050809
v -1.726951 3.941469 -0.097582
v -1.651204 3.941469 -0.537635
v -1.480856 4.311641 -0.055221
v -2.017039 4.166442 -0.167777
v -1.948066 4.166442 -0.568473
v -1.723981 4.503507 -0.529901
v -1.792954 4.503507 -0.129205
v -2.278823 4.369465 -0.231123
v -2.215964 4.369465 -0.596302
v -2.011742 4.676653 -0.561149
v -2.074601 4.676653 -0.195970
v -2.523770 4.559430 -0.290395
v -2.466632 4.559430 -0.622341
v -2.280995 4.838663 -0.590387
v -2.338133 4.838663 -0.258441
v -0.229725 3.095815 -0.056037
v -0.228932 3.095815 -0.392077
v -0.056392 3.384179 -0.391669
v -0.030160 3.409172 -0.064508
v -0.532113 3.249399 -0.033310
v -0.531210 3.249399 -0.416231
v -0.334599 3.577992 -0.415767
v -0.335503 3.577992 -0.032846
v -0.889228 3.430778 -0.006470
v -0.888193 3.430778 -0.444756
v -0.664190 3.806881 -0.005939
v 1.282679 5.137276 0.343780
v 1.440652 5.368150 0.671597
v 1.387662 5.312170 0.170016
v 1.648486 5.312170 0.327597
v 1.545635 5.543044 0.497832
v 1.284811 5.543044 0.340251
v 1.492645 5.487062 -0.003749
v 1.753469 5.487062 0.153833
v 1.650618 5.717937 0.324068
v 1.389794 5.717937 0.166486
v 1.597628 5.661955 -0.177513
v 1.858452 5.661955 -0.019931
v 1.755601 5.892829 0.150304
v 1.494777 5.892829 -0.007278
v 1.702610 5.836849 -0.351277
v 1.963435 5.836849 -0.193696
v 1.860584 6.067723 -0.023461
v 1.599760 6.067723 -0.181042
v 0.372736 3.248006 -0.172327
v 0.189839 3.248006 0.071415
v 0.179763 3.434165 -0.317128
v 0.506721 3.465097 -0.071788
v 0.323824 3.465097 0.171953
v 0.130851 3.651257 0.027152
v 0.313748 3.651257 -0.216590
v 0.640706 3.682189 0.028751
v 0.457810 3.682189 0.272492
v 0.264837 3.868348 0.127691
v 0.447733 3.868348 -0.116051
v 0.774692 3.899281 0.129289
v 0.591795 3.899281 0.373031
v 0.398822 4.085441 0.228229
v 0.581719 4.085441 -0.015512
v 0.908677 4.116373 0.229828
v 0.725780 4.116373 0.473570
v 0.532807 4.302532 0.328768
v 0.715704 4.302532 0.085027
v 1.042662 4.333465 0.330367
v 0.859765 4.333465 0.574108
v 0.666792 4.519624 0.429307
v 0.849689 4.519624 0.185565
v 1.176647 4.550557 0.430905
v 0.993750 4.550557 0.674647
v 0.800777 4.736716 0.529846
v 0.983674 4.736716 0.286104
v 1.127736 4.767649 0.775186
v 0.934763 4.953808 0.630384
v 1.117660 4.953808 0.386643
v -0.110246 0.272855 -0.202277
v 0.186895 0.272855 -0.134686
v 0.119485 0.295143 0.161659
v -0.177656 0.295143 0.094069
v -0.105626 0.556855 -0.222585
v 0.191515 0.556855 -0.154995
v 0.124105 0.579143 0.141351
v -0.173036 0.579143 0.073760
v -0.101007 0.840854 -0.242894
v 0.196134 0.840854 -0.175303
v 0.128725 0.863142 0.121042
v -0.168416 0.863142 0.053451
v -0.096387 1.124853 -0.263203
v 0.200754 1.124853 -0.195612
v 0.133344 1.147142 0.100733
v -0.163797 1.147142 0.033143
v -0.091768 1.408853 -0.283511
v 0.205373 1.408853 -0.215921
v 0.137964 1.431141 0.080425
v -0.159177 1.431141 0.012834
v -0.087148 1.692852 -0.303820
v 0.209993 1.692852 -0.236229
v 0.142583 1.715140 0.060116
v -0.154558 1.715140 -0.007475
v -0.082528 1.976852 -0.324129
v 0.214613 1.976852 -0.256538
v 0.147203 1.999140 0.039807
v -0.149938 1.999140 -0.027783
v -0.077909 2.260851 -0.344437
v 0.219232 2.260851 -0.276847
v 0.151823 2.283139 0.019498
v -0.145318 2.283139 -0.048092
v -0.073289 2.544850 -0.364746
v 0.223852 2.544850 -0.297155
v 0.156442 2.567138 -0.000810
v -0.140699 2.567138 -0.068401
v -0.068670 2.828850 -0.385055
v 0.228471 2.828850 -0.317464
v 0.161062 2.851138 -0.021119
v -0.136079 2.851138 -0.088710
v -1.158328 3.847479 -0.226250
v -1.158328 3.847479 -0.226250
v -1.158328 3.847479 -0.226250
vn 0.0000 0.0000 1.0000
vn 0.9189 0.3857 0.0823
vn -0.3649 0.2566 0.8950
vn -0.3299 0.3718 -0.8677
vn -0.1886 0.9802 -0.0598
vn 0.2962 0.0244 -0.9548
vn -0.7943 -0.1182 -0.5960
vn -0.6468 0.7540 0.1144
vn 0.8601 -0.3021 0.4111
vn 0.6305 0.0512 -0.7745
vn 0.3918 0.6527 -0.6485
vn -0.8170 0.5592 -0.1406
vn 0.4637 0.6867 -0.5598
vn -0.3793 -0.5403 0.7511
vn 0.0648 0.9969 -0.0445
vn -0.3810 0.2267 0.8963
vn 0.1462 0.7759 0.6137
vn 0.2698 0.5797 0.7688
vn -0.2149 -0.2070 0.9545
vn -0.2168 -0.2103 0.9533
vn 0.2477 -0.0115 0.9688
vn 0.0588 -0.4570 -0.8875
vn 0.2218 -0.0165 -0.9750
vn -0.5335 -0.8445 -0.0466
vn 0.0231 -0.0124 -0.9997
vn 0.8170 -0.5052 -0.2778
vn 0.1788 -0.2284 0.9570
vn -0.0162 -0.9973 0.0713
vn -0.5012 0.3294 -0.8002
vn -0.8944 -0.4398 -0.0810
vn 0.3187 -0.3703 -0.8725
vn -0.8894 -0.2264 0.3972
vn 0.8182 0.4918 0.2980
vn 0.0836 -0.6405 0.7634
vn -0.7425 -0.6568 0.1314
vn -0.2038 0.0033 -0.9790
vn 0.7412 0.6589 -0.1285
vn 0.1742 0.0000 0.9847
vn -0.1742 0.0000 -0.9847
vn 0.7425 0.6568 -0.1314
vn -0.4102 -0.8907 0.1957
vn 0.3220 0.0000 0.9468
vn 0.5469 0.8276 -0.1266
vn -0.3783 0.0764 -0.9225
vn -0.4783 -0.8630 0.1627
vn 0.4783 0.8630 -0.1627
vn -0.3220 -0.0000 -0.9468
vn 0.4447 -0.6238 -0.6427
vn 0.7955 0.0470 0.6041
vn -0.3605 0.7919 0.4929
vn -0.6676 0.0455 -0.7431
vn 0.4636 -0.6869 -0.5597
vn 0.7951 0.0388 0.6052
vn -0.4111 0.7646 0.4964
vn -0.7427 0.0388 -0.6685
vn -0.5941 -0.7979 -0.1023
vn 0.0923 0.0256 -0.9954
vn 0.4362 0.8895 0.1361
vn -0.2131 0.0299 0.9766
vn 0.1257 0.0299 -0.9916
vn 0.5066 0.8577 0.0872
vn -0.4529 -0.8916 -0.0011
vn 0.0617 -0.0355 -0.9975
vn 0.5267 0.8486 -0.0487
vn 0.0722 -0.0321 0.9969
vn 0.0644 -0.0457 -0.9969
vn 0.6423 0.7610 0.0915
vn 0.0570 -0.0355 0.9977
vn 0.3122 -0.7113 -0.6297
vn 0.8473 -0.0807 0.5250
vn -0.2950 0.7807 0.5508
vn -0.8554 -0.0000 -0.5180
vn 0.3375 -0.7576 -0.5586
vn 0.8559 0.0000 0.5171
vn -0.3375 0.7576 0.5586
vn -0.8559 0.0000 -0.5171
vn 0.6333 -0.6109 0.4752
vn -0.5565 0.0098 0.8308
vn -0.6373 0.6078 -0.4738
vn 0.6002 -0.0000 -0.7999
vn -0.6002 -0.0000 0.7999
vn -0.6333 0.6109 -0.4752
vn 0.6505 -0.5974 0.4691
vn 0.5411 -0.0131 -0.8409
vn 0.2212 -0.0731 -0.9725
vn 0.9751 0.0000 0.2218
vn -0.2212 0.0731 0.9725
vn -0.9751 -0.0000 -0.2218
usemtl Material
s off
f 46//1 47//1 43//1 42//1
f 45//1 46//1 42//1 41//1
f 44//1 41//1 37//1 40//1
f 43//1 44//1 40//1 39//1
f 42//1 43//1 39//1 38//1
f 41//1 42//1 38//1 37//1
f 40//1 37//1 33//1 36//1
f 39//1 40//1 36//1 35//1
f 90//2 91//2 130//2
f 38//1 39//1 35//1 34//1
f 37//1 38//1 34//1 33//1
f 123//3 120//3 150//3
f 36//1 33//1 25//1 221//1
f 92//4 89//4 106//4
f 122//5 123//5 151//5
f 35//1 36//1 221//1 220//1
f 34//1 35//1 220//1 219//1
f 216//6 122//6 151//6
f 50//7 178//7 177//7
f 33//1 34//1 219//1 25//1
f 32//1 31//1 30//1 29//1
f 24//8 23//8 22//8 21//8
f 217//9 216//9 149//9 150//9
f 216//10 151//10 149//10
f 20//11 19//11 18//11 17//11
f 16//12 15//12 14//12 13//12
f 12//13 11//13 10//13 9//13
f 107//14 25//14 221//14 130//14
f 132//15 51//15 52//15
f 130//16 221//16 220//16 128//16
f 91//17 92//17 107//17 130//17
f 128//18 220//18 219//18 105//18
f 120//19 217//19 150//19
f 120//20 218//20 217//20
f 67//21 52//21 49//21 66//21
f 89//22 90//22 129//22 106//22
f 215//23 122//23 216//23
f 105//24 106//24 129//24 128//24
f 215//25 121//25 122//25
f 8//26 7//26 6//26 5//26
f 105//27 219//27 25//27 107//27
f 1//28 2//28 3//28 4//28
f 51//29 131//29 178//29 50//29
f 121//30 215//30 218//30 120//30
f 131//31 68//31 65//31 178//31
f 50//32 177//32 176//32 49//32
f 132//33 52//33 67//33 68//33
f 66//34 49//34 176//34 65//34
f 47//1 48//1 44//1 43//1
f 48//1 45//1 41//1 44//1
f 29//1 30//1 46//1 45//1
f 30//1 31//1 47//1 46//1
f 31//1 32//1 48//1 47//1
f 32//1 29//1 45//1 48//1
f 53//35 54//35 50//35 49//35
f 54//36 55//36 51//36 50//36
f 55//37 56//37 52//37 51//37
f 56//38 53//38 49//38 52//38
f 57//35 58//35 54//35 53//35
f 58//39 59//39 55//39 54//39
f 59//40 60//40 56//40 55//40
f 60//38 57//38 53//38 56//38
f 61//35 62//35 58//35 57//35
f 62//39 63//39 59//39 58//39
f 63//40 64//40 60//40 59//40
f 64//38 61//38 57//38 60//38
f 21//35 22//35 62//35 61//35
f 22//39 23//39 63//39 62//39
f 23//40 24//40 64//40 63//40
f 24//38 21//38 61//38 64//38
f 69//41 70//41 66//41 65//41
f 70//42 71//42 67//42 66//42
f 71//43 72//43 68//43 67//43
f 72//44 69//44 65//44 68//44
f 73//45 74//45 70//45 69//45
f 74//42 75//42 71//42 70//42
f 75//46 76//46 72//46 71//46
f 76//47 73//47 69//47 72//47
f 77//45 78//45 74//45 73//45
f 78//42 79//42 75//42 74//42
f 79//46 80//46 76//46 75//46
f 80//47 77//47 73//47 76//47
f 81//45 82//45 78//45 77//45
f 82//42 83//42 79//42 78//42
f 83//46 84//46 80//46 79//46
f 84//47 81//47 77//47 80//47
f 85//45 86//45 82//45 81//45
f 86//42 87//42 83//42 82//42
f 87//46 88//46 84//46 83//46
f 88//47 85//47 81//47 84//47
f 5//45 6//45 86//45 85//45
f 6//42 7//42 87//42 86//42
f 7//46 8//46 88//46 87//46
f 8//47 5//47 85//47 88//47
f 93//48 94//48 90//48 89//48
f 94//49 95//49 91//49 90//49
f 95//50 96//50 92//50 91//50
f 96//51 93//51 89//51 92//51
f 97//52 98//52 94//52 93//52
f 98//53 99//53 95//53 94//53
f 99//54 100//54 96//54 95//54
f 100//55 97//55 93//55 96//55
f 101//52 102//52 98//52 97//52
f 102//53 103//53 99//53 98//53
f 103//54 104//54 100//54 99//54
f 104//55 101//55 97//55 100//55
f 9//52 10//52 102//52 101//52
f 10//53 11//53 103//53 102//53
f 11//54 12//54 104//54 103//54
f 12//55 9//55 101//55 104//55
f 108//56 109//56 106//56 105//56
f 109//57 110//57 92//57 106//57
f 110//58 111//58 107//58 92//58
f 111//59 108//59 105//59 107//59
f 112//56 113//56 109//56 108//56
f 113//60 114//60 110//60 109//60
f 114//61 115//61 111//61 110//61
f 115//59 112//59 108//59 111//59
f 116//56 117//56 113//56 112//56
f 117//60 118//60 114//60 113//60
f 118//61 119//61 115//61 114//61
f 119//59 116//59 112//59 115//59
f 13//56 14//56 117//56 116//56
f 14//60 15//60 118//60 117//60
f 15//61 16//61 119//61 118//61
f 16//59 13//59 116//59 119//59
f 124//62 125//62 121//62 120//62
f 125//63 126//63 122//63 121//63
f 126//64 127//64 123//64 122//64
f 127//65 124//65 120//65 123//65
f 128//62 129//62 125//62 124//62
f 129//66 90//66 126//66 125//66
f 90//67 130//67 127//67 126//67
f 130//68 128//68 124//68 127//68
f 133//69 134//69 68//69 131//69
f 134//70 135//70 132//70 68//70
f 135//71 136//71 51//71 132//71
f 136//72 133//72 131//72 51//72
f 137//73 138//73 134//73 133//73
f 138//74 139//74 135//74 134//74
f 139//75 140//75 136//75 135//75
f 140//76 137//76 133//76 136//76
f 141//73 142//73 138//73 137//73
f 142//74 143//74 139//74 138//74
f 143//75 144//75 140//75 139//75
f 144//76 141//76 137//76 140//76
f 145//73 146//73 142//73 141//73
f 146//74 147//74 143//74 142//74
f 147//75 148//75 144//75 143//75
f 148//76 145//76 141//76 144//76
f 17//73 18//73 146//73 145//73
f 18//74 19//74 147//74 146//74
f 19//75 20//75 148//75 147//75
f 20//76 17//76 145//76 148//76
f 152//77 153//77 150//77 149//77
f 153//78 154//78 123//78 150//78
f 154//79 155//79 151//79 123//79
f 155//80 152//80 149//80 151//80
f 156//77 157//77 153//77 152//77
f 157//81 158//81 154//81 153//81
f 158//82 159//82 155//82 154//82
f 159//80 156//80 152//80 155//80
f 160//77 161//77 157//77 156//77
f 161//81 162//81 158//81 157//81
f 162//82 163//82 159//82 158//82
f 163//80 160//80 156//80 159//80
f 164//77 165//77 161//77 160//77
f 165//81 166//81 162//81 161//81
f 166//82 167//82 163//82 162//82
f 167//80 164//80 160//80 163//80
f 168//77 169//77 165//77 164//77
f 169//81 170//81 166//81 165//81
f 170//82 171//82 167//82 166//82
f 171//80 168//80 164//80 167//80
f 172//77 173//77 169//77 168//77
f 173//81 174//81 170//81 169//81
f 174//82 175//82 171//82 170//82
f 175//80 172//80 168//80 171//80
f 65//83 176//83 173//83 172//83
f 176//81 177//81 174//81 173//81
f 177//82 178//82 175//82 174//82
f 178//84 65//84 172//84 175//84
f 179//85 180//85 2//85 1//85
f 180//86 181//86 3//86 2//86
f 181//87 182//87 4//87 3//87
f 182//88 179//88 1//88 4//88
f 183//85 184//85 180//85 179//85
f 184//86 185//86 181//86 180//86
f 185//87 186//87 182//87 181//87
f 186//88 183//88 179//88 182//88
f 187//85 188//85 184//85 183//85
f 188//86 189//86 185//86 184//86
f 189//87 190//87 186//87 185//87
f 190//88 187//88 183//88 186//88
f 191//85 192//85 188//85 187//85
f 192//86 193//86 189//86 188//86
f 193//87 194//87 190//87 189//87
f 194//88 191//88 187//88 190//88
f 195//85 196//85 192//85 191//85
f 196//86 197//86 193//86 192//86
f 197//87 198//87 194//87 193//87
f 198//88 195//88 191//88 194//88
f 199//85 200//85 196//85 195//85
f 200//86 201//86 197//86 196//86
f 201//87 202//87 198//87 197//87
f 202//88 199//88 195//88 198//88
f 203//85 204//85 200//85 199//85
f 204//86 205//86 201//86 200//86
f 205//87 206//87 202//87 201//87
f 206//88 203//88 199//88 202//88
f 207//85 208//85 204//85 203//85
f 208//86 209//86 205//86 204//86
f 209//87 210//87 206//87 205//87
f 210//88 207//88 203//88 206//88
f 211//85 212//85 208//85 207//85
f 212//86 213//86 209//86 208//86
f 213//87 214//87 210//87 209//87
f 214//88 211//88 207//88 210//88
f 215//85 216//85 212//85 211//85
f 216//86 217//86 213//86 212//86
f 217//87 218//87 214//87 213//87
f 218//88 215//88 211//88 214//88
