# Blender v2.92.0 OBJ File: 'ring.blend'
# www.blender.org
mtllib gem.mtl
o Cone
v 0.000000 1.000000 -1.000000
v -0.382683 1.000000 -0.923880
v -0.707106 1.000000 -0.707107
v -0.923879 1.000000 -0.382683
v -1.000000 1.000000 0.000000
v -0.923879 1.000000 0.382684
v -0.707106 1.000000 0.707107
v -0.382683 1.000000 0.923880
v 0.000000 1.000000 1.000000
v 0.382684 1.000000 0.923880
v 0.707107 1.000000 0.707107
v 0.923880 1.000000 0.382684
v 1.000000 1.000000 -0.000000
v 0.923880 1.000000 -0.382684
v 0.707107 1.000000 -0.707107
v 0.382683 1.000000 -0.923880
v -0.000000 0.000000 0.000000
v 0.000000 1.209980 -0.652884
v -0.249847 1.209980 -0.603186
v -0.461658 1.209981 -0.461658
v -0.603185 1.209981 -0.249848
v -0.652883 1.209981 0.000000
v -0.603185 1.209981 0.249848
v -0.461658 1.209981 0.461658
v -0.249847 1.209980 0.603186
v 0.000000 1.209980 0.652884
v 0.249848 1.209980 0.603186
v 0.461659 1.209980 0.461659
v 0.603186 1.209980 0.249848
v 0.652884 1.209980 -0.000000
v 0.603186 1.209980 -0.249848
v 0.461659 1.209980 -0.461659
v 0.249848 1.209980 -0.603186
v 0.000000 1.206296 -0.000000
vt 0.250000 0.490000
vt 0.250000 0.250000
vt 0.341844 0.471731
vt 0.419706 0.419706
vt 0.471731 0.341844
vt 0.490000 0.250000
vt 0.471731 0.158156
vt 0.419706 0.080294
vt 0.341844 0.028269
vt 0.250000 0.010000
vt 0.158156 0.028269
vt 0.080294 0.080294
vt 0.028269 0.158156
vt 0.010000 0.250000
vt 0.028269 0.341844
vt 0.080294 0.419706
vt 0.080294 0.419706
vt 0.028269 0.341844
vt 0.158156 0.471731
vt 0.080294 0.080294
vt 0.028269 0.158156
vt 0.080294 0.080294
vt 0.471731 0.341844
vt 0.419706 0.419706
vt 0.341844 0.028269
vt 0.419706 0.080294
vt 0.158156 0.471731
vt 0.490000 0.250000
vt 0.341844 0.471731
vt 0.250000 0.490000
vt 0.250000 0.010000
vt 0.010000 0.250000
vt 0.471731 0.158156
vt 0.158156 0.028269
vt 0.471731 0.341844
vt 0.028269 0.158156
vt 0.490000 0.250000
vt 0.010000 0.250000
vt 0.471731 0.158156
vt 0.028269 0.341844
vt 0.419706 0.080294
vt 0.080294 0.419706
vt 0.341844 0.028269
vt 0.250000 0.490000
vt 0.158156 0.471731
vt 0.250000 0.010000
vt 0.341844 0.471731
vt 0.158156 0.028269
vt 0.419706 0.419706
vn -0.1393 -0.7002 -0.7002
vn -0.3966 -0.7002 -0.5936
vn -0.5936 -0.7002 -0.3966
vn -0.7002 -0.7002 -0.1393
vn -0.7002 -0.7002 0.1393
vn -0.5936 -0.7002 0.3966
vn -0.3966 -0.7002 0.5936
vn -0.1393 -0.7002 0.7002
vn 0.1393 -0.7002 0.7002
vn 0.3966 -0.7002 0.5936
vn 0.5936 -0.7002 0.3966
vn 0.7002 -0.7002 0.1393
vn 0.7002 -0.7002 -0.1393
vn 0.5936 -0.7002 -0.3966
vn 0.4365 0.8511 -0.2917
vn 0.3966 -0.7002 -0.5936
vn 0.1393 -0.7002 -0.7002
vn -0.0048 1.0000 -0.0032
vn -0.4365 0.8511 -0.2917
vn -0.2917 0.8511 0.4365
vn 0.4365 0.8511 0.2917
vn 0.2917 0.8511 -0.4365
vn -0.5149 0.8511 -0.1024
vn -0.1024 0.8511 -0.5149
vn -0.1024 0.8511 0.5149
vn 0.5149 0.8511 0.1024
vn 0.1024 0.8511 -0.5149
vn -0.5149 0.8511 0.1024
vn 0.1024 0.8511 0.5149
vn 0.5149 0.8511 -0.1024
vn -0.2917 0.8511 -0.4365
vn -0.4365 0.8511 0.2917
vn 0.2917 0.8511 0.4365
vn 0.0056 1.0000 0.0011
vn -0.0056 1.0000 -0.0011
vn 0.0056 1.0000 -0.0011
vn -0.0056 1.0000 0.0011
vn 0.0048 1.0000 -0.0032
vn -0.0048 1.0000 0.0032
vn 0.0032 1.0000 -0.0048
vn -0.0032 1.0000 0.0048
vn 0.0011 1.0000 -0.0056
vn 0.0011 1.0000 0.0056
vn -0.0011 1.0000 0.0056
vn -0.0011 1.0000 -0.0056
vn 0.0032 1.0000 0.0048
vn -0.0032 1.0000 -0.0048
vn 0.0048 1.0000 0.0032
usemtl None
s off
f 1/1/1 17/2/1 2/3/1
f 2/3/2 17/2/2 3/4/2
f 3/4/3 17/2/3 4/5/3
f 4/5/4 17/2/4 5/6/4
f 5/6/5 17/2/5 6/7/5
f 6/7/6 17/2/6 7/8/6
f 7/8/7 17/2/7 8/9/7
f 8/9/8 17/2/8 9/10/8
f 9/10/9 17/2/9 10/11/9
f 10/11/10 17/2/10 11/12/10
f 11/12/11 17/2/11 12/13/11
f 12/13/12 17/2/12 13/14/12
f 13/14/13 17/2/13 14/15/13
f 14/15/14 17/2/14 15/16/14
f 14/15/15 15/16/15 32/17/15 31/18/15
f 15/16/16 17/2/16 16/19/16
f 16/19/17 17/2/17 1/1/17
f 28/20/18 29/21/18 34/22/18
f 3/4/19 4/5/19 21/23/19 20/24/19
f 7/8/20 8/9/20 25/25/20 24/26/20
f 11/12/21 12/13/21 29/21/21 28/20/21
f 15/16/22 16/19/22 33/27/22 32/17/22
f 4/5/23 5/6/23 22/28/23 21/23/23
f 1/1/24 2/3/24 19/29/24 18/30/24
f 8/9/25 9/10/25 26/31/25 25/25/25
f 12/13/26 13/14/26 30/32/26 29/21/26
f 16/19/27 1/1/27 18/30/27 33/27/27
f 5/6/28 6/7/28 23/33/28 22/28/28
f 9/10/29 10/11/29 27/34/29 26/31/29
f 13/14/30 14/15/30 31/18/30 30/32/30
f 2/3/31 3/4/31 20/24/31 19/29/31
f 6/7/32 7/8/32 24/26/32 23/33/32
f 10/11/33 11/12/33 28/20/33 27/34/33
f 21/23/34 22/28/34 34/35/34
f 29/21/35 30/32/35 34/36/35
f 22/28/36 23/33/36 34/37/36
f 30/32/37 31/18/37 34/38/37
f 23/33/38 24/26/38 34/39/38
f 31/18/39 32/17/39 34/40/39
f 24/26/40 25/25/40 34/41/40
f 32/17/41 33/27/41 34/42/41
f 25/25/42 26/31/42 34/43/42
f 18/30/43 19/29/43 34/44/43
f 33/27/44 18/30/44 34/45/44
f 26/31/45 27/34/45 34/46/45
f 19/29/46 20/24/46 34/47/46
f 27/34/47 28/20/47 34/48/47
f 20/24/48 21/23/48 34/49/48
