# Blender v2.92.0 OBJ File: ''
# www.blender.org
mtllib livingtree.mtl
o Cube
v 0.599553 -0.046086 -0.219723
v 0.216597 -0.046086 0.600689
v -0.599553 0.046086 0.219723
v -0.216597 0.046086 -0.600689
v -1.349455 6.177089 -2.435322
v -1.277232 6.177089 -2.600914
v -1.140015 6.278215 -2.541066
v -1.212238 6.278215 -2.375474
v -1.716557 6.006118 -0.116383
v -1.896190 6.006118 -0.135587
v -1.877637 6.052722 -0.309140
v -1.698004 6.052722 -0.289937
v 0.901630 5.810704 0.480209
v 0.875468 5.810704 0.658961
v 0.698668 5.837335 0.633085
v 0.724830 5.837335 0.454333
v -0.281745 5.868729 -0.559636
v -0.135620 5.868729 -0.665863
v -0.061544 5.998214 -0.563965
v -0.207670 5.998214 -0.457738
v 0.629497 1.784062 -0.094761
v 0.332220 1.796975 0.542334
v -0.303066 1.736146 0.247134
v -0.005788 1.723233 -0.389961
v -0.200811 3.275216 -0.156174
v -0.200811 3.275216 -0.156174
v -0.200811 3.275216 -0.156174
v -0.200811 3.275216 -0.156174
v -1.760309 4.733254 -0.556888
v -1.760309 4.733254 -0.556888
v -1.760309 4.733254 -0.556888
v -1.760309 4.733254 -0.556888
v -0.122969 4.415997 -1.998933
v -0.122969 4.415997 -1.998933
v -0.122969 4.415997 -1.998933
v -0.122969 4.415997 -1.998933
v -0.122969 4.415997 -1.998933
v -0.122969 4.415997 -1.998933
v -0.122969 4.415997 -1.998933
v -0.122969 4.415997 -1.998933
v -1.760309 4.733254 -0.556888
v -1.760309 4.733254 -0.556888
v -1.760309 4.733254 -0.556888
v -1.760309 4.733254 -0.556888
v 0.233250 4.812524 0.275770
v 0.500161 4.812524 0.081736
v 0.589930 5.028969 0.313475
v 0.368555 5.049041 0.461895
v 0.126084 5.032310 0.101930
v 0.367862 5.032310 -0.073831
v 0.490426 5.246554 0.094768
v 0.248649 5.246554 0.270529
v 0.032631 5.223974 -0.049666
v 0.252490 5.223974 -0.209494
v 0.363943 5.418796 -0.056180
v 0.144084 5.418796 0.103648
v -0.052901 5.399392 -0.188414
v 0.146897 5.399392 -0.333658
v 0.248181 5.576438 -0.194333
v 0.048382 5.576438 -0.049088
v -0.132988 5.563643 -0.318327
v 0.048027 5.563643 -0.449917
v 0.139789 5.724044 -0.323690
v -0.041226 5.724044 -0.192100
v -0.208986 5.719507 -0.441609
v -0.045796 5.719507 -0.560241
v 0.036930 5.864115 -0.446443
v -0.126260 5.864115 -0.327811
v 0.854504 4.962186 0.404476
v 0.808615 4.962186 0.718012
v 0.498503 5.008896 0.672625
v 0.868294 5.210472 0.426636
v 0.828177 5.210472 0.700733
v 0.557074 5.251307 0.661055
v 0.597190 5.251307 0.386958
v 0.880319 5.426990 0.445961
v 0.845236 5.426990 0.685665
v 0.608150 5.462700 0.650965
v 0.643233 5.462700 0.411261
v 0.891325 5.625155 0.463648
v 0.860849 5.625155 0.671874
v 0.654897 5.656177 0.641731
v 0.685373 5.656177 0.433505
v 0.197362 3.426724 -0.069073
v -0.043721 3.426724 0.219926
v -0.327438 3.659556 0.011091
v -0.016288 3.643393 -0.307004
v 0.362028 3.695572 0.068292
v 0.120945 3.695572 0.357290
v -0.104986 3.930250 0.168818
v 0.136096 3.930250 -0.120180
v 0.526694 3.964419 0.205657
v 0.285611 3.964419 0.494655
v 0.059680 4.199098 0.306183
v 0.300762 4.199098 0.017184
v 0.691360 4.233267 0.343021
v 0.450277 4.233267 0.632020
v 0.224346 4.467945 0.443547
v 0.465428 4.467945 0.154549
v -0.557551 4.711265 -2.006094
v -0.423884 4.711265 -2.312561
v -0.169931 4.898424 -2.201799
v -0.303598 4.898424 -1.895332
v -0.702596 4.979744 -2.084711
v -0.580183 4.979744 -2.365376
v -0.347611 5.151145 -2.263939
v -0.470024 5.151145 -1.983274
v -0.829083 5.213874 -2.153270
v -0.716484 5.213874 -2.411433
v -0.502558 5.371533 -2.318129
v -0.615156 5.371533 -2.059965
v -0.944848 5.428156 -2.216017
v -0.841232 5.428156 -2.453586
v -0.644371 5.573240 -2.367725
v -0.747987 5.573240 -2.130155
v -1.053243 5.628797 -2.274769
v -0.958037 5.628797 -2.493056
v -0.777155 5.762105 -2.414163
v -0.872361 5.762105 -2.195877
v -1.156105 5.819195 -2.330522
v -1.068880 5.819195 -2.530510
v -0.903161 5.941328 -2.458231
v -0.990386 5.941328 -2.258244
v -1.254582 6.001477 -2.383898
v -1.174998 6.001477 -2.566368
v -1.023795 6.112911 -2.500421
v -1.103380 6.112911 -2.317951
v -1.630220 5.086308 -0.283252
v -1.945302 5.086308 -0.316935
v -1.912758 5.168054 -0.621352
v -1.597677 5.168054 -0.587669
v -1.655483 5.355454 -0.234424
v -1.930931 5.355454 -0.263871
v -1.902481 5.426917 -0.529996
v -1.627033 5.426917 -0.500549
v -1.677514 5.590165 -0.191844
v -1.918399 5.590165 -0.217596
v -1.893519 5.652660 -0.450328
v -1.652634 5.652660 -0.424576
v -1.697677 5.804979 -0.152873
v -1.906929 5.804979 -0.175243
v -1.885317 5.859268 -0.377413
v -1.676065 5.859268 -0.355043
v -0.629893 3.378736 -0.072138
v -0.536231 3.378736 -0.436649
v -0.335793 3.641546 -0.373064
v -0.889809 3.621742 -0.138924
v -0.796147 3.621742 -0.503435
v -0.551479 3.900715 -0.440567
v -0.645140 3.900715 -0.076056
v -1.149725 3.864749 -0.205709
v -1.056064 3.864749 -0.570221
v -0.811395 4.143721 -0.507353
v -0.905056 4.143721 -0.142842
v -1.409641 4.107755 -0.272495
v -1.315980 4.107755 -0.637006
v -1.071311 4.386728 -0.574138
v -1.164972 4.386728 -0.209627
v -1.669557 4.350761 -0.339280
v -1.575896 4.350761 -0.703792
v -1.331227 4.629734 -0.640924
v -1.424889 4.629734 -0.276413
v -0.371668 3.305308 -0.570140
v 0.004348 3.305308 -0.554256
v -0.358694 3.495438 -0.877266
v 0.017322 3.495438 -0.861382
v 0.008967 3.815514 -0.663589
v -0.367050 3.815514 -0.679472
v -0.345721 3.685568 -1.184393
v 0.030296 3.685568 -1.168509
v 0.021941 4.005644 -0.970715
v -0.354076 4.005644 -0.986599
v -0.332747 3.875699 -1.491519
v 0.043270 3.875699 -1.475635
v 0.034914 4.195775 -1.277841
v -0.341102 4.195775 -1.293725
v -0.319773 4.065828 -1.798646
v 0.056243 4.065828 -1.782762
v 0.047888 4.385904 -1.584968
v -0.328128 4.385904 -1.600852
v 0.372370 2.478204 -0.165373
v 0.132977 2.498694 0.343273
v -0.359208 2.345858 0.117784
v -0.119815 2.325368 -0.390862
v 0.198111 2.924533 -0.210745
v 0.000754 2.941425 0.208586
v -0.405006 2.815426 0.022692
v -0.207649 2.798534 -0.396639
v 0.610593 0.621083 -0.172517
v 0.259872 0.621083 0.578838
v -0.487579 0.705497 0.229938
v -0.136857 0.705497 -0.521416
v 0.619989 1.188854 -0.132344
v 0.296700 1.188854 0.560241
v -0.392287 1.266666 0.238632
v -0.068998 1.266666 -0.453953
v -0.200811 3.275216 -0.156174
v -0.200811 3.275216 -0.156174
v -0.200811 3.275216 -0.156174
v 0.589930 5.028969 0.313475
v -1.760309 4.733254 -0.556888
v -1.760309 4.733254 -0.556888
v -1.760309 4.733254 -0.556888
v -0.122969 4.415997 -1.998933
v -0.122969 4.415997 -1.998933
v -0.122969 4.415997 -1.998933
v 0.498503 5.008896 0.672625
v 0.808615 4.962186 0.718012
v 0.854504 4.962186 0.404476
vn 0.6913 0.6567 0.3015
vn 0.9649 0.1558 -0.2113
vn 0.3876 0.7519 0.5332
vn 0.7859 0.0362 -0.6173
vn -0.4313 -0.6796 -0.5933
vn -0.8296 0.0362 0.5571
vn 0.4058 0.7419 0.5338
vn 0.4833 -0.4379 -0.7581
vn -0.0366 0.4992 0.8657
vn -0.6042 0.4185 0.6781
vn 0.8671 0.0344 -0.4969
vn 0.1520 0.9839 0.0937
vn 0.5393 -0.2571 -0.8019
vn 0.3917 0.5918 -0.7045
vn 0.0000 0.0000 1.0000
vn 0.7667 0.0553 0.6396
vn -0.4008 -0.0581 0.9143
vn -0.4215 0.6973 -0.5797
vn 0.1459 0.9891 0.0213
vn -0.0274 0.9662 0.2565
vn 0.0401 -0.3120 -0.9492
vn 0.8330 0.3589 -0.4212
vn -0.1330 -0.9855 -0.1057
vn 0.1330 0.9855 0.1057
vn 0.2411 -0.5804 -0.7778
vn 0.0363 -0.5115 -0.8585
vn -0.9169 -0.3499 -0.1920
vn -0.9174 -0.3375 -0.2107
vn 0.0039 0.9989 -0.0469
vn 0.0988 0.1426 -0.9848
vn -0.8431 -0.4439 -0.3035
vn -0.9079 -0.3481 -0.2333
vn -0.7393 -0.4583 0.4934
vn -0.8712 0.4569 0.1798
vn -0.9087 -0.3519 -0.2245
vn 0.2448 0.2552 0.9354
vn 0.0912 -0.3720 0.9238
vn -0.0922 -0.9948 -0.0431
vn 0.8477 -0.3441 0.4037
vn -0.4096 -0.0223 0.9120
vn 0.6452 -0.1269 -0.7534
vn -0.1366 -0.0680 0.9883
vn 0.8859 0.4099 0.2172
vn -0.9338 -0.3559 -0.0371
vn 1.0000 0.0001 0.0048
vn -0.8574 0.1978 0.4752
vn -0.6745 -0.2049 -0.7093
vn -0.5131 0.8286 -0.2238
vn -0.6487 -0.0774 -0.7571
vn -0.8296 0.0362 0.5572
vn 0.9872 -0.0677 0.1445
vn -0.1327 0.0792 0.9880
vn -0.9670 0.1630 -0.1957
vn 0.2672 0.1804 -0.9466
vn -0.9638 0.2261 -0.1411
vn 0.1560 0.0792 -0.9846
vn 0.6003 -0.6236 0.5008
vn -0.6114 0.0059 0.7913
vn -0.5373 0.6743 -0.5067
vn 0.7033 0.0134 -0.7108
vn -0.6406 0.0000 0.7679
vn -0.6003 0.6236 -0.5008
vn 0.6406 0.0000 -0.7679
vn -0.7817 -0.5222 -0.3410
vn 0.3764 0.0370 -0.9257
vn 0.7358 0.5963 0.3209
vn -0.4223 0.0370 0.9057
vn -0.4223 0.0371 0.9057
vn -0.1044 -0.1870 0.9768
vn -0.9937 0.0703 -0.0874
vn 0.1004 0.3276 -0.9395
vn 0.9897 0.0703 0.1247
vn -0.6501 -0.7413 -0.1670
vn 0.2725 0.0007 -0.9622
vn 0.6738 0.7366 0.0591
vn -0.2577 -0.0003 0.9662
vn 0.2489 -0.0000 -0.9685
vn 0.6501 0.7413 0.1670
vn -0.2489 0.0000 0.9685
vn 0.0222 -0.8505 -0.5256
vn 0.9982 0.0037 0.0595
vn -0.0568 0.8848 0.4624
vn -0.9990 0.0177 0.0403
vn 0.9991 0.0000 0.0422
vn -0.0222 0.8505 0.5256
vn -0.9991 -0.0000 -0.0422
vn 0.8511 0.3533 0.3884
vn -0.4367 0.1376 0.8890
vn -0.8943 -0.1701 -0.4139
vn 0.4079 0.0666 -0.9106
vn 0.8464 0.3695 0.3835
vn -0.4471 0.1354 0.8842
vn -0.8941 -0.1710 -0.4139
vn 0.3995 0.0630 -0.9146
vn 0.9052 -0.0449 0.4225
vn -0.4170 0.0568 0.9071
vn -0.8947 0.1584 -0.4176
vn 0.4275 0.0568 -0.9022
vn 0.9053 -0.0408 0.4229
vn -0.4209 0.0566 0.9053
vn -0.8908 0.1793 -0.4175
vn 0.4221 0.0582 -0.9047
usemtl Material
s off
f 102//1 103//1 179//1
f 178//2 102//2 179//2
f 59//3 60//3 56//3 55//3
f 58//4 59//4 55//4 54//4
f 57//5 58//5 54//5 53//5
f 56//6 53//6 49//6 52//6
f 55//3 56//3 52//3 51//3
f 54//4 55//4 51//4 50//4
f 53//5 54//5 50//5 49//5
f 52//6 49//6 45//6 48//6
f 51//7 52//7 48//7 47//7
f 188//8 164//8 185//8
f 103//9 180//9 179//9
f 103//10 100//10 180//10
f 50//11 51//11 47//11 46//11
f 49//5 50//5 46//5 45//5
f 48//12 207//12 200//12 47//12
f 101//13 102//13 178//13
f 46//14 47//14 69//14
f 44//15 43//15 42//15 41//15
f 40//15 39//15 38//15 37//15
f 84//16 85//16 186//16
f 85//17 187//17 186//17
f 199//15 198//15 197//15 25//15
f 20//18 19//18 18//18 17//18
f 16//19 15//19 14//19 13//19
f 12//20 11//20 10//20 9//20
f 163//21 164//21 188//21
f 47//15 200//15 209//15 69//15
f 87//22 84//22 164//22
f 69//15 209//15 208//15 70//15
f 70//23 208//23 207//23 48//23
f 48//24 71//24 70//24
f 101//25 33//25 204//25 177//25
f 177//26 204//26 205//26 178//26
f 130//27 29//27 201//27 129//27
f 129//28 201//28 202//28 159//28
f 86//29 87//29 146//29
f 130//30 131//30 161//30 160//30
f 145//31 188//31 187//31 144//31
f 159//32 202//32 203//32 160//32
f 86//33 25//33 199//33 85//33
f 85//34 199//34 198//34 187//34
f 160//35 203//35 29//35 130//35
f 187//36 198//36 197//36 144//36
f 144//37 197//37 25//37 86//37
f 1//38 2//38 3//38 4//38
f 96//39 69//39 70//39 97//39
f 98//40 97//40 70//40 71//40
f 99//41 46//41 69//41 96//41
f 129//42 159//42 162//42 128//42
f 128//43 162//43 161//43 131//43
f 100//44 101//44 177//44 180//44
f 84//45 186//45 185//45 164//45
f 98//46 71//46 48//46 45//46
f 99//47 98//47 45//47 46//47
f 8//48 7//48 6//48 5//48
f 146//49 163//49 188//49 145//49
f 60//50 57//50 53//50 56//50
f 61//5 62//5 58//5 57//5
f 62//4 63//4 59//4 58//4
f 63//3 64//3 60//3 59//3
f 64//50 61//50 57//50 60//50
f 65//5 66//5 62//5 61//5
f 66//4 67//4 63//4 62//4
f 67//3 68//3 64//3 63//3
f 68//6 65//6 61//6 64//6
f 17//5 18//5 66//5 65//5
f 18//4 19//4 67//4 66//4
f 19//3 20//3 68//3 67//3
f 20//50 17//50 65//50 68//50
f 72//51 73//51 208//51 209//51
f 73//52 74//52 207//52 208//52
f 74//53 75//53 200//53 207//53
f 75//54 72//54 209//54 200//54
f 76//51 77//51 73//51 72//51
f 77//52 78//52 74//52 73//52
f 78//55 79//55 75//55 74//55
f 79//56 76//56 72//56 75//56
f 80//51 81//51 77//51 76//51
f 81//52 82//52 78//52 77//52
f 82//55 83//55 79//55 78//55
f 83//56 80//56 76//56 79//56
f 13//51 14//51 81//51 80//51
f 14//52 15//52 82//52 81//52
f 15//55 16//55 83//55 82//55
f 16//56 13//56 80//56 83//56
f 88//57 89//57 85//57 84//57
f 89//58 90//58 86//58 85//58
f 90//59 91//59 87//59 86//59
f 91//60 88//60 84//60 87//60
f 92//57 93//57 89//57 88//57
f 93//61 94//61 90//61 89//61
f 94//62 95//62 91//62 90//62
f 95//63 92//63 88//63 91//63
f 96//57 97//57 93//57 92//57
f 97//61 98//61 94//61 93//61
f 98//62 99//62 95//62 94//62
f 99//63 96//63 92//63 95//63
f 104//64 105//64 101//64 100//64
f 105//65 106//65 102//65 101//65
f 106//66 107//66 103//66 102//66
f 107//67 104//67 100//67 103//67
f 108//64 109//64 105//64 104//64
f 109//65 110//65 106//65 105//65
f 110//66 111//66 107//66 106//66
f 111//67 108//67 104//67 107//67
f 112//64 113//64 109//64 108//64
f 113//65 114//65 110//65 109//65
f 114//66 115//66 111//66 110//66
f 115//67 112//67 108//67 111//67
f 116//64 117//64 113//64 112//64
f 117//65 118//65 114//65 113//65
f 118//66 119//66 115//66 114//66
f 119//67 116//67 112//67 115//67
f 120//64 121//64 117//64 116//64
f 121//65 122//65 118//65 117//65
f 122//66 123//66 119//66 118//66
f 123//67 120//67 116//67 119//67
f 124//64 125//64 121//64 120//64
f 125//65 126//65 122//65 121//65
f 126//66 127//66 123//66 122//66
f 127//67 124//67 120//67 123//67
f 5//64 6//64 125//64 124//64
f 6//65 7//65 126//65 125//65
f 7//66 8//66 127//66 126//66
f 8//68 5//68 124//68 127//68
f 132//69 133//69 129//69 128//69
f 133//70 134//70 130//70 129//70
f 134//71 135//71 131//71 130//71
f 135//72 132//72 128//72 131//72
f 136//69 137//69 133//69 132//69
f 137//70 138//70 134//70 133//70
f 138//71 139//71 135//71 134//71
f 139//72 136//72 132//72 135//72
f 140//69 141//69 137//69 136//69
f 141//70 142//70 138//70 137//70
f 142//71 143//71 139//71 138//71
f 143//72 140//72 136//72 139//72
f 9//69 10//69 141//69 140//69
f 10//70 11//70 142//70 141//70
f 11//71 12//71 143//71 142//71
f 12//72 9//72 140//72 143//72
f 147//73 148//73 145//73 144//73
f 148//74 149//74 146//74 145//74
f 149//75 150//75 86//75 146//75
f 150//76 147//76 144//76 86//76
f 151//73 152//73 148//73 147//73
f 152//77 153//77 149//77 148//77
f 153//78 154//78 150//78 149//78
f 154//79 151//79 147//79 150//79
f 155//73 156//73 152//73 151//73
f 156//77 157//77 153//77 152//77
f 157//78 158//78 154//78 153//78
f 158//79 155//79 151//79 154//79
f 159//73 160//73 156//73 155//73
f 160//77 161//77 157//77 156//77
f 161//78 162//78 158//78 157//78
f 162//79 159//79 155//79 158//79
f 165//80 166//80 164//80 163//80
f 166//81 167//81 87//81 164//81
f 167//82 168//82 146//82 87//82
f 168//83 165//83 163//83 146//83
f 169//80 170//80 166//80 165//80
f 170//84 171//84 167//84 166//84
f 171//85 172//85 168//85 167//85
f 172//86 169//86 165//86 168//86
f 173//80 174//80 170//80 169//80
f 174//84 175//84 171//84 170//84
f 175//85 176//85 172//85 171//85
f 176//86 173//86 169//86 172//86
f 177//80 178//80 174//80 173//80
f 178//84 179//84 175//84 174//84
f 179//85 180//85 176//85 175//85
f 180//86 177//86 173//86 176//86
f 181//87 182//87 22//87 21//87
f 182//88 183//88 23//88 22//88
f 183//89 184//89 24//89 23//89
f 184//90 181//90 21//90 24//90
f 185//91 186//91 182//91 181//91
f 186//92 187//92 183//92 182//92
f 187//93 188//93 184//93 183//93
f 188//94 185//94 181//94 184//94
f 189//95 190//95 2//95 1//95
f 190//96 191//96 3//96 2//96
f 191//97 192//97 4//97 3//97
f 192//98 189//98 1//98 4//98
f 193//95 194//95 190//95 189//95
f 194//96 195//96 191//96 190//96
f 195//97 196//97 192//97 191//97
f 196//98 193//98 189//98 192//98
f 21//99 22//99 194//99 193//99
f 22//100 23//100 195//100 194//100
f 23//101 24//101 196//101 195//101
f 24//102 21//102 193//102 196//102
f 39//15 40//15 204//15 205//15
f 40//15 37//15 33//15 204//15
f 41//15 42//15 203//15 29//15
f 42//15 43//15 202//15 203//15
f 43//15 44//15 201//15 202//15
f 44//15 41//15 29//15 201//15
l 38 206
o Icosphere.001
v -0.116325 6.584663 -0.753920
v -1.238573 6.870232 -0.474614
v 0.036531 6.352912 0.609579
v 0.976834 6.619115 0.435939
v 0.634915 6.550675 -1.596862
v -1.417290 6.478859 -2.882687
v -1.036359 5.948551 0.289467
v 0.623474 5.423433 0.094048
v 2.101812 5.788465 -1.820423
v -0.319449 5.724129 -1.878765
v -1.725900 5.677266 -0.370929
v -0.157721 5.702090 -0.760988
v -0.097921 6.584766 0.028111
v -0.631295 6.720381 -0.835667
v -0.805859 6.626484 0.027491
v -1.158354 6.831471 -1.990776
v -0.508832 6.748367 -1.805302
v 0.423866 6.737631 0.009780
v 1.059411 6.485282 1.290595
v 0.237913 6.593310 -1.169297
v 0.902499 6.763041 -0.931340
v -0.261556 6.454120 -2.060880
v -1.776482 6.529506 -0.390104
v -1.330006 5.896933 -1.977259
v -0.478647 6.150301 0.378790
v -1.858807 6.688517 0.296951
v 1.026740 5.766888 0.457363
v 0.716004 5.615843 1.077633
v 1.629018 6.541747 -1.804300
v 1.531655 6.380178 -1.119814
v -1.034306 5.727398 -2.600096
v 0.204601 6.136452 -1.893697
v -2.265638 5.820364 0.294934
v -0.013563 5.671323 0.271524
v 1.392777 5.444976 -1.215301
v 0.684595 5.818504 -1.772536
v -0.910385 5.518317 -1.468818
v -0.604326 5.710665 -0.118819
v -1.030006 5.555853 -0.420141
v 0.316490 5.567198 -0.543678
v 0.748945 5.527965 -1.419701
v -0.224195 5.687610 -1.302715
v -0.540757 6.633135 -0.255889
v -0.761255 6.868657 -1.689802
v 0.433520 6.728739 0.556613
v 0.507003 6.702703 -0.685590
v -0.153742 6.595948 -1.675496
v -1.250978 6.412051 -1.552722
v -1.059986 6.509746 0.264638
v 1.316196 5.731221 1.396420
v 1.580189 6.782145 -1.372528
v -0.367808 6.150168 -2.248883
v -2.535671 6.574693 0.233174
v 0.068046 5.791557 0.608170
v 1.229887 5.869575 -0.803517
v 0.877926 6.120691 -1.874160
v -1.232484 5.492006 -2.210328
v -1.339581 5.570823 0.030567
v -0.078463 5.660613 -0.110968
v 0.895419 5.409822 -1.182815
v 0.381659 5.680631 -1.508944
v -0.715779 5.582727 -1.046408
vt 0.818181 0.000000
vt 0.772727 0.072170
vt 0.818181 0.103334
vt 0.863636 0.078730
vt 0.727272 0.104974
vt 0.818181 0.153087
vt 0.909090 0.157461
vt 0.681818 0.072170
vt 0.636363 0.101694
vt 0.636363 0.148713
vt 0.636363 0.000000
vt 0.590909 0.072170
vt 0.545454 0.104974
vt 0.090909 0.000000
vt 0.049242 0.078730
vt 0.091856 0.103334
vt 0.136364 0.072170
vt 0.030303 0.157461
vt 0.093434 0.153087
vt 0.181818 0.104974
vt 0.272727 0.000000
vt 0.227273 0.072170
vt 0.272727 0.101694
vt 0.318182 0.072170
vt 0.272727 0.148713
vt 0.363636 0.104974
vt 0.454545 0.000000
vt 0.409091 0.072170
vt 0.454545 0.101694
vt 0.500000 0.072170
vt 0.454545 0.148713
vt 0.636363 0.208307
vt 0.681818 0.236191
vt 0.590909 0.236191
vt 0.636363 0.367408
vt 0.818181 0.209948
vt 0.863636 0.240565
vt 0.772727 0.236191
vt 0.818181 0.367408
vt 0.091856 0.208307
vt 0.136364 0.231817
vt 0.049242 0.236191
vt 0.090909 0.314921
vt 0.272727 0.208307
vt 0.318181 0.236191
vt 0.227273 0.236191
vt 0.272727 0.367408
vt 0.454545 0.208307
vt 0.500000 0.236191
vt 0.409091 0.236191
vt 0.454545 0.367408
vt 0.727272 0.264075
vt 0.727272 0.323669
vt 0.908143 0.264075
vt 0.950757 0.236191
vt 0.906565 0.319295
vt 0.969697 0.314921
vt 0.181818 0.262434
vt 0.181818 0.319295
vt 0.363636 0.264075
vt 0.363636 0.323669
vt 0.545454 0.264075
vt 0.545454 0.323669
vt 0.727272 0.370688
vt 0.772727 0.400212
vt 0.681818 0.400212
vt 0.727272 0.472382
vt 0.908143 0.369048
vt 0.950757 0.393652
vt 0.863636 0.400212
vt 0.909090 0.472382
vt 0.181818 0.369048
vt 0.227273 0.400212
vt 0.136364 0.393652
vt 0.181818 0.472382
vt 0.363636 0.370688
vt 0.409091 0.400212
vt 0.318182 0.400212
vt 0.363636 0.472382
vt 0.545454 0.370688
vt 0.590909 0.400212
vt 0.500000 0.400212
vt 0.545454 0.472382
vn 0.1703 0.9842 0.0494
vn 0.2728 0.9489 0.1584
vn 0.0563 0.9603 0.2733
vn 0.1139 0.9925 0.0435
vn 0.3184 0.9455 0.0675
vn 0.2310 0.8802 -0.4147
vn -0.2807 0.9597 0.0123
vn -0.5376 0.6445 0.5436
vn 0.2152 0.9729 0.0849
vn -0.1755 0.9801 -0.0923
vn 0.0511 0.9973 0.0529
vn -0.1799 0.9659 -0.1864
vn 0.2001 0.9798 0.0039
vn 0.0756 0.9779 -0.1950
vn 0.4027 0.7693 -0.4961
vn -0.8193 0.5310 -0.2162
vn -0.9747 0.1809 0.1310
vn -0.9441 0.1116 -0.3101
vn -0.1968 0.4909 0.8487
vn 0.1561 0.9021 0.4022
vn -0.0427 0.0424 0.9982
vn 0.9680 0.1702 -0.1847
vn -0.5243 -0.0015 0.8515
vn 0.4213 -0.9069 -0.0098
vn -0.1426 0.9247 -0.3531
vn 0.5574 0.7894 0.2571
vn 0.9012 0.3754 0.2168
vn 0.5304 0.0633 -0.8454
vn 0.4640 0.2307 -0.8553
vn 0.5467 -0.5129 -0.6618
vn -0.3430 0.9053 -0.2506
vn -0.7062 -0.1755 -0.6859
vn -0.0322 0.0128 0.9994
vn -0.5150 -0.0311 0.8566
vn -0.3055 -0.4807 0.8219
vn -0.3550 -0.8981 0.2595
vn 0.9582 -0.1118 0.2633
vn 0.8009 -0.5306 0.2774
vn 0.7403 -0.1762 0.6488
vn -0.0894 0.5036 -0.8593
vn 0.0235 -0.0745 -0.9969
vn 0.0838 -0.2418 -0.9667
vn -0.8726 -0.3759 -0.3119
vn 0.3106 -0.9281 -0.2055
vn -0.6094 -0.7884 -0.0841
vn 0.1465 -0.6366 0.7572
vn -0.2296 -0.9726 -0.0369
vn 0.2242 -0.9586 0.1758
vn -0.3181 -0.9480 -0.0077
vn -0.2010 -0.9573 0.2077
vn -0.1726 -0.9841 -0.0418
vn 0.0330 -0.8855 -0.4634
vn -0.1224 -0.9924 -0.0155
vn -0.3060 -0.9458 -0.1087
vn 0.0412 -0.9803 -0.1934
vn -0.0649 -0.7761 -0.6272
vn -0.1724 -0.9803 -0.0962
vn -0.0752 -0.9968 0.0271
vn 0.2496 -0.9673 -0.0455
vn 0.1940 -0.9805 0.0307
usemtl None
s off
f 210/1/103 223/2/103 252/3/103 222/4/103
f 211/5/104 224/6/104 252/3/104 223/2/104
f 212/7/105 222/4/105 252/3/105 224/6/105
f 211/5/106 223/8/106 253/9/106 225/10/106
f 210/11/107 226/12/107 253/9/107 223/8/107
f 215/13/108 225/10/108 253/9/108 226/12/108
f 210/14/109 222/15/109 254/16/109 227/17/109
f 212/18/110 228/19/110 254/16/110 222/15/110
f 213/20/111 227/17/111 254/16/111 228/19/111
f 210/21/112 227/22/112 255/23/112 229/24/112
f 213/20/113 230/25/113 255/23/113 227/22/113
f 214/26/114 229/24/114 255/23/114 230/25/114
f 210/27/115 229/28/115 256/29/115 226/30/115
f 214/26/116 231/31/116 256/29/116 229/28/116
f 215/13/117 226/30/117 256/29/117 231/31/117
f 211/5/118 225/10/118 257/32/118 232/33/118
f 215/13/119 233/34/119 257/32/119 225/10/119
f 220/35/120 232/33/120 257/32/120 233/34/120
f 212/7/121 224/6/121 258/36/121 234/37/121
f 211/5/122 235/38/122 258/36/122 224/6/122
f 216/39/123 234/37/123 258/36/123 235/38/123
f 213/20/124 228/19/124 259/40/124 236/41/124
f 212/18/125 237/42/125 259/40/125 228/19/125
f 217/43/126 236/41/126 259/40/126 237/42/126
f 214/26/127 230/25/127 260/44/127 238/45/127
f 213/20/128 239/46/128 260/44/128 230/25/128
f 218/47/129 238/45/129 260/44/129 239/46/129
f 215/13/130 231/31/130 261/48/130 240/49/130
f 214/26/131 241/50/131 261/48/131 231/31/131
f 219/51/132 240/49/132 261/48/132 241/50/132
f 211/5/133 232/33/133 262/52/133 235/38/133
f 220/35/134 242/53/134 262/52/134 232/33/134
f 216/39/135 235/38/135 262/52/135 242/53/135
f 212/7/136 234/37/136 263/54/136 237/55/136
f 216/39/137 243/56/137 263/54/137 234/37/137
f 217/57/138 237/55/138 263/54/138 243/56/138
f 213/20/139 236/41/139 264/58/139 239/46/139
f 217/43/140 244/59/140 264/58/140 236/41/140
f 218/47/141 239/46/141 264/58/141 244/59/141
f 214/26/142 238/45/142 265/60/142 241/50/142
f 218/47/143 245/61/143 265/60/143 238/45/143
f 219/51/144 241/50/144 265/60/144 245/61/144
f 215/13/145 240/49/145 266/62/145 233/34/145
f 219/51/146 246/63/146 266/62/146 240/49/146
f 220/35/147 233/34/147 266/62/147 246/63/147
f 216/39/148 242/53/148 267/64/148 247/65/148
f 220/35/149 248/66/149 267/64/149 242/53/149
f 221/67/150 247/65/150 267/64/150 248/66/150
f 217/57/151 243/56/151 268/68/151 249/69/151
f 216/39/152 247/70/152 268/68/152 243/56/152
f 221/71/153 249/69/153 268/68/153 247/70/153
f 218/47/154 244/59/154 269/72/154 250/73/154
f 217/43/155 249/74/155 269/72/155 244/59/155
f 221/75/156 250/73/156 269/72/156 249/74/156
f 219/51/157 245/61/157 270/76/157 251/77/157
f 218/47/158 250/78/158 270/76/158 245/61/158
f 221/79/159 251/77/159 270/76/159 250/78/159
f 220/35/160 246/63/160 271/80/160 248/81/160
f 219/51/161 251/82/161 271/80/161 246/63/161
f 221/83/162 248/81/162 271/80/162 251/82/162
