# Blender v2.92.0 OBJ File: 'log.blend'
# www.blender.org
mtllib log.mtl
o Circle
v -2.940576 1.500000 -1.432410
v -2.940576 2.121500 -1.290557
v -2.940576 2.619905 -0.893093
v -3.059424 3.028287 -0.348819
v -3.059424 3.028287 0.348819
v -3.059424 2.725591 0.977377
v -2.940576 2.121500 1.290557
v -3.059424 1.500000 1.567590
v -2.940576 0.878501 1.290557
v -2.940576 0.380096 0.893093
v -3.059424 -0.028287 0.348819
v -3.059424 -0.028287 -0.348819
v -3.059424 0.274410 -0.977377
v -2.940576 0.878501 -1.290557
v 3.059424 1.178191 -1.535709
v 2.940576 1.843380 -1.392418
v 2.940576 2.412874 -1.105954
v 3.059424 2.924464 -0.657305
v 2.940576 2.932783 0.023092
v 2.940576 2.780226 0.642048
v 2.940576 2.374220 1.133519
v 2.940576 1.795180 1.400159
v 2.940576 1.157793 1.389158
v 3.059424 0.502206 1.206912
v 3.059424 0.076709 0.654045
v 2.940576 0.068389 -0.026352
v 2.940576 0.220947 -0.645309
v 2.940576 0.626953 -1.136780
vt 0.500000 1.000000
vt 0.716942 0.950485
vt 0.890916 0.811745
vt 0.987464 0.611261
vt 0.987464 0.388739
vt 0.890916 0.188255
vt 0.716942 0.049516
vt 0.500000 0.000000
vt 0.283058 0.049516
vt 0.109084 0.188255
vt 0.012536 0.388740
vt 0.012536 0.611260
vt 0.109084 0.811745
vt 0.283058 0.950484
vt 0.500000 1.000000
vt 0.283058 0.950484
vt 0.109084 0.811745
vt 0.012536 0.611260
vt 0.012536 0.388740
vt 0.109084 0.188255
vt 0.283058 0.049516
vt 0.500000 0.000000
vt 0.716942 0.049516
vt 0.890916 0.188255
vt 0.987464 0.388739
vt 0.987464 0.611261
vt 0.890916 0.811745
vt 0.716942 0.950485
vn -0.9999 -0.0000 -0.0108
vn 0.9999 0.0099 0.0020
vn 0.0162 0.9999 -0.0046
vn 0.0221 -0.9392 -0.3427
vn 0.0221 0.9392 0.3427
vn 0.0159 -0.6241 -0.7811
vn 0.0162 0.6242 0.7811
vn -0.0163 -0.4173 -0.9086
vn 0.0059 0.4120 0.9111
vn 0.0164 -0.2215 0.9750
vn -0.0060 0.2158 -0.9764
vn -0.0158 -0.4501 0.8928
vn -0.0003 0.5393 -0.8421
vn -0.0161 -0.7952 0.6061
vn -0.0105 0.7335 -0.6796
vn 0.0164 -0.9999 0.0046
usemtl None
s off
f 1/1/1 14/2/1 13/3/1 12/4/1 11/5/1 10/6/1 9/7/1 8/8/1 7/9/1 6/10/1 5/11/1 4/12/1 3/13/1 2/14/1
f 15/15/2 16/16/2 17/17/2 18/18/2 19/19/2 20/20/2 21/21/2 22/22/2 23/23/2 24/24/2 25/25/2 26/26/2 27/27/2 28/28/2
f 4/12/3 5/11/3 19/19/3 18/18/3
f 12/4/4 13/3/4 27/27/4 26/26/4
f 5/11/5 6/10/5 20/20/5 19/19/5
f 13/3/6 14/2/6 28/28/6 27/27/6
f 6/10/7 7/9/7 21/21/7 20/20/7
f 14/2/8 1/1/8 15/15/8 28/28/8
f 7/9/9 8/8/9 22/22/9 21/21/9
f 8/8/10 9/7/10 23/23/10 22/22/10
f 1/1/11 2/14/11 16/16/11 15/15/11
f 9/7/12 10/6/12 24/24/12 23/23/12
f 2/14/13 3/13/13 17/17/13 16/16/13
f 10/6/14 11/5/14 25/25/14 24/24/14
f 3/13/15 4/12/15 18/18/15 17/17/15
f 11/5/16 12/4/16 26/26/16 25/25/16
o Cube_Cube.001
v 1.075550 2.645311 -0.319741
v 0.780037 2.645311 0.083586
v 0.427992 2.889302 -0.174353
v 0.723505 2.889302 -0.577680
v 2.091170 3.804893 0.158903
v 2.043413 3.843779 0.292435
v 1.997272 3.972538 0.238438
v 2.045029 3.933653 0.104906
v 1.256883 3.270087 -0.108030
v 1.067780 3.331065 0.229429
v 0.854129 3.611550 0.059022
v 1.043232 3.550572 -0.278437
v 1.481576 3.411744 -0.034767
v 1.380652 3.493920 0.247427
v 1.283143 3.766028 0.133315
v 1.384067 3.683852 -0.148879
v 1.665444 3.530327 0.023648
v 1.580557 3.599446 0.261003
v 1.498541 3.828316 0.165023
v 1.583429 3.759198 -0.072332
v 1.821401 3.630910 0.073196
v 1.750116 3.688953 0.272518
v 1.681242 3.881150 0.191917
v 1.752528 3.823107 -0.007404
v 1.961613 3.721337 0.117742
v 1.902557 3.769423 0.282870
v 1.845498 3.928649 0.216096
v 1.904554 3.880563 0.050969
v 1.201433 3.022598 -0.191293
v 0.940451 3.022598 0.164905
v 0.629543 3.238079 -0.062894
v 0.890525 3.238079 -0.419092
vn -0.3936 -0.8729 -0.2884
vn 0.8922 0.4042 0.2014
vn 0.4056 -0.8305 0.3817
vn -0.2529 0.3265 0.9107
vn -0.2531 0.9099 -0.3287
vn 0.4211 -0.2164 -0.8808
vn 0.4097 -0.8260 0.3871
vn -0.2249 0.3072 0.9247
vn -0.2140 0.9147 -0.3429
vn 0.4207 -0.2185 -0.8805
vn 0.7299 -0.4256 0.5348
vn -0.5620 0.0612 0.8249
vn -0.6748 0.5479 -0.4944
vn 0.6172 0.0612 -0.7845
vn 0.7570 -0.3885 0.5253
vn -0.5633 0.0655 0.8236
vn -0.6737 0.5566 -0.4861
vn 0.6424 0.0665 -0.7635
usemtl None
s off
f 29//17 30//17 31//17 32//17
f 36//18 35//18 34//18 33//18
f 41//19 42//19 38//19 37//19
f 42//20 43//20 39//20 38//20
f 43//21 44//21 40//21 39//21
f 44//22 41//22 37//22 40//22
f 45//23 46//23 42//23 41//23
f 46//24 47//24 43//24 42//24
f 47//25 48//25 44//25 43//25
f 48//26 45//26 41//26 44//26
f 49//23 50//23 46//23 45//23
f 50//24 51//24 47//24 46//24
f 51//25 52//25 48//25 47//25
f 52//26 49//26 45//26 48//26
f 53//23 54//23 50//23 49//23
f 54//24 55//24 51//24 50//24
f 55//25 56//25 52//25 51//25
f 56//26 53//26 49//26 52//26
f 33//23 34//23 54//23 53//23
f 34//24 35//24 55//24 54//24
f 35//25 36//25 56//25 55//25
f 36//26 33//26 53//26 56//26
f 57//27 58//27 30//27 29//27
f 58//28 59//28 31//28 30//28
f 59//29 60//29 32//29 31//29
f 60//30 57//30 29//30 32//30
f 37//31 38//31 58//31 57//31
f 38//32 39//32 59//32 58//32
f 39//33 40//33 60//33 59//33
f 40//34 37//34 57//34 60//34
