# Blender v2.92.0 OBJ File: ''
# www.blender.org
mtllib rock1.mtl
o Cube
v 0.378300 0.378380 -0.378418
v 0.404951 -0.404829 -0.405629
v 0.438346 0.438906 0.438071
v 0.340368 -0.340105 0.339766
v -0.300592 0.300592 -0.300592
v -0.393576 -0.393473 -0.393643
v -0.401341 0.401370 0.401166
v -0.458335 -0.457767 0.457610
v -0.545524 -0.545341 -0.283888
v -0.487724 -0.487412 -0.000270
v -0.463955 -0.463468 0.244870
v 0.268764 -0.513751 -0.514382
v -0.000107 -0.512257 -0.512679
v -0.226384 -0.423375 -0.423628
v 0.522644 0.273120 -0.522862
v 0.556398 0.000168 -0.556753
v 0.516515 -0.269929 -0.517046
v -0.420633 -0.224579 0.419981
v -0.540210 0.000190 0.539809
v -0.398595 0.214719 0.398324
v 0.421808 0.226258 0.421434
v 0.609188 0.000599 0.608681
v 0.522829 -0.272564 0.522245
v -0.531893 0.277339 -0.531894
v -0.402449 -0.000014 -0.402460
v -0.423826 -0.226479 -0.423868
v 0.241218 0.455801 0.455114
v -0.000121 0.536944 0.536488
v -0.254544 0.483393 0.483101
v 0.421395 0.421531 -0.225515
v 0.504844 0.505121 -0.000255
v 0.572771 0.573188 0.296272
v -0.244838 -0.461496 0.461284
v -0.000456 -0.524843 0.524558
v 0.225413 -0.421965 0.421637
v -0.431822 0.431837 0.230204
v -0.569296 0.569301 -0.000015
v -0.494094 0.494095 -0.259553
v -0.200349 0.368285 -0.368286
v -0.000003 0.567686 -0.567692
v 0.244496 0.462101 -0.462121
v 0.482341 -0.482092 0.253163
v 0.519866 -0.519651 -0.000937
v 0.441704 -0.441546 -0.235766
v 0.238244 0.525132 -0.238297
v 0.000009 0.581559 -0.256849
v -0.282603 0.641195 -0.282606
v 0.254634 0.575927 -0.000116
v -0.000025 0.839545 -0.000057
v -0.272887 0.623689 -0.000015
v 0.230117 0.504224 0.229987
v -0.000050 0.608405 0.266915
v -0.238836 0.526646 0.238755
v 0.275080 -0.274839 0.621759
v 0.276052 0.000646 0.632243
v 0.228880 0.229743 0.500843
v -0.000447 -0.279250 0.641169
v -0.000315 0.000477 0.768535
v -0.000199 0.326299 0.762602
v -0.316413 -0.315755 0.728394
v -0.291190 0.000343 0.670614
v -0.219395 0.219468 0.474925
v -0.585911 -0.261275 0.261201
v -0.591989 0.000088 0.260659
v -0.691394 0.301829 0.301703
v -0.754222 -0.322514 -0.000130
v -0.783409 0.000037 -0.000055
v -0.781840 0.333158 -0.000026
v -0.651409 -0.286454 -0.286572
v -0.586690 0.000005 -0.258813
v -0.615845 0.272916 -0.272921
v -0.264897 -0.594279 -0.265066
v -0.000208 -0.662298 -0.288186
v 0.275545 -0.623019 -0.276440
v -0.318910 -0.743635 -0.000458
v -0.000321 -0.717797 -0.000696
v 0.276250 -0.632980 -0.000883
v -0.291572 -0.663478 0.290661
v -0.000396 -0.700852 0.301652
v 0.286858 -0.652843 0.286303
v 0.697906 -0.303971 -0.304978
v 0.434659 0.000303 -0.201417
v 0.713577 0.310514 -0.310611
v 0.544406 -0.242217 -0.000897
v 0.537825 0.000507 -0.000710
v 0.710684 0.306422 -0.000454
v 0.600374 -0.266461 0.266149
v 0.714493 0.000582 0.306785
v 0.503514 0.230574 0.229459
v -0.276806 -0.276749 -0.626023
v -0.271740 0.000001 -0.620687
v -0.262310 0.262311 -0.588103
v -0.000056 -0.333053 -0.781959
v -0.000005 0.000019 -0.678037
v -0.000010 0.330946 -0.776050
v 0.284537 -0.284478 -0.646673
v 0.280943 0.000065 -0.645010
v 0.287721 0.287780 -0.654693
vt 0.696045 0.554579
vt 0.752821 0.559896
vt 0.751736 0.625000
vt 0.692491 0.625000
vt 0.812853 0.562174
vt 0.812717 0.625000
vt 0.752821 0.690104
vt 0.696045 0.695421
vt 0.812853 0.687826
vt 0.666667 0.458333
vt 0.705078 0.482422
vt 0.637912 0.550456
vt 0.755208 0.494792
vt 0.813151 0.499349
vt 0.875000 0.500000
vt 0.875000 0.562500
vt 0.875000 0.625000
vt 0.875000 0.687500
vt 0.875000 0.750000
vt 0.813151 0.750651
vt 0.755208 0.755208
vt 0.705078 0.767578
vt 0.637912 0.699544
vt 0.666667 0.791667
vt 0.631945 0.625000
vt 0.429579 0.821045
vt 0.500000 0.817491
vt 0.500000 0.876736
vt 0.434896 0.877821
vt 0.570421 0.821045
vt 0.565104 0.877821
vt 0.500000 0.937717
vt 0.437174 0.937853
vt 0.562826 0.937853
vt 0.333333 0.791667
vt 0.425456 0.762912
vt 0.357422 0.830078
vt 0.500000 0.756944
vt 0.574544 0.762912
vt 0.642578 0.830078
vt 0.630208 0.880208
vt 0.625651 0.938151
vt 0.625000 1.000000
vt 0.562500 1.000000
vt 0.500000 1.000000
vt 0.437500 1.000000
vt 0.374349 0.938151
vt 0.375000 1.000000
vt 0.369792 0.880208
vt 0.437500 0.062500
vt 0.500000 0.062500
vt 0.500000 0.125000
vt 0.437500 0.125000
vt 0.562500 0.062500
vt 0.562500 0.125000
vt 0.500000 0.187500
vt 0.437500 0.187500
vt 0.562500 0.187500
vt 0.375000 0.000000
vt 0.437500 0.000000
vt 0.375000 0.062500
vt 0.500000 0.000000
vt 0.562500 0.000000
vt 0.625000 0.000000
vt 0.625000 0.062500
vt 0.625000 0.125000
vt 0.625000 0.187500
vt 0.625000 0.250000
vt 0.562500 0.250000
vt 0.500000 0.250000
vt 0.437500 0.250000
vt 0.375000 0.187500
vt 0.375000 0.250000
vt 0.375000 0.125000
vt 0.187147 0.562174
vt 0.247179 0.559896
vt 0.248264 0.625000
vt 0.187283 0.625000
vt 0.303955 0.554579
vt 0.307509 0.625000
vt 0.247179 0.690104
vt 0.187147 0.687826
vt 0.303955 0.695421
vt 0.125000 0.500000
vt 0.186849 0.499349
vt 0.125000 0.562500
vt 0.244792 0.494792
vt 0.294922 0.482422
vt 0.333333 0.458333
vt 0.362088 0.550456
vt 0.368056 0.625000
vt 0.362088 0.699544
vt 0.294922 0.767578
vt 0.244792 0.755208
vt 0.186849 0.750651
vt 0.125000 0.687500
vt 0.125000 0.750000
vt 0.125000 0.625000
vt 0.429742 0.554742
vt 0.500000 0.557726
vt 0.500000 0.625000
vt 0.432726 0.625000
vt 0.570258 0.554742
vt 0.567274 0.625000
vt 0.500000 0.692274
vt 0.429742 0.695258
vt 0.570258 0.695258
vt 0.425456 0.487088
vt 0.500000 0.493056
vt 0.574544 0.487088
vt 0.437174 0.312147
vt 0.500000 0.312283
vt 0.500000 0.373264
vt 0.434896 0.372179
vt 0.562826 0.312147
vt 0.565104 0.372179
vt 0.500000 0.432509
vt 0.429579 0.428955
vt 0.570421 0.428955
vt 0.374349 0.311849
vt 0.625651 0.311849
vt 0.630208 0.369792
vt 0.642578 0.419922
vt 0.357422 0.419922
vt 0.369792 0.369792
vn 0.4924 0.7311 -0.4723
vn -0.2321 0.8899 -0.3926
vn 0.5611 0.6943 0.4507
vn -0.4542 0.7331 0.5063
vn 0.5499 0.7883 -0.2760
vn 0.3453 0.9295 -0.1297
vn -0.4128 0.6952 -0.5884
vn -0.3211 0.0668 -0.9447
vn -0.3706 0.9178 -0.1424
vn -0.2596 0.8224 0.5062
vn -0.4901 0.8551 0.1692
vn -0.2898 0.9359 0.2000
vn 0.4024 0.8917 0.2071
vn -0.1245 0.9043 0.4084
vn 0.0024 1.0000 0.0067
vn 0.3606 0.8721 -0.3306
vn 0.2659 -0.2328 0.9355
vn 0.6286 0.2367 0.7409
vn -0.0105 -0.1156 0.9932
vn -0.6110 0.3443 0.7128
vn 0.3505 -0.8914 0.2875
vn 0.2038 -0.2017 0.9580
vn 0.1548 0.6192 0.7698
vn 0.2421 0.0483 0.9690
vn 0.6341 0.3956 0.6644
vn -0.6219 0.2884 0.7280
vn -0.4241 -0.0578 0.9038
vn -0.3278 0.6751 0.6609
vn -0.7831 -0.2040 0.5875
vn -0.6975 -0.4158 0.5836
vn -0.0030 -0.7004 0.7137
vn 0.3087 -0.6205 0.7209
vn -0.8197 -0.0491 0.5706
vn -0.8855 -0.1646 0.4346
vn -0.8761 0.0729 -0.4765
vn -0.8277 -0.0507 -0.5589
vn -0.8913 -0.1516 0.4273
vn -0.8363 -0.3246 0.4418
vn -0.7010 0.1910 0.6871
vn -0.4305 0.5105 0.7444
vn -0.5038 0.7374 0.4499
vn -0.7113 0.5333 -0.4579
vn -0.1222 0.7848 -0.6076
vn -0.7749 -0.3590 -0.5201
vn -0.5721 0.1729 -0.8017
vn -0.4481 -0.2104 -0.8689
vn -0.7507 -0.6598 -0.0340
vn -0.6339 -0.6867 0.3559
vn -0.0816 -0.9318 -0.3537
vn 0.2201 -0.9689 -0.1129
vn -0.0215 -0.9865 0.1624
vn 0.2291 -0.9734 -0.0089
vn -0.1238 -0.5901 -0.7978
vn -0.3638 -0.6956 -0.6195
vn 0.0693 -0.8697 -0.4887
vn 0.7337 -0.6111 -0.2971
vn 0.5836 -0.7803 -0.2248
vn 0.5453 -0.8365 0.0545
vn 0.4960 -0.2281 0.8378
vn 0.3422 -0.5913 0.7303
vn -0.2251 -0.6892 0.6887
vn -0.4583 -0.7538 0.4709
vn -0.7955 -0.5762 0.1877
vn -0.5529 -0.8225 -0.1333
vn 0.8989 0.4366 0.0360
vn 0.7827 -0.6019 -0.1582
vn 0.9122 -0.1623 -0.3762
vn 0.9944 0.0805 0.0678
vn 0.4167 -0.8211 -0.3901
vn 0.9265 0.3687 -0.0754
vn 0.9145 -0.3955 -0.0853
vn 0.2546 0.8971 -0.3611
vn 0.4925 0.8470 -0.1999
vn 0.9450 0.2071 0.2530
vn 0.8582 -0.2034 0.4713
vn 0.6509 0.7158 0.2527
vn 0.8757 -0.3915 0.2827
vn 0.3671 -0.7599 0.5365
vn 0.9605 -0.2770 -0.0269
vn 0.8318 -0.5461 0.0997
vn -0.3422 0.1685 -0.9244
vn -0.4056 -0.0938 -0.9092
vn 0.2684 0.1638 -0.9493
vn 0.2463 -0.1688 -0.9544
vn -0.5753 -0.5776 -0.5792
vn -0.8281 0.0731 -0.5558
vn -0.5520 -0.2647 -0.7907
vn -0.1898 0.9696 -0.1544
vn -0.6845 0.6142 -0.3926
vn 0.4446 0.6489 -0.6174
vn 0.4504 0.7941 -0.4081
vn 0.3967 0.0586 -0.9161
vn 0.3952 -0.0886 -0.9143
vn 0.5698 -0.5853 -0.5769
vn 0.2251 -0.6875 -0.6904
vn -0.4496 -0.7567 -0.4747
usemtl Material
s off
f 45/1/1 46/2/1 49/3/1 48/4/1
f 46/2/2 47/5/2 50/6/2 49/3/2
f 48/4/3 49/3/3 52/7/3 51/8/3
f 49/3/4 50/6/4 53/9/4 52/7/4
f 1/10/5 41/11/5 45/1/5 30/12/5
f 41/11/6 40/13/6 46/2/6 45/1/6
f 40/13/7 39/14/7 47/5/7 46/2/7
f 39/14/8 5/15/8 38/16/8 47/5/8
f 47/5/9 38/16/9 37/17/9 50/6/9
f 50/6/10 37/17/10 36/18/10 53/9/10
f 53/9/11 36/18/11 7/19/11 29/20/11
f 52/7/12 53/9/12 29/20/12 28/21/12
f 51/8/13 52/7/13 28/21/13 27/22/13
f 32/23/14 51/8/14 27/22/14 3/24/14
f 31/25/15 48/4/15 51/8/15 32/23/15
f 30/12/16 45/1/16 48/4/16 31/25/16
f 54/26/17 55/27/17 58/28/17 57/29/17
f 55/27/18 56/30/18 59/31/18 58/28/18
f 57/29/19 58/28/19 61/32/19 60/33/19
f 58/28/20 59/31/20 62/34/20 61/32/20
f 4/35/21 23/36/21 54/26/21 35/37/21
f 23/36/22 22/38/22 55/27/22 54/26/22
f 22/38/23 21/39/23 56/30/23 55/27/23
f 21/39/24 3/24/24 27/40/24 56/30/24
f 56/30/25 27/40/25 28/41/25 59/31/25
f 59/31/26 28/41/26 29/42/26 62/34/26
f 62/34/27 29/42/27 7/43/27 20/44/27
f 61/32/28 62/34/28 20/44/28 19/45/28
f 60/33/29 61/32/29 19/45/29 18/46/29
f 33/47/30 60/33/30 18/46/30 8/48/30
f 34/49/31 57/29/31 60/33/31 33/47/31
f 35/37/32 54/26/32 57/29/32 34/49/32
f 63/50/33 64/51/33 67/52/33 66/53/33
f 64/51/34 65/54/34 68/55/34 67/52/34
f 66/53/35 67/52/35 70/56/35 69/57/35
f 67/52/36 68/55/36 71/58/36 70/56/36
f 8/59/37 18/60/37 63/50/37 11/61/37
f 18/60/38 19/62/38 64/51/38 63/50/38
f 19/62/39 20/63/39 65/54/39 64/51/39
f 20/63/40 7/64/40 36/65/40 65/54/40
f 65/54/41 36/65/41 37/66/41 68/55/41
f 68/55/42 37/66/42 38/67/42 71/58/42
f 71/58/43 38/67/43 5/68/43 24/69/43
f 70/56/44 71/58/44 24/69/44 25/70/44
f 69/57/45 70/56/45 25/70/45 26/71/45
f 9/72/46 69/57/46 26/71/46 6/73/46
f 10/74/47 66/53/47 69/57/47 9/72/47
f 11/61/48 63/50/48 66/53/48 10/74/48
f 72/75/49 73/76/49 76/77/49 75/78/49
f 73/76/50 74/79/50 77/80/50 76/77/50
f 75/78/51 76/77/51 79/81/51 78/82/51
f 76/77/52 77/80/52 80/83/52 79/81/52
f 6/84/53 14/85/53 72/75/53 9/86/53
f 14/85/54 13/87/54 73/76/54 72/75/54
f 13/87/55 12/88/55 74/79/55 73/76/55
f 12/88/56 2/89/56 44/90/56 74/79/56
f 74/79/57 44/90/57 43/91/57 77/80/57
f 77/80/58 43/91/58 42/92/58 80/83/58
f 80/83/59 42/92/59 4/35/59 35/93/59
f 79/81/60 80/83/60 35/93/60 34/94/60
f 78/82/61 79/81/61 34/94/61 33/95/61
f 11/96/62 78/82/62 33/95/62 8/97/62
f 10/98/63 75/78/63 78/82/63 11/96/63
f 9/86/64 72/75/64 75/78/64 10/98/64
f 81/99/65 82/100/65 85/101/65 84/102/65
f 82/100/66 83/103/66 86/104/66 85/101/66
f 84/102/67 85/101/67 88/105/67 87/106/67
f 85/101/68 86/104/68 89/107/68 88/105/68
f 2/89/69 17/108/69 81/99/69 44/90/69
f 17/108/70 16/109/70 82/100/70 81/99/70
f 16/109/71 15/110/71 83/103/71 82/100/71
f 15/110/72 1/10/72 30/12/72 83/103/72
f 83/103/73 30/12/73 31/25/73 86/104/73
f 86/104/74 31/25/74 32/23/74 89/107/74
f 89/107/75 32/23/75 3/24/75 21/39/75
f 88/105/76 89/107/76 21/39/76 22/38/76
f 87/106/77 88/105/77 22/38/77 23/36/77
f 42/92/78 87/106/78 23/36/78 4/35/78
f 43/91/79 84/102/79 87/106/79 42/92/79
f 44/90/80 81/99/80 84/102/80 43/91/80
f 90/111/81 91/112/81 94/113/81 93/114/81
f 91/112/82 92/115/82 95/116/82 94/113/82
f 93/114/83 94/113/83 97/117/83 96/118/83
f 94/113/84 95/116/84 98/119/84 97/117/84
f 6/73/85 26/71/85 90/111/85 14/120/85
f 26/71/86 25/70/86 91/112/86 90/111/86
f 25/70/87 24/69/87 92/115/87 91/112/87
f 24/69/88 5/68/88 39/121/88 92/115/88
f 92/115/89 39/121/89 40/122/89 95/116/89
f 95/116/90 40/122/90 41/123/90 98/119/90
f 98/119/91 41/123/91 1/10/91 15/110/91
f 97/117/92 98/119/92 15/110/92 16/109/92
f 96/118/93 97/117/93 16/109/93 17/108/93
f 12/124/94 96/118/94 17/108/94 2/89/94
f 13/125/95 93/114/95 96/118/95 12/124/95
f 14/120/96 90/111/96 93/114/96 13/125/96
