# Blender v2.92.0 OBJ File: ''
# www.blender.org
mtllib rock4.mtl
o Cube
v -0.101222 -0.246651 -1.508803
v -1.931366 -0.605575 -0.299658
v 1.375082 -0.254821 -0.456135
v 0.214335 -0.619573 1.229513
v 0.201843 0.739155 -0.931089
v -1.200072 0.721818 0.029674
v 1.121494 0.971376 -0.259175
v 0.113497 0.811160 0.899464
v -0.044759 0.485025 0.161194
v -0.648409 0.828285 0.572616
v -2.004904 0.111427 -0.067166
v -1.196491 -0.476931 -1.172534
v 0.712647 1.023022 0.350468
v 1.098451 -0.548281 0.478474
v -0.565114 0.800718 -0.530100
v 1.548738 0.461336 -0.436762
v 0.753980 -0.349756 -1.157991
v 0.277385 0.118923 1.480878
v 0.811892 0.968984 -0.713747
v 0.186571 0.331068 -1.509366
v -1.056403 -0.815443 0.693195
v 1.206933 0.405185 -1.247717
v 1.370789 0.340919 0.706975
v 0.081205 1.037437 -0.063360
v -1.253668 0.037907 1.085776
v -0.129639 -0.759265 -0.357239
v -1.198265 0.309003 -1.064728
vt 0.666667 0.458333
vt 0.631944 0.625000
vt 0.751736 0.625000
vt 0.755208 0.494792
vt 0.666667 0.791667
vt 0.755208 0.755208
vt 0.875000 0.750000
vt 0.875000 0.625000
vt 0.875000 0.500000
vt 0.333333 0.791667
vt 0.369792 0.880208
vt 0.500000 0.876736
vt 0.500000 0.756944
vt 0.375000 1.000000
vt 0.500000 1.000000
vt 0.625000 1.000000
vt 0.630208 0.880208
vt 0.375000 0.000000
vt 0.375000 0.125000
vt 0.500000 0.125000
vt 0.500000 0.000000
vt 0.375000 0.250000
vt 0.500000 0.250000
vt 0.625000 0.250000
vt 0.625000 0.125000
vt 0.625000 0.000000
vt 0.125000 0.500000
vt 0.125000 0.625000
vt 0.248264 0.625000
vt 0.244792 0.494792
vt 0.125000 0.750000
vt 0.244792 0.755208
vt 0.368056 0.625000
vt 0.333333 0.458333
vt 0.500000 0.625000
vt 0.500000 0.493056
vt 0.369792 0.369792
vt 0.500000 0.373264
vt 0.630208 0.369792
vn -0.2990 0.2289 0.9264
vn -0.8017 0.3642 0.4739
vn -0.6171 -0.7046 0.3502
vn -0.0486 -0.7603 0.6478
vn -0.6057 0.3373 -0.7206
vn -0.3491 -0.6617 -0.6636
vn -0.6946 -0.6712 -0.2588
vn -0.9464 0.2861 -0.1500
vn 0.1008 -0.9678 -0.2308
vn 0.2419 -0.9694 0.0425
vn 0.1587 -0.9267 0.3406
vn -0.0548 -0.9975 0.0455
vn 0.5715 -0.7017 -0.4254
vn 0.2508 -0.6222 -0.7416
vn 0.2576 0.3809 -0.8880
vn 0.7691 0.3464 -0.5371
vn 0.0892 0.9812 0.1713
vn -0.1286 0.9899 -0.0593
vn -0.3023 0.9366 0.1773
vn -0.0625 0.9124 0.4046
vn 0.4896 -0.8156 0.3084
vn 0.7763 -0.1019 0.6220
vn 0.3103 -0.1390 0.9404
vn 0.1987 -0.8155 0.5436
usemtl Material
s off
f 1/1/1 17/2/1 22/3/1 20/4/1
f 17/2/2 3/5/2 16/6/2 22/3/2
f 22/3/3 16/6/3 7/7/3 19/8/3
f 20/4/4 22/3/4 19/8/4 5/9/4
f 4/10/5 18/11/5 23/12/5 14/13/5
f 18/11/6 8/14/6 13/15/6 23/12/6
f 23/12/7 13/15/7 7/16/7 16/17/7
f 14/13/8 23/12/8 16/17/8 3/5/8
f 8/18/9 10/19/9 24/20/9 13/21/9
f 10/19/10 6/22/10 15/23/10 24/20/10
f 24/20/11 15/23/11 5/24/11 19/25/11
f 13/21/12 24/20/12 19/25/12 7/26/12
f 6/27/13 10/28/13 25/29/13 11/30/13
f 10/28/14 8/31/14 18/32/14 25/29/14
f 25/29/15 18/32/15 4/10/15 21/33/15
f 11/30/16 25/29/16 21/33/16 2/34/16
f 2/34/17 21/33/17 26/35/17 12/36/17
f 21/33/18 4/10/18 14/13/18 26/35/18
f 26/35/19 14/13/19 3/5/19 17/2/19
f 12/36/20 26/35/20 17/2/20 1/1/20
f 6/22/21 11/37/21 27/38/21 15/23/21
f 11/37/22 2/34/22 12/36/22 27/38/22
f 27/38/23 12/36/23 1/1/23 20/39/23
f 15/23/24 27/38/24 20/39/24 5/24/24
