# Blender v2.92.0 OBJ File: ''
# www.blender.org
mtllib rock0.mtl
o Cube
v -0.421507 0.421507 -0.421507
v 0.357290 0.357290 -0.357290
v -0.494640 0.494640 0.494640
v 0.488663 0.488663 0.488663
v -0.497967 -0.497967 -0.497967
v 0.506776 -0.506777 -0.506777
v -0.410130 -0.410130 0.410130
v 0.536369 -0.536369 0.536369
v 0.732038 -0.732038 -0.371513
v 0.732177 -0.732177 -0.000000
v 0.612873 -0.612874 0.315443
v 0.723451 0.367472 -0.723451
v 0.577231 -0.000000 -0.577231
v 0.641976 -0.329137 -0.641976
v -0.340443 0.666006 -0.666005
v 0.000000 0.851460 -0.851460
v 0.267253 0.510455 -0.510455
v 0.276221 -0.529516 0.529516
v -0.000000 -0.570259 0.570259
v -0.308851 -0.598864 0.598864
v -0.294448 0.568252 0.568252
v 0.000000 0.671654 0.671654
v 0.362345 0.712554 0.712554
v -0.335467 -0.655430 -0.655430
v -0.000000 -0.575990 -0.575990
v 0.331051 -0.646046 -0.646046
v -0.610841 0.314487 0.610841
v -0.470561 0.000000 0.470561
v -0.662477 -0.338783 0.662477
v -0.511229 0.511229 -0.267617
v -0.674900 0.674900 0.000000
v -0.709947 0.709947 0.361118
v 0.572290 -0.296348 0.572290
v 0.697605 -0.000000 0.697605
v 0.637733 0.327140 0.637733
v -0.475231 -0.475231 0.250679
v -0.436269 -0.436269 -0.000000
v -0.762331 -0.762331 -0.385766
v -0.575972 -0.298080 -0.575972
v -0.960767 0.000000 -0.960767
v -0.542048 0.282118 -0.542048
v 0.713046 0.713046 0.362576
v 0.576184 0.576183 0.000000
v 0.548375 0.548375 -0.285095
v -0.587027 0.261905 -0.261905
v -0.639635 0.000000 -0.278969
v -0.831725 -0.355418 -0.355418
v -0.758375 0.324205 0.000000
v -0.837075 0.000000 -0.000000
v -0.548161 -0.244120 -0.000000
v -0.898234 0.380835 0.380835
v -0.885059 0.000000 0.372468
v -0.582037 -0.259998 0.259998
v 0.385625 0.385625 0.910769
v 0.000000 0.297015 0.687006
v -0.219114 0.219114 0.475054
v 0.312532 -0.000000 0.727735
v -0.000000 0.000000 1.177198
v -0.362343 0.000000 0.858480
v 0.271545 -0.271546 0.612253
v -0.000000 -0.232836 0.518543
v -0.373173 -0.373173 0.878186
v 0.390845 -0.924428 0.390845
v -0.000000 -0.876821 0.369330
v -0.383951 -0.906388 0.383950
v 0.398005 -0.952090 -0.000000
v -0.000000 -0.687679 -0.000000
v -0.365384 -0.866464 0.000000
v 0.300748 -0.688667 -0.300748
v -0.000000 -1.014330 -0.421717
v -0.280449 -0.635552 -0.280449
v 0.633797 -0.279779 -0.279779
v 1.059161 -0.000000 -0.438797
v 0.715378 0.310955 -0.310955
v 0.757449 -0.323853 0.000000
v 0.869639 -0.000000 0.000000
v 0.651621 0.283535 -0.000000
v 0.902505 -0.382467 0.382467
v 0.798291 -0.000000 0.339412
v 0.891058 0.378092 0.378092
v 0.295709 0.675483 -0.295709
v 0.000000 0.698218 -0.301287
v -0.349944 0.817401 -0.349944
v 0.291516 0.672571 0.000000
v 0.000000 0.793034 -0.000000
v -0.431057 1.038845 -0.000000
v 0.290191 0.661044 0.290191
v 0.000000 1.002084 0.417052
v -0.331694 0.769647 0.331694
v 0.353081 -0.353081 -0.825610
v -0.000000 -0.379364 -0.903160
v -0.328989 -0.328989 -0.762568
v 0.286069 -0.000000 -0.658273
v -0.000000 0.000000 -0.811313
v -0.467159 0.000000 -1.133608
v 0.344959 0.344959 -0.804357
v 0.000000 0.279829 -0.641894
v -0.290432 0.290432 -0.661673
vt 0.696045 0.554579
vt 0.752821 0.559896
vt 0.751736 0.625000
vt 0.692491 0.625000
vt 0.812853 0.562174
vt 0.812717 0.625000
vt 0.752821 0.690104
vt 0.696045 0.695421
vt 0.812853 0.687826
vt 0.666667 0.458333
vt 0.705078 0.482422
vt 0.637912 0.550456
vt 0.755208 0.494792
vt 0.813151 0.499349
vt 0.875000 0.500000
vt 0.875000 0.562500
vt 0.875000 0.625000
vt 0.875000 0.687500
vt 0.875000 0.750000
vt 0.813151 0.750651
vt 0.755208 0.755208
vt 0.705078 0.767578
vt 0.637912 0.699544
vt 0.666667 0.791667
vt 0.631945 0.625000
vt 0.429579 0.821045
vt 0.500000 0.817491
vt 0.500000 0.876736
vt 0.434896 0.877821
vt 0.570421 0.821045
vt 0.565104 0.877821
vt 0.500000 0.937717
vt 0.437174 0.937853
vt 0.562826 0.937853
vt 0.333333 0.791667
vt 0.425456 0.762912
vt 0.357422 0.830078
vt 0.500000 0.756944
vt 0.574544 0.762912
vt 0.642578 0.830078
vt 0.630208 0.880208
vt 0.625651 0.938151
vt 0.625000 1.000000
vt 0.562500 1.000000
vt 0.500000 1.000000
vt 0.437500 1.000000
vt 0.374349 0.938151
vt 0.375000 1.000000
vt 0.369792 0.880208
vt 0.437500 0.062500
vt 0.500000 0.062500
vt 0.500000 0.125000
vt 0.437500 0.125000
vt 0.562500 0.062500
vt 0.562500 0.125000
vt 0.500000 0.187500
vt 0.437500 0.187500
vt 0.562500 0.187500
vt 0.375000 0.000000
vt 0.437500 0.000000
vt 0.375000 0.062500
vt 0.500000 0.000000
vt 0.562500 0.000000
vt 0.625000 0.000000
vt 0.625000 0.062500
vt 0.625000 0.125000
vt 0.625000 0.187500
vt 0.625000 0.250000
vt 0.562500 0.250000
vt 0.500000 0.250000
vt 0.437500 0.250000
vt 0.375000 0.187500
vt 0.375000 0.250000
vt 0.375000 0.125000
vt 0.187147 0.562174
vt 0.247179 0.559896
vt 0.248264 0.625000
vt 0.187283 0.625000
vt 0.303955 0.554579
vt 0.307509 0.625000
vt 0.247179 0.690104
vt 0.187147 0.687826
vt 0.303955 0.695421
vt 0.125000 0.500000
vt 0.186849 0.499349
vt 0.125000 0.562500
vt 0.244792 0.494792
vt 0.294922 0.482422
vt 0.333333 0.458333
vt 0.362088 0.550456
vt 0.368056 0.625000
vt 0.362088 0.699544
vt 0.294922 0.767578
vt 0.244792 0.755208
vt 0.186849 0.750651
vt 0.125000 0.687500
vt 0.125000 0.750000
vt 0.125000 0.625000
vt 0.429742 0.554742
vt 0.500000 0.557726
vt 0.500000 0.625000
vt 0.432726 0.625000
vt 0.570258 0.554742
vt 0.567274 0.625000
vt 0.500000 0.692274
vt 0.429742 0.695258
vt 0.570258 0.695258
vt 0.425456 0.487088
vt 0.500000 0.493056
vt 0.574544 0.487088
vt 0.437174 0.312147
vt 0.500000 0.312283
vt 0.500000 0.373264
vt 0.434896 0.372179
vt 0.562826 0.312147
vt 0.565104 0.372179
vt 0.500000 0.432509
vt 0.429579 0.428955
vt 0.570421 0.428955
vt 0.374349 0.311849
vt 0.625651 0.311849
vt 0.630208 0.369792
vt 0.642578 0.419922
vt 0.357422 0.419922
vt 0.369792 0.369792
vn -0.7996 0.1957 -0.5677
vn -0.9705 -0.1775 0.1629
vn -0.9645 0.0926 -0.2475
vn -0.6562 -0.7474 -0.1037
vn -0.8004 0.5014 -0.3287
vn -0.8215 0.5141 0.2466
vn -0.9644 -0.2592 0.0534
vn -0.4498 -0.1780 -0.8752
vn -0.6756 -0.2398 0.6972
vn -0.8693 -0.4627 -0.1737
vn -0.6393 -0.7681 -0.0362
vn -0.8349 -0.0827 0.5442
vn -0.4282 -0.2783 0.8598
vn -0.3557 0.4336 0.8279
vn -0.9002 0.3525 -0.2558
vn -0.7860 0.2031 -0.5839
vn 0.2413 0.3766 0.8944
vn -0.4647 0.7936 0.3927
vn 0.2610 -0.8151 0.5172
vn 0.1742 -0.7159 0.6761
vn 0.7993 0.5091 0.3194
vn -0.3618 0.2605 0.8951
vn -0.4807 -0.1431 0.8651
vn 0.1057 0.0350 0.9938
vn -0.3545 0.3893 0.8502
vn -0.7647 0.3738 0.5249
vn -0.5761 -0.8100 0.1094
vn 0.5258 -0.2664 0.8078
vn -0.0959 -0.0525 0.9940
vn 0.0441 -0.2342 0.9712
vn 0.0782 -0.4085 0.9094
vn 0.4117 -0.1626 0.8967
vn -0.3559 -0.9134 -0.1974
vn 0.2525 -0.9275 -0.2758
vn 0.0738 -0.9943 0.0771
vn -0.2750 -0.9565 0.0972
vn 0.3976 -0.4491 0.8001
vn 0.0215 -0.4328 0.9012
vn 0.0986 -0.5662 0.8183
vn -0.9095 -0.0696 0.4099
vn -0.9731 -0.2007 -0.1132
vn -0.5023 -0.8118 0.2978
vn -0.0801 -0.8767 -0.4744
vn -0.4114 -0.7353 -0.5386
vn 0.3309 -0.6898 -0.6440
vn 0.1904 -0.8226 -0.5358
vn 0.1742 -0.9079 -0.3812
vn 0.6848 -0.6792 0.2640
vn 0.7502 -0.6606 0.0282
vn 0.7282 0.6303 0.2691
vn 0.9945 -0.0175 -0.1030
vn 0.9491 0.1942 -0.2479
vn 0.9025 -0.0821 -0.4229
vn 0.6602 -0.4804 -0.5774
vn 0.7526 0.2022 -0.6266
vn 0.1622 0.9333 -0.3204
vn 0.9090 0.4131 0.0546
vn 0.8040 0.3122 -0.5060
vn 0.3542 0.4961 0.7927
vn 0.8683 -0.0256 0.4954
vn 0.7745 -0.0998 0.6247
vn 0.5060 -0.5034 0.7004
vn 0.8967 -0.4426 0.0054
vn 0.9785 0.1021 -0.1791
vn 0.2357 0.9608 -0.1462
vn 0.4138 0.8381 -0.3555
vn 0.5767 0.7871 -0.2187
vn 0.0086 0.9968 0.0789
vn 0.5820 0.2616 -0.7700
vn 0.5569 0.8299 -0.0335
vn -0.0953 0.9954 0.0011
vn -0.9243 0.2231 -0.3096
vn -0.7490 0.3867 -0.5380
vn -0.5238 0.7911 0.3160
vn -0.1946 0.5828 0.7890
vn -0.5014 0.5678 0.6529
vn 0.4309 0.8496 0.3041
vn 0.3691 0.8521 0.3710
vn 0.0821 0.9755 -0.2043
vn 0.3844 0.9215 -0.0551
vn 0.3064 0.3423 -0.8882
vn 0.1905 -0.3276 -0.9254
vn -0.0190 0.0391 -0.9991
vn 0.3153 0.6644 -0.6776
vn 0.5934 -0.5750 -0.5632
vn -0.0383 -0.7178 -0.6952
vn -0.0429 -0.6379 -0.7689
vn -0.6915 -0.3215 -0.6469
vn -0.2744 -0.8248 -0.4944
vn -0.1833 0.8781 -0.4420
vn -0.7933 0.2354 -0.5614
vn -0.1884 -0.2258 -0.9558
vn 0.3355 0.1419 -0.9313
vn 0.2843 0.9581 -0.0343
vn 0.2263 -0.4248 -0.8766
vn 0.3744 0.3626 -0.8534
usemtl Material
s off
f 45/1/1 46/2/1 49/3/1 48/4/1
f 46/2/2 47/5/2 50/6/2 49/3/2
f 48/4/3 49/3/3 52/7/3 51/8/3
f 49/3/4 50/6/4 53/9/4 52/7/4
f 1/10/5 41/11/5 45/1/5 30/12/5
f 41/11/6 40/13/6 46/2/6 45/1/6
f 40/13/7 39/14/7 47/5/7 46/2/7
f 39/14/8 5/15/8 38/16/8 47/5/8
f 47/5/9 38/16/9 37/17/9 50/6/9
f 50/6/10 37/17/10 36/18/10 53/9/10
f 53/9/11 36/18/11 7/19/11 29/20/11
f 52/7/12 53/9/12 29/20/12 28/21/12
f 51/8/13 52/7/13 28/21/13 27/22/13
f 32/23/14 51/8/14 27/22/14 3/24/14
f 31/25/15 48/4/15 51/8/15 32/23/15
f 30/12/16 45/1/16 48/4/16 31/25/16
f 54/26/17 55/27/17 58/28/17 57/29/17
f 55/27/18 56/30/18 59/31/18 58/28/18
f 57/29/19 58/28/19 61/32/19 60/33/19
f 58/28/20 59/31/20 62/34/20 61/32/20
f 4/35/21 23/36/21 54/26/21 35/37/21
f 23/36/22 22/38/22 55/27/22 54/26/22
f 22/38/23 21/39/23 56/30/23 55/27/23
f 21/39/24 3/24/24 27/40/24 56/30/24
f 56/30/25 27/40/25 28/41/25 59/31/25
f 59/31/26 28/41/26 29/42/26 62/34/26
f 62/34/27 29/42/27 7/43/27 20/44/27
f 61/32/28 62/34/28 20/44/28 19/45/28
f 60/33/29 61/32/29 19/45/29 18/46/29
f 33/47/30 60/33/30 18/46/30 8/48/30
f 34/49/31 57/29/31 60/33/31 33/47/31
f 35/37/32 54/26/32 57/29/32 34/49/32
f 63/50/33 64/51/33 67/52/33 66/53/33
f 64/51/34 65/54/34 68/55/34 67/52/34
f 66/53/35 67/52/35 70/56/35 69/57/35
f 67/52/36 68/55/36 71/58/36 70/56/36
f 8/59/37 18/60/37 63/50/37 11/61/37
f 18/60/38 19/62/38 64/51/38 63/50/38
f 19/62/39 20/63/39 65/54/39 64/51/39
f 20/63/40 7/64/40 36/65/40 65/54/40
f 65/54/41 36/65/41 37/66/41 68/55/41
f 68/55/42 37/66/42 38/67/42 71/58/42
f 71/58/43 38/67/43 5/68/43 24/69/43
f 70/56/44 71/58/44 24/69/44 25/70/44
f 69/57/45 70/56/45 25/70/45 26/71/45
f 9/72/46 69/57/46 26/71/46 6/73/46
f 10/74/47 66/53/47 69/57/47 9/72/47
f 11/61/48 63/50/48 66/53/48 10/74/48
f 72/75/49 73/76/49 76/77/49 75/78/49
f 73/76/50 74/79/50 77/80/50 76/77/50
f 75/78/51 76/77/51 79/81/51 78/82/51
f 76/77/52 77/80/52 80/83/52 79/81/52
f 6/84/53 14/85/53 72/75/53 9/86/53
f 14/85/54 13/87/54 73/76/54 72/75/54
f 13/87/55 12/88/55 74/79/55 73/76/55
f 12/88/56 2/89/56 44/90/56 74/79/56
f 74/79/57 44/90/57 43/91/57 77/80/57
f 77/80/58 43/91/58 42/92/58 80/83/58
f 80/83/59 42/92/59 4/35/59 35/93/59
f 79/81/60 80/83/60 35/93/60 34/94/60
f 78/82/61 79/81/61 34/94/61 33/95/61
f 11/96/62 78/82/62 33/95/62 8/97/62
f 10/98/63 75/78/63 78/82/63 11/96/63
f 9/86/64 72/75/64 75/78/64 10/98/64
f 81/99/65 82/100/65 85/101/65 84/102/65
f 82/100/66 83/103/66 86/104/66 85/101/66
f 84/102/67 85/101/67 88/105/67 87/106/67
f 85/101/68 86/104/68 89/107/68 88/105/68
f 2/89/69 17/108/69 81/99/69 44/90/69
f 17/108/70 16/109/70 82/100/70 81/99/70
f 16/109/71 15/110/71 83/103/71 82/100/71
f 15/110/72 1/10/72 30/12/72 83/103/72
f 83/103/73 30/12/73 31/25/73 86/104/73
f 86/104/74 31/25/74 32/23/74 89/107/74
f 89/107/75 32/23/75 3/24/75 21/39/75
f 88/105/76 89/107/76 21/39/76 22/38/76
f 87/106/77 88/105/77 22/38/77 23/36/77
f 42/92/78 87/106/78 23/36/78 4/35/78
f 43/91/79 84/102/79 87/106/79 42/92/79
f 44/90/80 81/99/80 84/102/80 43/91/80
f 90/111/81 91/112/81 94/113/81 93/114/81
f 91/112/82 92/115/82 95/116/82 94/113/82
f 93/114/83 94/113/83 97/117/83 96/118/83
f 94/113/84 95/116/84 98/119/84 97/117/84
f 6/73/85 26/71/85 90/111/85 14/120/85
f 26/71/86 25/70/86 91/112/86 90/111/86
f 25/70/87 24/69/87 92/115/87 91/112/87
f 24/69/88 5/68/88 39/121/88 92/115/88
f 92/115/89 39/121/89 40/122/89 95/116/89
f 95/116/90 40/122/90 41/123/90 98/119/90
f 98/119/91 41/123/91 1/10/91 15/110/91
f 97/117/92 98/119/92 15/110/92 16/109/92
f 96/118/93 97/117/93 16/109/93 17/108/93
f 12/124/94 96/118/94 17/108/94 2/89/94
f 13/125/95 93/114/95 96/118/95 12/124/95
f 14/120/96 90/111/96 93/114/96 13/125/96
