# Blender v2.92.0 OBJ File: 'bigsharprock.blend'
# www.blender.org
mtllib sharprock4obj.mtl
o Cube
v 1.240263 2.240263 -1.240263
v 1.176821 -0.176821 -1.176821
v 0.920905 1.920905 0.920905
v 1.444006 -0.444006 1.444006
v -1.173784 2.173784 -1.173784
v -1.449392 -0.449392 -1.449392
v -1.567136 2.567136 1.567136
v -1.521930 -0.521930 1.521930
v -2.081310 -1.081310 -0.000000
v 0.000000 -0.664278 -1.664278
v 1.478595 1.000000 -1.478595
v -1.239421 1.000000 1.239421
v 0.974620 1.000000 0.974620
v -1.679135 1.000000 -1.679135
v -0.000000 1.949054 0.949054
v 1.379116 2.379116 0.000000
v -0.000000 -0.611138 1.611138
v -0.973530 1.973530 -0.000000
v 0.000000 3.095080 -2.095080
v 0.981857 0.018143 0.000000
v -0.000000 2.564099 -0.000000
v 0.000000 1.000000 1.132814
v -1.807884 1.000000 -0.000000
v 0.000000 -0.443135 0.000000
v 2.489565 1.000000 -0.000000
v 0.000000 1.000000 -2.611850
vt 0.666667 0.458333
vt 0.755208 0.494792
vt 0.751736 0.625000
vt 0.631945 0.625000
vt 0.875000 0.500000
vt 0.875000 0.625000
vt 0.875000 0.750000
vt 0.755208 0.755208
vt 0.666667 0.791667
vt 0.333333 0.791667
vt 0.500000 0.756944
vt 0.500000 0.876736
vt 0.369792 0.880208
vt 0.630208 0.880208
vt 0.625000 1.000000
vt 0.500000 1.000000
vt 0.375000 1.000000
vt 0.375000 0.000000
vt 0.500000 0.000000
vt 0.500000 0.125000
vt 0.375000 0.125000
vt 0.625000 0.000000
vt 0.625000 0.125000
vt 0.625000 0.250000
vt 0.500000 0.250000
vt 0.375000 0.250000
vt 0.125000 0.500000
vt 0.244792 0.494792
vt 0.248264 0.625000
vt 0.125000 0.625000
vt 0.333333 0.458333
vt 0.368056 0.625000
vt 0.244792 0.755208
vt 0.125000 0.750000
vt 0.500000 0.493056
vt 0.500000 0.625000
vt 0.500000 0.373264
vt 0.369792 0.369792
vt 0.630208 0.369792
vn 0.3401 0.9355 0.0958
vn -0.4975 0.8396 0.2183
vn 0.0137 0.9998 0.0117
vn 0.0855 0.8549 0.5116
vn 0.1057 0.3094 0.9450
vn 0.0989 0.1282 0.9868
vn 0.2451 -0.0235 0.9692
vn 0.0137 0.2348 0.9719
vn -0.9239 0.1694 0.3430
vn -0.9781 0.2017 -0.0514
vn -0.8531 0.5186 0.0578
vn -0.9715 -0.0034 -0.2369
vn 0.1119 -0.9879 -0.1076
vn 0.3668 -0.9165 0.1594
vn 0.2292 -0.9459 -0.2298
vn 0.1476 -0.9843 0.0966
vn 0.7413 -0.6466 -0.1803
vn 0.8130 0.4520 -0.3669
vn 0.6139 0.3275 0.7182
vn 0.8901 -0.3178 0.3267
vn -0.3434 -0.3542 -0.8698
vn -0.5868 0.3229 -0.7425
vn 0.6196 0.2152 -0.7548
vn 0.5310 -0.3877 -0.7534
usemtl Material
s off
f 1/1/1 19/2/1 21/3/1 16/4/1
f 19/2/2 5/5/2 18/6/2 21/3/2
f 21/3/3 18/6/3 7/7/3 15/8/3
f 16/4/4 21/3/4 15/8/4 3/9/4
f 4/10/5 13/11/5 22/12/5 17/13/5
f 13/11/6 3/9/6 15/14/6 22/12/6
f 22/12/7 15/14/7 7/15/7 12/16/7
f 17/13/8 22/12/8 12/16/8 8/17/8
f 8/18/9 12/19/9 23/20/9 9/21/9
f 12/19/10 7/22/10 18/23/10 23/20/10
f 23/20/11 18/23/11 5/24/11 14/25/11
f 9/21/12 23/20/12 14/25/12 6/26/12
f 6/27/13 10/28/13 24/29/13 9/30/13
f 10/28/14 2/31/14 20/32/14 24/29/14
f 24/29/15 20/32/15 4/10/15 17/33/15
f 9/30/16 24/29/16 17/33/16 8/34/16
f 2/31/17 11/35/17 25/36/17 20/32/17
f 11/35/18 1/1/18 16/4/18 25/36/18
f 25/36/19 16/4/19 3/9/19 13/11/19
f 20/32/20 25/36/20 13/11/20 4/10/20
f 6/26/21 14/25/21 26/37/21 10/38/21
f 14/25/22 5/24/22 19/39/22 26/37/22
f 26/37/23 19/39/23 1/1/23 11/35/23
f 10/38/24 26/37/24 11/35/24 2/31/24
