# Blender v2.92.0 OBJ File: 'bigsharprock.blend'
# www.blender.org
mtllib sharprock3obj.mtl
o Cube
v 1.495286 2.495286 -1.495286
v 1.258290 -0.258290 -1.258290
v 1.159380 2.159380 1.159380
v 1.751936 -0.751936 1.751936
v -1.571844 2.571844 -1.571844
v -1.559393 -0.559393 -1.559393
v -1.751936 2.751936 1.751936
v -1.740614 -0.740614 1.740614
v -2.142822 -1.142822 -0.000000
v 0.000000 -0.898799 -1.898799
v 1.940779 1.000000 -1.940779
v -1.070766 1.000000 1.070766
v 0.901859 1.000000 0.901859
v -1.663008 1.000000 -1.663008
v -0.000000 1.746373 0.746373
v 1.760619 2.760619 0.000000
v -0.000000 -1.019064 2.019064
v -0.852452 1.852452 -0.000000
v 0.000000 3.142822 -2.142822
v 1.444269 -0.444269 0.000000
v -0.000000 2.214275 -0.000000
v 0.000000 1.000000 1.818898
v -2.123003 1.000000 -0.000000
v 0.000000 -0.523429 0.000000
v 2.768411 1.000000 -0.000000
v 0.000000 1.000000 -3.007927
vt 0.666667 0.458333
vt 0.755208 0.494792
vt 0.751736 0.625000
vt 0.631945 0.625000
vt 0.875000 0.500000
vt 0.875000 0.625000
vt 0.875000 0.750000
vt 0.755208 0.755208
vt 0.666667 0.791667
vt 0.333333 0.791667
vt 0.500000 0.756944
vt 0.500000 0.876736
vt 0.369792 0.880208
vt 0.630208 0.880208
vt 0.625000 1.000000
vt 0.500000 1.000000
vt 0.375000 1.000000
vt 0.375000 0.000000
vt 0.500000 0.000000
vt 0.500000 0.125000
vt 0.375000 0.125000
vt 0.625000 0.000000
vt 0.625000 0.125000
vt 0.625000 0.250000
vt 0.500000 0.250000
vt 0.375000 0.250000
vt 0.125000 0.500000
vt 0.244792 0.494792
vt 0.248264 0.625000
vt 0.125000 0.625000
vt 0.333333 0.458333
vt 0.368056 0.625000
vt 0.244792 0.755208
vt 0.125000 0.750000
vt 0.500000 0.493056
vt 0.500000 0.625000
vt 0.500000 0.373264
vt 0.369792 0.369792
vt 0.630208 0.369792
vn -0.0052 0.9837 0.1797
vn -0.2335 0.8712 0.4317
vn 0.2042 0.9743 -0.0948
vn -0.3368 0.8625 0.3776
vn 0.3580 0.3245 0.8755
vn 0.1496 0.3716 0.9163
vn 0.1576 0.1946 0.9681
vn -0.3073 0.2662 0.9136
vn -0.8776 0.2285 0.4213
vn -0.9741 0.2254 -0.0191
vn -0.8612 0.4771 0.1752
vn -0.9493 -0.0302 -0.3129
vn 0.0710 -0.9963 -0.0480
vn 0.2474 -0.9679 0.0435
vn 0.0875 -0.9728 -0.2144
vn 0.0899 -0.9954 -0.0343
vn 0.7392 -0.6170 -0.2701
vn 0.8537 0.4227 -0.3042
vn 0.6250 0.0922 0.7752
vn 0.8619 0.0070 0.5071
vn -0.4662 -0.3052 -0.8304
vn -0.5256 0.2242 -0.8207
vn 0.4703 0.3495 -0.8104
vn 0.4825 -0.5089 -0.7129
usemtl Material
s off
f 1/1/1 19/2/1 21/3/1 16/4/1
f 19/2/2 5/5/2 18/6/2 21/3/2
f 21/3/3 18/6/3 7/7/3 15/8/3
f 16/4/4 21/3/4 15/8/4 3/9/4
f 4/10/5 13/11/5 22/12/5 17/13/5
f 13/11/6 3/9/6 15/14/6 22/12/6
f 22/12/7 15/14/7 7/15/7 12/16/7
f 17/13/8 22/12/8 12/16/8 8/17/8
f 8/18/9 12/19/9 23/20/9 9/21/9
f 12/19/10 7/22/10 18/23/10 23/20/10
f 23/20/11 18/23/11 5/24/11 14/25/11
f 9/21/12 23/20/12 14/25/12 6/26/12
f 6/27/13 10/28/13 24/29/13 9/30/13
f 10/28/14 2/31/14 20/32/14 24/29/14
f 24/29/15 20/32/15 4/10/15 17/33/15
f 9/30/16 24/29/16 17/33/16 8/34/16
f 2/31/17 11/35/17 25/36/17 20/32/17
f 11/35/18 1/1/18 16/4/18 25/36/18
f 25/36/19 16/4/19 3/9/19 13/11/19
f 20/32/20 25/36/20 13/11/20 4/10/20
f 6/26/21 14/25/21 26/37/21 10/38/21
f 14/25/22 5/24/22 19/39/22 26/37/22
f 26/37/23 19/39/23 1/1/23 11/35/23
f 10/38/24 26/37/24 11/35/24 2/31/24
