# Blender v2.92.0 OBJ File: 'bigsharprock.blend'
# www.blender.org
mtllib sharprock5obj.mtl
o Cube
v 0.671114 1.671114 -0.671114
v 0.731077 0.268923 -0.731077
v 1.061709 2.061709 1.061709
v 0.867774 0.132227 0.867774
v -0.615648 1.615648 -0.615648
v -0.634161 0.365839 -0.634161
v -0.729662 1.729662 0.729662
v -0.772174 0.227826 0.772174
v -0.909581 0.090419 -0.000000
v 0.000000 0.000862 -0.999138
v 1.135651 1.000000 -1.135651
v -0.869995 1.000000 0.869995
v 1.020499 1.000000 1.020499
v -1.233345 1.000000 -1.233345
v -0.000000 1.819473 0.819473
v 0.902737 1.902737 0.000000
v -0.000000 0.025126 0.974874
v -0.887621 1.887621 -0.000000
v 0.000000 2.378407 -1.378407
v 0.886687 0.113313 0.000000
v -0.000000 2.302645 -0.000000
v 0.000000 1.000000 1.759979
v -0.939924 1.000000 -0.000000
v 0.000000 -0.580751 0.000000
v 1.257330 1.000000 -0.000000
v 0.000000 1.000000 -0.983987
vt 0.666667 0.458333
vt 0.755208 0.494792
vt 0.751736 0.625000
vt 0.631945 0.625000
vt 0.875000 0.500000
vt 0.875000 0.625000
vt 0.875000 0.750000
vt 0.755208 0.755208
vt 0.666667 0.791667
vt 0.333333 0.791667
vt 0.500000 0.756944
vt 0.500000 0.876736
vt 0.369792 0.880208
vt 0.630208 0.880208
vt 0.625000 1.000000
vt 0.500000 1.000000
vt 0.375000 1.000000
vt 0.375000 0.000000
vt 0.500000 0.000000
vt 0.500000 0.125000
vt 0.375000 0.125000
vt 0.625000 0.000000
vt 0.625000 0.125000
vt 0.625000 0.250000
vt 0.500000 0.250000
vt 0.375000 0.250000
vt 0.125000 0.500000
vt 0.244792 0.494792
vt 0.248264 0.625000
vt 0.125000 0.625000
vt 0.333333 0.458333
vt 0.368056 0.625000
vt 0.244792 0.755208
vt 0.125000 0.750000
vt 0.500000 0.493056
vt 0.500000 0.625000
vt 0.500000 0.373264
vt 0.369792 0.369792
vt 0.630208 0.369792
vn 0.6086 0.7831 -0.1283
vn -0.6582 0.7352 -0.1621
vn -0.2940 0.8722 0.3909
vn 0.0587 0.9846 0.1647
vn 0.3875 -0.4435 0.8082
vn 0.1637 0.4226 0.8914
vn -0.4629 0.5350 0.7067
vn -0.5409 -0.4033 0.7381
vn -0.9878 -0.0829 0.1317
vn -0.9797 0.1299 0.1524
vn -0.9040 0.4243 -0.0519
vn -0.9180 -0.3935 -0.0492
vn -0.5679 -0.6856 -0.4555
vn 0.5190 -0.7685 -0.3741
vn 0.4116 -0.8618 0.2964
vn -0.4624 -0.8022 0.3777
vn 0.8720 -0.4598 -0.1679
vn 0.8347 0.5016 -0.2275
vn 0.9873 0.1570 0.0249
vn 0.9468 -0.2939 0.1312
vn -0.1303 -0.3759 -0.9175
vn -0.3405 0.2081 -0.9169
vn 0.3303 0.1069 -0.9378
vn 0.0947 -0.2396 -0.9662
usemtl Material
s off
f 1/1/1 19/2/1 21/3/1 16/4/1
f 19/2/2 5/5/2 18/6/2 21/3/2
f 21/3/3 18/6/3 7/7/3 15/8/3
f 16/4/4 21/3/4 15/8/4 3/9/4
f 4/10/5 13/11/5 22/12/5 17/13/5
f 13/11/6 3/9/6 15/14/6 22/12/6
f 22/12/7 15/14/7 7/15/7 12/16/7
f 17/13/8 22/12/8 12/16/8 8/17/8
f 8/18/9 12/19/9 23/20/9 9/21/9
f 12/19/10 7/22/10 18/23/10 23/20/10
f 23/20/11 18/23/11 5/24/11 14/25/11
f 9/21/12 23/20/12 14/25/12 6/26/12
f 6/27/13 10/28/13 24/29/13 9/30/13
f 10/28/14 2/31/14 20/32/14 24/29/14
f 24/29/15 20/32/15 4/10/15 17/33/15
f 9/30/16 24/29/16 17/33/16 8/34/16
f 2/31/17 11/35/17 25/36/17 20/32/17
f 11/35/18 1/1/18 16/4/18 25/36/18
f 25/36/19 16/4/19 3/9/19 13/11/19
f 20/32/20 25/36/20 13/11/20 4/10/20
f 6/26/21 14/25/21 26/37/21 10/38/21
f 14/25/22 5/24/22 19/39/22 26/37/22
f 26/37/23 19/39/23 1/1/23 11/35/23
f 10/38/24 26/37/24 11/35/24 2/31/24
