# Blender v2.92.0 OBJ File: 'bigsharprock.blend'
# www.blender.org
mtllib sharprock2obj.mtl
o Cube
v 0.683511 1.183511 -0.683511
v 0.687553 -0.187553 -0.687553
v 0.591238 1.091238 0.591238
v 0.722899 -0.222899 0.722899
v -0.529516 1.029516 -0.529516
v -0.656682 -0.156682 -0.656682
v -0.676517 1.176517 0.676517
v -0.760406 -0.260406 0.760406
v -1.181950 -0.681950 -0.000000
v 0.000000 -0.163584 -0.663584
v 0.694101 0.500000 -0.694101
v -0.679311 0.500000 0.679311
v 0.453777 0.500000 0.453777
v -0.765994 0.500000 -0.765994
v -0.000000 0.962458 0.462458
v 0.570562 1.070562 0.000000
v -0.000000 -0.297554 0.797554
v -0.325248 0.825248 -0.000000
v 0.000000 1.608177 -1.108177
v 0.639593 -0.139593 0.000000
v -0.000000 1.046387 -0.000000
v 0.000000 0.500000 0.647802
v -0.816651 0.500000 -0.000000
v 0.000000 -0.532779 0.000000
v 1.427179 0.500000 -0.000000
v 0.000000 0.500000 -1.550578
vt 0.666667 0.458333
vt 0.755208 0.494792
vt 0.751736 0.625000
vt 0.631945 0.625000
vt 0.875000 0.500000
vt 0.875000 0.625000
vt 0.875000 0.750000
vt 0.755208 0.755208
vt 0.666667 0.791667
vt 0.333333 0.791667
vt 0.500000 0.756944
vt 0.500000 0.876736
vt 0.369792 0.880208
vt 0.630208 0.880208
vt 0.625000 1.000000
vt 0.500000 1.000000
vt 0.375000 1.000000
vt 0.375000 0.000000
vt 0.500000 0.000000
vt 0.500000 0.125000
vt 0.375000 0.125000
vt 0.625000 0.000000
vt 0.625000 0.125000
vt 0.625000 0.250000
vt 0.500000 0.250000
vt 0.375000 0.250000
vt 0.125000 0.500000
vt 0.244792 0.494792
vt 0.248264 0.625000
vt 0.125000 0.625000
vt 0.333333 0.458333
vt 0.368056 0.625000
vt 0.244792 0.755208
vt 0.125000 0.750000
vt 0.500000 0.493056
vt 0.500000 0.625000
vt 0.500000 0.373264
vt 0.369792 0.369792
vt 0.630208 0.369792
vn 0.1725 0.9182 0.3567
vn -0.4490 0.7866 0.4239
vn -0.0593 0.9676 -0.2454
vn -0.1370 0.9886 0.0620
vn 0.1952 0.2925 0.9361
vn 0.0576 0.0378 0.9976
vn 0.2002 0.1592 0.9667
vn -0.0001 0.1466 0.9892
vn -0.9286 0.2257 0.2944
vn -0.8691 0.4280 -0.2480
vn -0.7729 0.6063 0.1872
vn -0.9348 0.1101 -0.3378
vn 0.0628 -0.8377 -0.5425
vn 0.2582 -0.9419 -0.2148
vn 0.3275 -0.9418 0.0762
vn 0.0461 -0.9249 0.3774
vn 0.7939 -0.4769 -0.3771
vn 0.7815 0.5430 -0.3073
vn 0.6942 0.3556 0.6258
vn 0.7900 -0.1852 0.5845
vn -0.4006 -0.5728 -0.7151
vn -0.7493 0.3430 -0.5665
vn 0.6990 0.1792 -0.6923
vn 0.4417 -0.4964 -0.7473
usemtl Material
s off
f 1/1/1 19/2/1 21/3/1 16/4/1
f 19/2/2 5/5/2 18/6/2 21/3/2
f 21/3/3 18/6/3 7/7/3 15/8/3
f 16/4/4 21/3/4 15/8/4 3/9/4
f 4/10/5 13/11/5 22/12/5 17/13/5
f 13/11/6 3/9/6 15/14/6 22/12/6
f 22/12/7 15/14/7 7/15/7 12/16/7
f 17/13/8 22/12/8 12/16/8 8/17/8
f 8/18/9 12/19/9 23/20/9 9/21/9
f 12/19/10 7/22/10 18/23/10 23/20/10
f 23/20/11 18/23/11 5/24/11 14/25/11
f 9/21/12 23/20/12 14/25/12 6/26/12
f 6/27/13 10/28/13 24/29/13 9/30/13
f 10/28/14 2/31/14 20/32/14 24/29/14
f 24/29/15 20/32/15 4/10/15 17/33/15
f 9/30/16 24/29/16 17/33/16 8/34/16
f 2/31/17 11/35/17 25/36/17 20/32/17
f 11/35/18 1/1/18 16/4/18 25/36/18
f 25/36/19 16/4/19 3/9/19 13/11/19
f 20/32/20 25/36/20 13/11/20 4/10/20
f 6/26/21 14/25/21 26/37/21 10/38/21
f 14/25/22 5/24/22 19/39/22 26/37/22
f 26/37/23 19/39/23 1/1/23 11/35/23
f 10/38/24 26/37/24 11/35/24 2/31/24
