# Blender v2.92.0 OBJ File: ''
# www.blender.org
mtllib stickball0.mtl
o Cube
v -0.032415 -0.710168 0.051085
v -0.051929 -0.710168 -0.031044
v 0.030167 -0.707791 -0.050550
v 0.049681 -0.707791 0.031579
v -0.072041 0.359786 0.062740
v -0.095840 0.342615 -0.039283
v 0.008296 0.345220 -0.063969
v 0.032095 0.362390 0.038053
v -0.103943 0.716729 -0.028529
v -0.130096 0.724047 -0.126569
v -0.026661 0.734853 -0.151004
v -0.000508 0.727535 -0.052964
v -0.117251 1.043510 0.124270
v -0.140416 1.081541 0.052556
v -0.059381 1.096755 0.034448
v -0.036216 1.058723 0.106163
v -0.044027 -0.592988 0.065478
v -0.068775 -0.592988 -0.038676
v 0.035338 -0.589974 -0.063414
v 0.060086 -0.589974 0.040741
v -0.048372 -0.434470 0.066510
v -0.073119 -0.434470 -0.037644
v 0.030994 -0.431455 -0.062381
v 0.055741 -0.431455 0.041773
v -0.052716 -0.275951 0.067543
v -0.077464 -0.275951 -0.036612
v 0.026649 -0.272936 -0.061349
v 0.051397 -0.272936 0.042805
v -0.057061 -0.117432 0.068575
v -0.081808 -0.117432 -0.035579
v 0.022305 -0.114417 -0.060317
v 0.047052 -0.114417 0.043838
v -0.061405 0.041087 0.069607
v -0.086153 0.041087 -0.034547
v 0.017960 0.044101 -0.059285
v 0.042708 0.044101 0.044870
v -0.065875 0.202417 0.070434
v -0.090378 0.196925 -0.033319
v 0.013741 0.199808 -0.058047
v 0.038244 0.205301 0.045706
v -0.082826 0.494668 0.030260
v -0.105895 0.465842 -0.069900
v -0.001741 0.468168 -0.094542
v 0.021327 0.496995 0.005618
v -0.094196 0.611151 -0.008883
v -0.118032 0.590297 -0.109222
v -0.014116 0.595259 -0.134134
v 0.009720 0.616113 -0.033794
v -0.111424 0.824875 0.017872
v -0.139857 0.860288 -0.077042
v -0.036894 0.876922 -0.100828
v -0.008461 0.841509 -0.005914
v -0.118984 0.943044 0.084875
v -0.148361 0.991275 -0.006072
v -0.045595 1.010568 -0.029035
v -0.016218 0.962337 0.061912
vn 0.0274 -0.9996 -0.0065
vn -0.0565 0.8744 0.4819
vn -0.9654 -0.1238 0.2294
vn -0.2275 -0.0958 -0.9691
vn 0.9707 -0.0678 -0.2306
vn 0.2327 -0.0958 0.9678
vn -0.9725 -0.0282 0.2311
vn -0.2312 0.0000 -0.9729
vn 0.9725 0.0282 -0.2311
vn 0.2312 -0.0000 0.9729
vn -0.2312 0.0014 -0.9729
vn 0.2311 0.0014 0.9729
vn -0.9725 -0.0269 0.2313
vn -0.2294 -0.0483 -0.9721
vn 0.9725 0.0269 -0.2313
vn 0.2291 0.0564 0.9718
vn -0.9728 -0.0222 0.2306
vn -0.2174 -0.2521 -0.9430
vn 0.9728 0.0222 -0.2306
vn 0.2179 0.2450 0.9447
vn -0.9725 -0.0192 0.2323
vn -0.2098 -0.3112 -0.9269
vn 0.9724 0.0201 -0.2325
vn 0.2080 0.3276 0.9216
vn -0.9677 -0.0500 0.2472
vn -0.2191 -0.1406 -0.9655
vn 0.9675 0.0523 -0.2474
vn 0.2135 0.1910 0.9581
vn -0.9585 -0.1601 0.2357
vn -0.2552 0.3098 -0.9159
vn 0.9588 0.1578 -0.2363
vn 0.2574 -0.3595 0.8970
vn -0.9592 -0.1818 0.2165
vn -0.2715 0.4432 -0.8543
vn 0.9593 0.1810 -0.2169
vn 0.2723 -0.4595 0.8454
vn -0.9606 -0.0870 0.2641
vn -0.2788 0.5402 -0.7940
vn 0.9486 0.2714 -0.1625
vn 0.2669 -0.3558 0.8956
usemtl Material
s off
f 1//1 2//1 3//1 4//1
f 16//2 15//2 14//2 13//2
f 17//3 18//3 2//3 1//3
f 18//4 19//4 3//4 2//4
f 19//5 20//5 4//5 3//5
f 20//6 17//6 1//6 4//6
f 21//7 22//7 18//7 17//7
f 22//8 23//8 19//8 18//8
f 23//9 24//9 20//9 19//9
f 24//10 21//10 17//10 20//10
f 25//7 26//7 22//7 21//7
f 26//8 27//8 23//8 22//8
f 27//9 28//9 24//9 23//9
f 28//10 25//10 21//10 24//10
f 29//7 30//7 26//7 25//7
f 30//8 31//8 27//8 26//8
f 31//9 32//9 28//9 27//9
f 32//10 29//10 25//10 28//10
f 33//7 34//7 30//7 29//7
f 34//8 35//8 31//8 30//8
f 35//9 36//9 32//9 31//9
f 36//10 33//10 29//10 32//10
f 37//7 38//7 34//7 33//7
f 38//11 39//11 35//11 34//11
f 39//9 40//9 36//9 35//9
f 40//12 37//12 33//12 36//12
f 5//13 6//13 38//13 37//13
f 6//14 7//14 39//14 38//14
f 7//15 8//15 40//15 39//15
f 8//16 5//16 37//16 40//16
f 41//17 42//17 6//17 5//17
f 42//18 43//18 7//18 6//18
f 43//19 44//19 8//19 7//19
f 44//20 41//20 5//20 8//20
f 45//21 46//21 42//21 41//21
f 46//22 47//22 43//22 42//22
f 47//23 48//23 44//23 43//23
f 48//24 45//24 41//24 44//24
f 9//25 10//25 46//25 45//25
f 10//26 11//26 47//26 46//26
f 11//27 12//27 48//27 47//27
f 12//28 9//28 45//28 48//28
f 49//29 50//29 10//29 9//29
f 50//30 51//30 11//30 10//30
f 51//31 52//31 12//31 11//31
f 52//32 49//32 9//32 12//32
f 53//33 54//33 50//33 49//33
f 54//34 55//34 51//34 50//34
f 55//35 56//35 52//35 51//35
f 56//36 53//36 49//36 52//36
f 13//37 14//37 54//37 53//37
f 14//38 15//38 55//38 54//38
f 15//39 16//39 56//39 55//39
f 16//40 13//40 53//40 56//40
o Icosphere
v -0.081598 0.917759 0.167601
v 0.122437 1.073629 0.315840
v -0.159532 1.073629 0.407458
v -0.333801 1.073629 0.167601
v -0.159532 1.073629 -0.072256
v 0.122437 1.073629 0.019362
v -0.003665 1.325834 0.407458
v -0.285634 1.325834 0.315840
v -0.285634 1.325834 0.019362
v -0.003665 1.325834 -0.072256
v 0.170604 1.325834 0.167601
v -0.081599 1.481704 0.167601
v -0.127575 0.958988 0.309104
v 0.038772 0.958988 0.255054
v -0.007205 1.050944 0.396557
v 0.159142 1.050944 0.167601
v 0.038772 0.958988 0.080147
v -0.230385 0.958988 0.167601
v -0.276362 1.050944 0.309104
v -0.127575 0.958988 0.026098
v -0.276362 1.050944 0.026098
v -0.007205 1.050944 -0.061356
v 0.187558 1.199731 0.255054
v 0.187558 1.199731 0.080147
v -0.081598 1.199731 0.450607
v 0.084749 1.199731 0.396557
v -0.350755 1.199731 0.255054
v -0.247946 1.199731 0.396557
v -0.247946 1.199731 -0.061356
v -0.350755 1.199731 0.080147
v 0.084749 1.199731 -0.061356
v -0.081598 1.199731 -0.115406
v 0.113165 1.348519 0.309104
v -0.155992 1.348519 0.396557
v -0.322339 1.348519 0.167601
v -0.155992 1.348519 -0.061356
v 0.113165 1.348519 0.026098
v -0.035622 1.440475 0.309104
v 0.067188 1.440475 0.167601
v -0.201969 1.440475 0.255054
v -0.201969 1.440475 0.080147
v -0.035622 1.440475 0.026098
v -0.028059 0.972935 0.332375
v 0.091657 0.972935 0.167601
v -0.221765 0.972935 0.269437
v -0.221765 0.972935 0.065764
v -0.028059 0.972935 0.002827
v 0.198734 1.146192 0.167601
v 0.005029 1.146192 0.434211
v -0.308392 1.146192 0.332375
v -0.308392 1.146192 0.002827
v 0.005029 1.146192 -0.099010
v 0.145195 1.253271 0.332375
v -0.168226 1.253271 0.434211
v -0.361931 1.253271 0.167601
v -0.168226 1.253271 -0.099010
v 0.145195 1.253271 0.002827
v 0.058568 1.426528 0.269437
v -0.135138 1.426528 0.332375
v -0.254854 1.426528 0.167601
v -0.135138 1.426528 0.002827
v 0.058568 1.426528 0.065764
vt 0.818181 0.000000
vt 0.772727 0.072170
vt 0.818181 0.103334
vt 0.863636 0.078730
vt 0.727272 0.104974
vt 0.818181 0.153087
vt 0.909090 0.157461
vt 0.681818 0.072170
vt 0.636363 0.101694
vt 0.636363 0.148713
vt 0.636363 0.000000
vt 0.590909 0.072170
vt 0.545454 0.104974
vt 0.090909 0.000000
vt 0.049242 0.078730
vt 0.091856 0.103334
vt 0.136364 0.072170
vt 0.030303 0.157461
vt 0.093434 0.153087
vt 0.181818 0.104974
vt 0.272727 0.000000
vt 0.227273 0.072170
vt 0.272727 0.101694
vt 0.318182 0.072170
vt 0.272727 0.148713
vt 0.363636 0.104974
vt 0.454545 0.000000
vt 0.409091 0.072170
vt 0.454545 0.101694
vt 0.500000 0.072170
vt 0.454545 0.148713
vt 0.636363 0.208307
vt 0.681818 0.236191
vt 0.590909 0.236191
vt 0.636363 0.367408
vt 0.818181 0.209948
vt 0.863636 0.240565
vt 0.772727 0.236191
vt 0.818181 0.367408
vt 0.091856 0.208307
vt 0.136364 0.231817
vt 0.049242 0.236191
vt 0.090909 0.314921
vt 0.272727 0.208307
vt 0.318181 0.236191
vt 0.227273 0.236191
vt 0.272727 0.367408
vt 0.454545 0.208307
vt 0.500000 0.236191
vt 0.409091 0.236191
vt 0.454545 0.367408
vt 0.727272 0.264075
vt 0.727272 0.323669
vt 0.908143 0.264075
vt 0.950757 0.236191
vt 0.906565 0.319295
vt 0.969697 0.314921
vt 0.181818 0.262434
vt 0.181818 0.319295
vt 0.363636 0.264075
vt 0.363636 0.323669
vt 0.545454 0.264075
vt 0.545454 0.323669
vt 0.727272 0.370688
vt 0.772727 0.400212
vt 0.681818 0.400212
vt 0.727272 0.472382
vt 0.908143 0.369048
vt 0.950757 0.393652
vt 0.863636 0.400212
vt 0.909090 0.472382
vt 0.181818 0.369048
vt 0.227273 0.400212
vt 0.136364 0.393652
vt 0.181818 0.472382
vt 0.363636 0.370688
vt 0.409091 0.400212
vt 0.318182 0.400212
vt 0.363636 0.472382
vt 0.545454 0.370688
vt 0.590909 0.400212
vt 0.500000 0.400212
vt 0.545454 0.472382
vn 0.0938 -0.9528 0.2886
vn 0.4958 -0.6457 0.5807
vn -0.0598 -0.6457 0.7612
vn 0.7055 -0.6457 0.2921
vn 0.3035 -0.9528 0.0000
vn 0.7055 -0.6457 -0.2921
vn -0.2455 -0.9528 0.1784
vn -0.3991 -0.6457 0.6510
vn -0.7425 -0.6457 0.1784
vn -0.2455 -0.9528 -0.1784
vn -0.7425 -0.6457 -0.1784
vn -0.3991 -0.6457 -0.6510
vn 0.0938 -0.9528 -0.2886
vn -0.0598 -0.6457 -0.7612
vn 0.4958 -0.6457 -0.5807
vn 0.8930 -0.3423 0.2921
vn 0.8930 -0.3423 -0.2921
vn 0.9880 0.1547 0.0000
vn -0.0018 -0.3422 0.9396
vn 0.5538 -0.3422 0.7591
vn 0.3053 0.1547 0.9396
vn -0.8942 -0.3423 0.2886
vn -0.5508 -0.3422 0.7612
vn -0.7993 0.1547 0.5807
vn -0.5508 -0.3422 -0.7612
vn -0.8942 -0.3423 -0.2886
vn -0.7993 0.1547 -0.5807
vn 0.5538 -0.3422 -0.7591
vn -0.0018 -0.3422 -0.9396
vn 0.3053 0.1547 -0.9396
vn 0.7993 -0.1547 0.5807
vn 0.8942 0.3423 0.2886
vn 0.5508 0.3422 0.7612
vn -0.3053 -0.1547 0.9396
vn 0.0018 0.3423 0.9396
vn -0.5538 0.3422 0.7591
vn -0.9880 -0.1547 0.0000
vn -0.8930 0.3423 0.2921
vn -0.8930 0.3423 -0.2921
vn -0.3053 -0.1547 -0.9396
vn -0.5538 0.3422 -0.7591
vn 0.0018 0.3423 -0.9396
vn 0.7993 -0.1547 -0.5807
vn 0.5508 0.3422 -0.7612
vn 0.8942 0.3423 -0.2886
vn 0.3991 0.6457 0.6510
vn 0.7425 0.6457 0.1784
vn 0.2455 0.9528 0.1784
vn -0.4958 0.6457 0.5807
vn 0.0598 0.6457 0.7612
vn -0.0938 0.9528 0.2886
vn -0.7055 0.6457 -0.2921
vn -0.7055 0.6457 0.2921
vn -0.3035 0.9528 0.0000
vn 0.0598 0.6457 -0.7612
vn -0.4958 0.6457 -0.5807
vn -0.0938 0.9528 -0.2886
vn 0.7425 0.6457 -0.1784
vn 0.3991 0.6457 -0.6510
vn 0.2455 0.9528 -0.1784
usemtl None
s off
f 57/1/41 70/2/41 99/3/41 69/4/41
f 58/5/42 71/6/42 99/3/42 70/2/42
f 59/7/43 69/4/43 99/3/43 71/6/43
f 58/5/44 70/8/44 100/9/44 72/10/44
f 57/11/45 73/12/45 100/9/45 70/8/45
f 62/13/46 72/10/46 100/9/46 73/12/46
f 57/14/47 69/15/47 101/16/47 74/17/47
f 59/18/48 75/19/48 101/16/48 69/15/48
f 60/20/49 74/17/49 101/16/49 75/19/49
f 57/21/50 74/22/50 102/23/50 76/24/50
f 60/20/51 77/25/51 102/23/51 74/22/51
f 61/26/52 76/24/52 102/23/52 77/25/52
f 57/27/53 76/28/53 103/29/53 73/30/53
f 61/26/54 78/31/54 103/29/54 76/28/54
f 62/13/55 73/30/55 103/29/55 78/31/55
f 58/5/56 72/10/56 104/32/56 79/33/56
f 62/13/57 80/34/57 104/32/57 72/10/57
f 67/35/58 79/33/58 104/32/58 80/34/58
f 59/7/59 71/6/59 105/36/59 81/37/59
f 58/5/60 82/38/60 105/36/60 71/6/60
f 63/39/61 81/37/61 105/36/61 82/38/61
f 60/20/62 75/19/62 106/40/62 83/41/62
f 59/18/63 84/42/63 106/40/63 75/19/63
f 64/43/64 83/41/64 106/40/64 84/42/64
f 61/26/65 77/25/65 107/44/65 85/45/65
f 60/20/66 86/46/66 107/44/66 77/25/66
f 65/47/67 85/45/67 107/44/67 86/46/67
f 62/13/68 78/31/68 108/48/68 87/49/68
f 61/26/69 88/50/69 108/48/69 78/31/69
f 66/51/70 87/49/70 108/48/70 88/50/70
f 58/5/71 79/33/71 109/52/71 82/38/71
f 67/35/72 89/53/72 109/52/72 79/33/72
f 63/39/73 82/38/73 109/52/73 89/53/73
f 59/7/74 81/37/74 110/54/74 84/55/74
f 63/39/75 90/56/75 110/54/75 81/37/75
f 64/57/76 84/55/76 110/54/76 90/56/76
f 60/20/77 83/41/77 111/58/77 86/46/77
f 64/43/78 91/59/78 111/58/78 83/41/78
f 65/47/79 86/46/79 111/58/79 91/59/79
f 61/26/80 85/45/80 112/60/80 88/50/80
f 65/47/81 92/61/81 112/60/81 85/45/81
f 66/51/82 88/50/82 112/60/82 92/61/82
f 62/13/83 87/49/83 113/62/83 80/34/83
f 66/51/84 93/63/84 113/62/84 87/49/84
f 67/35/85 80/34/85 113/62/85 93/63/85
f 63/39/86 89/53/86 114/64/86 94/65/86
f 67/35/87 95/66/87 114/64/87 89/53/87
f 68/67/88 94/65/88 114/64/88 95/66/88
f 64/57/89 90/56/89 115/68/89 96/69/89
f 63/39/90 94/70/90 115/68/90 90/56/90
f 68/71/91 96/69/91 115/68/91 94/70/91
f 65/47/92 91/59/92 116/72/92 97/73/92
f 64/43/93 96/74/93 116/72/93 91/59/93
f 68/75/94 97/73/94 116/72/94 96/74/94
f 66/51/95 92/61/95 117/76/95 98/77/95
f 65/47/96 97/78/96 117/76/96 92/61/96
f 68/79/97 98/77/97 117/76/97 97/78/97
f 67/35/98 93/63/98 118/80/98 95/81/98
f 66/51/99 98/82/99 118/80/99 93/63/99
f 68/83/100 95/81/100 118/80/100 98/82/100
