# Blender v2.92.0 OBJ File: ''
# www.blender.org
mtllib stickball4.mtl
o Cube
v -0.069107 -0.473396 0.004490
v -0.022105 -0.473396 -0.065630
v 0.043628 -0.444008 -0.021569
v -0.003374 -0.444008 0.048551
v -0.255847 0.129857 -0.100155
v -0.197298 0.138859 -0.189031
v -0.110008 0.142680 -0.133333
v -0.168558 0.133677 -0.044457
v -0.206417 0.454221 0.579835
v -0.289799 0.454221 0.566672
v -0.288520 0.538237 0.558567
v -0.205137 0.538237 0.571730
v -0.326908 0.835631 -0.369150
v -0.248447 0.835631 -0.400293
v -0.224023 0.888003 -0.338758
v -0.302484 0.888003 -0.307615
v -0.120715 -0.359043 -0.016476
v -0.061108 -0.359043 -0.105401
v 0.022254 -0.321773 -0.049523
v -0.037353 -0.321773 0.039402
v -0.169945 -0.199451 -0.049476
v -0.110339 -0.199451 -0.138400
v -0.026977 -0.162181 -0.082522
v -0.086583 -0.162181 0.006402
v -0.219907 -0.035987 -0.082762
v -0.160839 -0.033135 -0.171897
v -0.075476 -0.006461 -0.115235
v -0.134544 -0.009313 -0.026100
v -0.255370 0.308974 -0.062245
v -0.180191 0.308234 -0.170427
v -0.104342 0.324827 -0.069150
v -0.151963 0.263840 -0.001339
v -0.125323 0.362808 0.104436
v -0.241273 0.388638 0.116843
v -0.240726 0.517880 0.072607
v -0.126010 0.521040 0.114303
v -0.150589 0.414885 0.298780
v -0.256334 0.414885 0.282087
v -0.254711 0.521432 0.271809
v -0.148967 0.521432 0.288502
v -0.176329 0.431006 0.461830
v -0.282073 0.431006 0.445137
v -0.280451 0.537553 0.434858
v -0.174706 0.537553 0.451551
v -0.259015 0.505915 -0.104123
v -0.170235 0.505773 -0.195760
v -0.114142 0.544092 -0.085035
v -0.229299 0.592458 -0.057015
v -0.282856 0.630387 -0.227481
v -0.183353 0.630387 -0.266975
v -0.152379 0.696805 -0.188937
v -0.251882 0.696805 -0.149443
v -0.316079 0.744227 -0.311183
v -0.216576 0.744227 -0.350677
v -0.185602 0.810644 -0.272640
v -0.285104 0.810644 -0.233145
vn -0.7789 -0.3435 -0.5246
vn -0.3648 -0.7644 0.5315
vn -0.5568 0.0000 0.8307
vn 0.7787 0.3481 0.5220
vn 0.5568 -0.0000 -0.8307
vn -0.7787 -0.3481 -0.5220
vn 0.8686 -0.4516 0.2038
vn -0.7698 -0.0952 -0.6312
vn 0.8538 -0.0515 -0.5180
vn -0.5287 -0.0838 0.8446
vn 0.8014 0.2630 0.5372
vn -0.9553 0.2847 0.0796
vn 0.1679 0.9418 0.2914
vn -0.9961 0.0136 0.0872
vn 0.9958 0.0290 0.0866
vn 0.5804 -0.0838 -0.8100
vn -0.7497 -0.4305 -0.5026
vn -0.2289 0.7843 -0.5766
vn -0.1552 0.0972 0.9831
vn 0.2892 -0.9374 0.1938
vn 0.5550 -0.0004 -0.8319
vn 0.7759 0.3530 0.5228
vn -0.5552 0.0011 0.8317
vn -0.8052 -0.2285 -0.5472
vn 0.5418 0.0276 -0.8400
vn 0.7987 0.2554 0.5448
vn -0.5421 -0.0256 0.8399
vn -0.8229 0.1312 -0.5529
vn 0.6796 0.1262 -0.7227
vn 0.8504 -0.2242 0.4761
vn -0.5415 -0.1850 0.8201
vn -0.1172 -0.9730 0.1988
vn -0.9969 -0.0090 -0.0787
vn -0.0112 0.9999 -0.0117
vn 0.9915 -0.0033 0.1302
vn -0.0152 -0.9953 0.0960
vn -0.9878 -0.0000 -0.1559
vn 0.0152 0.9953 -0.0960
vn 0.9878 -0.0000 0.1559
vn -0.0293 -0.9822 0.1857
vn -0.9978 0.0089 -0.0651
vn 0.0009 1.0000 -0.0055
vn 0.9694 0.0089 0.2454
vn -0.4629 -0.5873 -0.6639
vn 0.9203 -0.0723 -0.3844
vn 0.3592 0.6187 0.6988
vn -0.9408 0.1112 0.3203
vn -0.2893 -0.6204 -0.7290
vn 0.9295 -0.0000 -0.3689
vn 0.2893 0.6204 0.7290
vn -0.9295 0.0000 0.3689
vn -0.3117 -0.5349 -0.7853
vn 0.9004 0.0821 -0.4272
vn 0.2638 0.6991 0.6646
vn -0.9483 0.0821 0.3066
usemtl Material
s off
f 25//1 26//1 22//1 21//1
f 34//2 29//2 32//2 33//2
f 24//3 21//3 17//3 20//3
f 23//4 24//4 20//4 19//4
f 22//5 23//5 19//5 18//5
f 21//6 22//6 18//6 17//6
f 33//7 32//7 31//7
f 29//8 45//8 46//8 30//8
f 30//9 46//9 47//9 31//9
f 20//10 17//10 1//10 4//10
f 19//11 20//11 4//11 3//11
f 45//12 35//12 48//12
f 35//13 36//13 47//13 48//13
f 29//14 34//14 35//14 45//14
f 36//15 33//15 31//15 47//15
f 18//16 19//16 3//16 2//16
f 17//17 18//17 2//17 1//17
f 16//18 15//18 14//18 13//18
f 12//19 11//19 10//19 9//19
f 1//20 2//20 3//20 4//20
f 26//21 27//21 23//21 22//21
f 27//22 28//22 24//22 23//22
f 28//23 25//23 21//23 24//23
f 5//24 6//24 26//24 25//24
f 6//25 7//25 27//25 26//25
f 7//26 8//26 28//26 27//26
f 8//27 5//27 25//27 28//27
f 29//28 30//28 6//28 5//28
f 30//29 31//29 7//29 6//29
f 31//30 32//30 8//30 7//30
f 32//31 29//31 5//31 8//31
f 37//32 38//32 34//32 33//32
f 38//33 39//33 35//33 34//33
f 39//34 40//34 36//34 35//34
f 40//35 37//35 33//35 36//35
f 41//36 42//36 38//36 37//36
f 42//37 43//37 39//37 38//37
f 43//38 44//38 40//38 39//38
f 44//39 41//39 37//39 40//39
f 9//40 10//40 42//40 41//40
f 10//41 11//41 43//41 42//41
f 11//42 12//42 44//42 43//42
f 12//43 9//43 41//43 44//43
f 49//44 50//44 46//44 45//44
f 50//45 51//45 47//45 46//45
f 51//46 52//46 48//46 47//46
f 52//47 49//47 45//47 48//47
f 53//48 54//48 50//48 49//48
f 54//49 55//49 51//49 50//49
f 55//50 56//50 52//50 51//50
f 56//51 53//51 49//51 52//51
f 13//52 14//52 54//52 53//52
f 14//53 15//53 55//53 54//53
f 15//54 16//54 56//54 55//54
f 16//55 13//55 53//55 56//55
o Icosphere
v -0.208550 0.197705 0.553588
v -0.004515 0.353575 0.701827
v -0.286484 0.353575 0.793445
v -0.460753 0.353575 0.553588
v -0.286484 0.353575 0.313731
v -0.004515 0.353575 0.405349
v -0.130616 0.605780 0.793445
v -0.412586 0.605780 0.701827
v -0.412586 0.605780 0.405349
v -0.130616 0.605780 0.313731
v 0.043652 0.605780 0.553588
v -0.208550 0.761650 0.553588
v -0.254527 0.238934 0.695091
v -0.088180 0.238934 0.641042
v -0.134157 0.330890 0.782545
v 0.032191 0.330890 0.553588
v -0.088180 0.238934 0.466135
v -0.357337 0.238934 0.553588
v -0.403314 0.330890 0.695091
v -0.254527 0.238934 0.412085
v -0.403314 0.330890 0.412085
v -0.134157 0.330890 0.324632
v 0.060607 0.479678 0.641042
v 0.060607 0.479678 0.466135
v -0.208550 0.479678 0.836595
v -0.042203 0.479678 0.782545
v -0.477707 0.479678 0.641042
v -0.374898 0.479678 0.782545
v -0.374898 0.479678 0.324632
v -0.477707 0.479678 0.466135
v -0.042203 0.479678 0.324632
v -0.208550 0.479678 0.270582
v -0.013787 0.628465 0.695091
v -0.282944 0.628465 0.782545
v -0.449291 0.628465 0.553588
v -0.282944 0.628465 0.324632
v -0.013787 0.628465 0.412085
v -0.162573 0.720421 0.695091
v -0.059764 0.720421 0.553588
v -0.328921 0.720421 0.641042
v -0.328921 0.720421 0.466135
v -0.162573 0.720421 0.412085
v -0.155011 0.252881 0.718362
v -0.035295 0.252881 0.553588
v -0.348716 0.252881 0.655424
v -0.348716 0.252881 0.451752
v -0.155011 0.252881 0.388814
v 0.071783 0.426138 0.553588
v -0.121923 0.426138 0.820199
v -0.435344 0.426138 0.718362
v -0.435344 0.426138 0.388814
v -0.121923 0.426138 0.286978
v 0.018243 0.533217 0.718362
v -0.295178 0.533217 0.820199
v -0.488883 0.533217 0.553588
v -0.295178 0.533217 0.286978
v 0.018243 0.533217 0.388814
v -0.068384 0.706474 0.655424
v -0.262090 0.706474 0.718362
v -0.381805 0.706474 0.553588
v -0.262090 0.706474 0.388814
v -0.068384 0.706474 0.451752
vt 0.818181 0.000000
vt 0.772727 0.072170
vt 0.818181 0.103334
vt 0.863636 0.078730
vt 0.727272 0.104974
vt 0.818181 0.153087
vt 0.909090 0.157461
vt 0.681818 0.072170
vt 0.636363 0.101694
vt 0.636363 0.148713
vt 0.636363 0.000000
vt 0.590909 0.072170
vt 0.545454 0.104974
vt 0.090909 0.000000
vt 0.049242 0.078730
vt 0.091856 0.103334
vt 0.136364 0.072170
vt 0.030303 0.157461
vt 0.093434 0.153087
vt 0.181818 0.104974
vt 0.272727 0.000000
vt 0.227273 0.072170
vt 0.272727 0.101694
vt 0.318182 0.072170
vt 0.272727 0.148713
vt 0.363636 0.104974
vt 0.454545 0.000000
vt 0.409091 0.072170
vt 0.454545 0.101694
vt 0.500000 0.072170
vt 0.454545 0.148713
vt 0.636363 0.208307
vt 0.681818 0.236191
vt 0.590909 0.236191
vt 0.636363 0.367408
vt 0.818181 0.209948
vt 0.863636 0.240565
vt 0.772727 0.236191
vt 0.818181 0.367408
vt 0.091856 0.208307
vt 0.136364 0.231817
vt 0.049242 0.236191
vt 0.090909 0.314921
vt 0.272727 0.208307
vt 0.318181 0.236191
vt 0.227273 0.236191
vt 0.272727 0.367408
vt 0.454545 0.208307
vt 0.500000 0.236191
vt 0.409091 0.236191
vt 0.454545 0.367408
vt 0.727272 0.264075
vt 0.727272 0.323669
vt 0.908143 0.264075
vt 0.950757 0.236191
vt 0.906565 0.319295
vt 0.969697 0.314921
vt 0.181818 0.262434
vt 0.181818 0.319295
vt 0.363636 0.264075
vt 0.363636 0.323669
vt 0.545454 0.264075
vt 0.545454 0.323669
vt 0.727272 0.370688
vt 0.772727 0.400212
vt 0.681818 0.400212
vt 0.727272 0.472382
vt 0.908143 0.369048
vt 0.950757 0.393652
vt 0.863636 0.400212
vt 0.909090 0.472382
vt 0.181818 0.369048
vt 0.227273 0.400212
vt 0.136364 0.393652
vt 0.181818 0.472382
vt 0.363636 0.370688
vt 0.409091 0.400212
vt 0.318182 0.400212
vt 0.363636 0.472382
vt 0.545454 0.370688
vt 0.590909 0.400212
vt 0.500000 0.400212
vt 0.545454 0.472382
vn 0.0938 -0.9528 0.2886
vn 0.4958 -0.6457 0.5807
vn -0.0598 -0.6457 0.7612
vn 0.7055 -0.6457 0.2921
vn 0.3035 -0.9528 0.0000
vn 0.7055 -0.6457 -0.2921
vn -0.2455 -0.9528 0.1784
vn -0.3991 -0.6457 0.6510
vn -0.7425 -0.6457 0.1784
vn -0.2455 -0.9528 -0.1784
vn -0.7425 -0.6457 -0.1784
vn -0.3991 -0.6457 -0.6510
vn 0.0938 -0.9528 -0.2886
vn -0.0598 -0.6457 -0.7612
vn 0.4958 -0.6457 -0.5807
vn 0.8930 -0.3423 0.2921
vn 0.8930 -0.3423 -0.2921
vn 0.9880 0.1547 0.0000
vn -0.0018 -0.3423 0.9396
vn 0.5538 -0.3422 0.7591
vn 0.3053 0.1547 0.9396
vn -0.8942 -0.3423 0.2886
vn -0.5508 -0.3422 0.7612
vn -0.7993 0.1547 0.5807
vn -0.5508 -0.3422 -0.7612
vn -0.8942 -0.3423 -0.2886
vn -0.7993 0.1547 -0.5807
vn 0.5538 -0.3422 -0.7591
vn -0.0018 -0.3423 -0.9396
vn 0.3053 0.1547 -0.9396
vn 0.7993 -0.1547 0.5807
vn 0.8942 0.3423 0.2886
vn 0.5508 0.3422 0.7612
vn -0.3053 -0.1547 0.9396
vn 0.0018 0.3423 0.9396
vn -0.5538 0.3422 0.7591
vn -0.9880 -0.1547 0.0000
vn -0.8930 0.3423 0.2921
vn -0.8930 0.3423 -0.2921
vn -0.3053 -0.1547 -0.9396
vn -0.5538 0.3422 -0.7591
vn 0.0018 0.3423 -0.9396
vn 0.7993 -0.1547 -0.5807
vn 0.5508 0.3422 -0.7612
vn 0.8942 0.3423 -0.2886
vn 0.3991 0.6457 0.6510
vn 0.7425 0.6457 0.1784
vn 0.2455 0.9528 0.1784
vn -0.4958 0.6457 0.5807
vn 0.0598 0.6457 0.7612
vn -0.0938 0.9528 0.2886
vn -0.7055 0.6457 -0.2921
vn -0.7055 0.6457 0.2921
vn -0.3035 0.9528 0.0000
vn 0.0598 0.6457 -0.7612
vn -0.4958 0.6457 -0.5807
vn -0.0938 0.9528 -0.2886
vn 0.7425 0.6457 -0.1784
vn 0.3991 0.6457 -0.6510
vn 0.2455 0.9528 -0.1784
usemtl None
s off
f 57/1/56 70/2/56 99/3/56 69/4/56
f 58/5/57 71/6/57 99/3/57 70/2/57
f 59/7/58 69/4/58 99/3/58 71/6/58
f 58/5/59 70/8/59 100/9/59 72/10/59
f 57/11/60 73/12/60 100/9/60 70/8/60
f 62/13/61 72/10/61 100/9/61 73/12/61
f 57/14/62 69/15/62 101/16/62 74/17/62
f 59/18/63 75/19/63 101/16/63 69/15/63
f 60/20/64 74/17/64 101/16/64 75/19/64
f 57/21/65 74/22/65 102/23/65 76/24/65
f 60/20/66 77/25/66 102/23/66 74/22/66
f 61/26/67 76/24/67 102/23/67 77/25/67
f 57/27/68 76/28/68 103/29/68 73/30/68
f 61/26/69 78/31/69 103/29/69 76/28/69
f 62/13/70 73/30/70 103/29/70 78/31/70
f 58/5/71 72/10/71 104/32/71 79/33/71
f 62/13/72 80/34/72 104/32/72 72/10/72
f 67/35/73 79/33/73 104/32/73 80/34/73
f 59/7/74 71/6/74 105/36/74 81/37/74
f 58/5/75 82/38/75 105/36/75 71/6/75
f 63/39/76 81/37/76 105/36/76 82/38/76
f 60/20/77 75/19/77 106/40/77 83/41/77
f 59/18/78 84/42/78 106/40/78 75/19/78
f 64/43/79 83/41/79 106/40/79 84/42/79
f 61/26/80 77/25/80 107/44/80 85/45/80
f 60/20/81 86/46/81 107/44/81 77/25/81
f 65/47/82 85/45/82 107/44/82 86/46/82
f 62/13/83 78/31/83 108/48/83 87/49/83
f 61/26/84 88/50/84 108/48/84 78/31/84
f 66/51/85 87/49/85 108/48/85 88/50/85
f 58/5/86 79/33/86 109/52/86 82/38/86
f 67/35/87 89/53/87 109/52/87 79/33/87
f 63/39/88 82/38/88 109/52/88 89/53/88
f 59/7/89 81/37/89 110/54/89 84/55/89
f 63/39/90 90/56/90 110/54/90 81/37/90
f 64/57/91 84/55/91 110/54/91 90/56/91
f 60/20/92 83/41/92 111/58/92 86/46/92
f 64/43/93 91/59/93 111/58/93 83/41/93
f 65/47/94 86/46/94 111/58/94 91/59/94
f 61/26/95 85/45/95 112/60/95 88/50/95
f 65/47/96 92/61/96 112/60/96 85/45/96
f 66/51/97 88/50/97 112/60/97 92/61/97
f 62/13/98 87/49/98 113/62/98 80/34/98
f 66/51/99 93/63/99 113/62/99 87/49/99
f 67/35/100 80/34/100 113/62/100 93/63/100
f 63/39/101 89/53/101 114/64/101 94/65/101
f 67/35/102 95/66/102 114/64/102 89/53/102
f 68/67/103 94/65/103 114/64/103 95/66/103
f 64/57/104 90/56/104 115/68/104 96/69/104
f 63/39/105 94/70/105 115/68/105 90/56/105
f 68/71/106 96/69/106 115/68/106 94/70/106
f 65/47/107 91/59/107 116/72/107 97/73/107
f 64/43/108 96/74/108 116/72/108 91/59/108
f 68/75/109 97/73/109 116/72/109 96/74/109
f 66/51/110 92/61/110 117/76/110 98/77/110
f 65/47/111 97/78/111 117/76/111 92/61/111
f 68/79/112 98/77/112 117/76/112 97/78/112
f 67/35/113 93/63/113 118/80/113 95/81/113
f 66/51/114 98/82/114 118/80/114 93/63/114
f 68/83/115 95/81/115 118/80/115 98/82/115
o Icosphere.001
v -0.305061 0.683564 -0.439233
v -0.101025 0.839434 -0.290994
v -0.382995 0.839434 -0.199376
v -0.557263 0.839434 -0.439233
v -0.382995 0.839434 -0.679090
v -0.101025 0.839434 -0.587472
v -0.227127 1.091639 -0.199376
v -0.509096 1.091639 -0.290994
v -0.509096 1.091639 -0.587472
v -0.227127 1.091639 -0.679090
v -0.052858 1.091639 -0.439233
v -0.305061 1.247509 -0.439233
v -0.351038 0.724793 -0.297730
v -0.184690 0.724793 -0.351780
v -0.230667 0.816749 -0.210276
v -0.064320 0.816749 -0.439233
v -0.184690 0.724793 -0.526686
v -0.453847 0.724793 -0.439233
v -0.499824 0.816749 -0.297730
v -0.351038 0.724793 -0.580736
v -0.499824 0.816749 -0.580736
v -0.230667 0.816749 -0.668190
v -0.035904 0.965537 -0.351780
v -0.035904 0.965537 -0.526686
v -0.305061 0.965537 -0.156227
v -0.138713 0.965537 -0.210276
v -0.574218 0.965537 -0.351780
v -0.471408 0.965537 -0.210276
v -0.471408 0.965537 -0.668190
v -0.574218 0.965537 -0.526686
v -0.138713 0.965537 -0.668190
v -0.305061 0.965537 -0.722239
v -0.110297 1.114324 -0.297730
v -0.379454 1.114324 -0.210276
v -0.545802 1.114324 -0.439233
v -0.379454 1.114324 -0.668190
v -0.110297 1.114324 -0.580736
v -0.259084 1.206280 -0.297730
v -0.156274 1.206280 -0.439233
v -0.425431 1.206280 -0.351780
v -0.425431 1.206280 -0.526686
v -0.259084 1.206280 -0.580736
v -0.251521 0.738740 -0.274459
v -0.131806 0.738740 -0.439233
v -0.445227 0.738740 -0.337397
v -0.445227 0.738740 -0.541069
v -0.251521 0.738740 -0.604007
v -0.024728 0.911997 -0.439233
v -0.218433 0.911997 -0.172623
v -0.531854 0.911997 -0.274459
v -0.531854 0.911997 -0.604007
v -0.218433 0.911997 -0.705843
v -0.078267 1.019076 -0.274459
v -0.391688 1.019076 -0.172623
v -0.585394 1.019076 -0.439233
v -0.391688 1.019076 -0.705843
v -0.078267 1.019076 -0.604007
v -0.164895 1.192333 -0.337397
v -0.358600 1.192333 -0.274459
v -0.478316 1.192333 -0.439233
v -0.358600 1.192333 -0.604007
v -0.164895 1.192333 -0.541069
vt 0.818181 0.000000
vt 0.772727 0.072170
vt 0.818181 0.103334
vt 0.863636 0.078730
vt 0.727272 0.104974
vt 0.818181 0.153087
vt 0.909090 0.157461
vt 0.681818 0.072170
vt 0.636363 0.101694
vt 0.636363 0.148713
vt 0.636363 0.000000
vt 0.590909 0.072170
vt 0.545454 0.104974
vt 0.090909 0.000000
vt 0.049242 0.078730
vt 0.091856 0.103334
vt 0.136364 0.072170
vt 0.030303 0.157461
vt 0.093434 0.153087
vt 0.181818 0.104974
vt 0.272727 0.000000
vt 0.227273 0.072170
vt 0.272727 0.101694
vt 0.318182 0.072170
vt 0.272727 0.148713
vt 0.363636 0.104974
vt 0.454545 0.000000
vt 0.409091 0.072170
vt 0.454545 0.101694
vt 0.500000 0.072170
vt 0.454545 0.148713
vt 0.636363 0.208307
vt 0.681818 0.236191
vt 0.590909 0.236191
vt 0.636363 0.367408
vt 0.818181 0.209948
vt 0.863636 0.240565
vt 0.772727 0.236191
vt 0.818181 0.367408
vt 0.091856 0.208307
vt 0.136364 0.231817
vt 0.049242 0.236191
vt 0.090909 0.314921
vt 0.272727 0.208307
vt 0.318181 0.236191
vt 0.227273 0.236191
vt 0.272727 0.367408
vt 0.454545 0.208307
vt 0.500000 0.236191
vt 0.409091 0.236191
vt 0.454545 0.367408
vt 0.727272 0.264075
vt 0.727272 0.323669
vt 0.908143 0.264075
vt 0.950757 0.236191
vt 0.906565 0.319295
vt 0.969697 0.314921
vt 0.181818 0.262434
vt 0.181818 0.319295
vt 0.363636 0.264075
vt 0.363636 0.323669
vt 0.545454 0.264075
vt 0.545454 0.323669
vt 0.727272 0.370688
vt 0.772727 0.400212
vt 0.681818 0.400212
vt 0.727272 0.472382
vt 0.908143 0.369048
vt 0.950757 0.393652
vt 0.863636 0.400212
vt 0.909090 0.472382
vt 0.181818 0.369048
vt 0.227273 0.400212
vt 0.136364 0.393652
vt 0.181818 0.472382
vt 0.363636 0.370688
vt 0.409091 0.400212
vt 0.318182 0.400212
vt 0.363636 0.472382
vt 0.545454 0.370688
vt 0.590909 0.400212
vt 0.500000 0.400212
vt 0.545454 0.472382
vn 0.0938 -0.9528 0.2886
vn 0.4958 -0.6457 0.5807
vn -0.0598 -0.6457 0.7612
vn 0.7055 -0.6457 0.2921
vn 0.3035 -0.9528 0.0000
vn 0.7055 -0.6457 -0.2921
vn -0.2455 -0.9528 0.1784
vn -0.3991 -0.6457 0.6510
vn -0.7425 -0.6457 0.1784
vn -0.2455 -0.9528 -0.1784
vn -0.7425 -0.6457 -0.1784
vn -0.3991 -0.6457 -0.6510
vn 0.0938 -0.9528 -0.2886
vn -0.0598 -0.6457 -0.7612
vn 0.4958 -0.6457 -0.5807
vn 0.8930 -0.3423 0.2921
vn 0.8930 -0.3423 -0.2921
vn 0.9880 0.1547 0.0000
vn -0.0018 -0.3423 0.9396
vn 0.5538 -0.3422 0.7591
vn 0.3053 0.1547 0.9396
vn -0.8942 -0.3423 0.2886
vn -0.5508 -0.3422 0.7612
vn -0.7993 0.1547 0.5807
vn -0.5508 -0.3422 -0.7612
vn -0.8942 -0.3423 -0.2886
vn -0.7993 0.1547 -0.5807
vn 0.5538 -0.3422 -0.7591
vn -0.0018 -0.3423 -0.9396
vn 0.3053 0.1547 -0.9396
vn 0.7993 -0.1547 0.5807
vn 0.8942 0.3423 0.2886
vn 0.5508 0.3422 0.7612
vn -0.3053 -0.1547 0.9396
vn 0.0018 0.3422 0.9396
vn -0.5538 0.3422 0.7591
vn -0.9880 -0.1547 0.0000
vn -0.8930 0.3423 0.2921
vn -0.8930 0.3423 -0.2921
vn -0.3053 -0.1547 -0.9396
vn -0.5538 0.3422 -0.7591
vn 0.0018 0.3423 -0.9396
vn 0.7993 -0.1547 -0.5807
vn 0.5508 0.3422 -0.7612
vn 0.8942 0.3423 -0.2886
vn 0.3991 0.6457 0.6510
vn 0.7425 0.6457 0.1784
vn 0.2455 0.9528 0.1784
vn -0.4958 0.6457 0.5807
vn 0.0598 0.6457 0.7612
vn -0.0938 0.9528 0.2886
vn -0.7055 0.6457 -0.2921
vn -0.7055 0.6457 0.2921
vn -0.3035 0.9528 0.0000
vn 0.0598 0.6457 -0.7612
vn -0.4958 0.6457 -0.5807
vn -0.0938 0.9528 -0.2886
vn 0.7425 0.6457 -0.1784
vn 0.3991 0.6457 -0.6510
vn 0.2455 0.9528 -0.1784
usemtl None
s off
f 119/84/116 132/85/116 161/86/116 131/87/116
f 120/88/117 133/89/117 161/86/117 132/85/117
f 121/90/118 131/87/118 161/86/118 133/89/118
f 120/88/119 132/91/119 162/92/119 134/93/119
f 119/94/120 135/95/120 162/92/120 132/91/120
f 124/96/121 134/93/121 162/92/121 135/95/121
f 119/97/122 131/98/122 163/99/122 136/100/122
f 121/101/123 137/102/123 163/99/123 131/98/123
f 122/103/124 136/100/124 163/99/124 137/102/124
f 119/104/125 136/105/125 164/106/125 138/107/125
f 122/103/126 139/108/126 164/106/126 136/105/126
f 123/109/127 138/107/127 164/106/127 139/108/127
f 119/110/128 138/111/128 165/112/128 135/113/128
f 123/109/129 140/114/129 165/112/129 138/111/129
f 124/96/130 135/113/130 165/112/130 140/114/130
f 120/88/131 134/93/131 166/115/131 141/116/131
f 124/96/132 142/117/132 166/115/132 134/93/132
f 129/118/133 141/116/133 166/115/133 142/117/133
f 121/90/134 133/89/134 167/119/134 143/120/134
f 120/88/135 144/121/135 167/119/135 133/89/135
f 125/122/136 143/120/136 167/119/136 144/121/136
f 122/103/137 137/102/137 168/123/137 145/124/137
f 121/101/138 146/125/138 168/123/138 137/102/138
f 126/126/139 145/124/139 168/123/139 146/125/139
f 123/109/140 139/108/140 169/127/140 147/128/140
f 122/103/141 148/129/141 169/127/141 139/108/141
f 127/130/142 147/128/142 169/127/142 148/129/142
f 124/96/143 140/114/143 170/131/143 149/132/143
f 123/109/144 150/133/144 170/131/144 140/114/144
f 128/134/145 149/132/145 170/131/145 150/133/145
f 120/88/146 141/116/146 171/135/146 144/121/146
f 129/118/147 151/136/147 171/135/147 141/116/147
f 125/122/148 144/121/148 171/135/148 151/136/148
f 121/90/149 143/120/149 172/137/149 146/138/149
f 125/122/150 152/139/150 172/137/150 143/120/150
f 126/140/151 146/138/151 172/137/151 152/139/151
f 122/103/152 145/124/152 173/141/152 148/129/152
f 126/126/153 153/142/153 173/141/153 145/124/153
f 127/130/154 148/129/154 173/141/154 153/142/154
f 123/109/155 147/128/155 174/143/155 150/133/155
f 127/130/156 154/144/156 174/143/156 147/128/156
f 128/134/157 150/133/157 174/143/157 154/144/157
f 124/96/158 149/132/158 175/145/158 142/117/158
f 128/134/159 155/146/159 175/145/159 149/132/159
f 129/118/160 142/117/160 175/145/160 155/146/160
f 125/122/161 151/136/161 176/147/161 156/148/161
f 129/118/162 157/149/162 176/147/162 151/136/162
f 130/150/163 156/148/163 176/147/163 157/149/163
f 126/140/164 152/139/164 177/151/164 158/152/164
f 125/122/165 156/153/165 177/151/165 152/139/165
f 130/154/166 158/152/166 177/151/166 156/153/166
f 127/130/167 153/142/167 178/155/167 159/156/167
f 126/126/168 158/157/168 178/155/168 153/142/168
f 130/158/169 159/156/169 178/155/169 158/157/169
f 128/134/170 154/144/170 179/159/170 160/160/170
f 127/130/171 159/161/171 179/159/171 154/144/171
f 130/162/172 160/160/172 179/159/172 159/161/172
f 129/118/173 155/146/173 180/163/173 157/164/173
f 128/134/174 160/165/174 180/163/174 155/146/174
f 130/166/175 157/164/175 180/163/175 160/165/175
