# Blender v2.92.0 OBJ File: ''
# www.blender.org
mtllib stickball3.mtl
o Cube
v -0.032854 -0.457044 0.051189
v -0.052368 -0.457044 -0.030940
v 0.029706 -0.453977 -0.050441
v 0.049220 -0.453977 0.031688
v -0.064681 0.347622 0.079533
v -0.088756 0.364626 -0.022471
v 0.015098 0.362655 -0.047943
v 0.039173 0.345650 0.054061
v 0.123509 0.985291 0.628939
v 0.039732 0.985291 0.639305
v 0.033769 1.054334 0.591103
v 0.117545 1.054334 0.580738
v -0.309064 0.837182 -0.336157
v -0.237692 0.837182 -0.381236
v -0.220324 0.915080 -0.353737
v -0.291695 0.915080 -0.308658
v -0.045752 -0.330019 0.065888
v -0.070499 -0.330019 -0.038267
v 0.033587 -0.326129 -0.062998
v 0.058334 -0.326129 0.041157
v -0.051834 -0.158092 0.067333
v -0.076581 -0.158092 -0.036821
v 0.027505 -0.154202 -0.061552
v 0.052252 -0.154202 0.042602
v -0.057916 0.013834 0.068778
v -0.082663 0.013834 -0.035376
v 0.021422 0.017724 -0.060107
v 0.046170 0.017724 0.044047
v -0.064017 0.183978 0.070080
v -0.088708 0.189418 -0.033637
v 0.015358 0.191433 -0.058519
v 0.040049 0.185993 0.045198
v -0.040356 0.544233 0.136429
v -0.072213 0.534649 -0.008832
v 0.020554 0.556363 -0.030582
v 0.067626 0.551564 0.122114
v 0.063565 0.657158 0.239748
v -0.035016 0.707159 0.239056
v -0.023266 0.809416 0.171125
v 0.075316 0.759416 0.171817
v 0.106082 0.807257 0.395905
v -0.000162 0.807257 0.409050
v -0.007726 0.894817 0.347922
v 0.098518 0.894817 0.334777
v 0.123001 0.904186 0.532652
v 0.016757 0.904186 0.545797
v 0.009194 0.991746 0.484669
v 0.115438 0.991746 0.471524
v -0.116090 0.631799 -0.002214
v -0.039579 0.638414 -0.069465
v 0.000669 0.756169 0.007437
v -0.090805 0.767309 0.072613
v -0.190631 0.724833 -0.127450
v -0.100119 0.724833 -0.184618
v -0.078093 0.823622 -0.149744
v -0.168605 0.823622 -0.092576
v -0.265482 0.783357 -0.245958
v -0.174970 0.783357 -0.303126
v -0.152943 0.882146 -0.268252
v -0.243455 0.882146 -0.211085
vn -0.9653 -0.1246 0.2294
vn -0.4928 0.3853 -0.7802
vn 0.4427 0.8697 -0.2182
vn -0.9723 -0.0363 0.2310
vn 0.2334 -0.0884 0.9684
vn 0.9947 -0.0573 0.0858
vn 0.1379 -0.7347 0.6642
vn 0.9716 -0.0522 -0.2309
vn -0.2271 -0.0884 -0.9698
vn -0.0920 -0.4807 -0.8721
vn 0.7092 0.1993 -0.6763
vn -0.9310 -0.1111 0.3476
vn -0.1154 0.9395 -0.3225
vn -0.8324 0.3698 0.4127
vn 0.1004 0.5754 0.8117
vn 0.0354 -0.9993 -0.0084
vn -0.2634 -0.5080 0.8201
vn -0.8831 -0.4139 0.2210
vn -0.6303 -0.2343 -0.7402
vn 0.9286 0.1044 -0.3560
vn -0.2312 -0.0000 -0.9729
vn 0.9723 0.0363 -0.2310
vn 0.2312 -0.0000 0.9729
vn -0.9724 -0.0362 0.2303
vn -0.2319 0.0012 -0.9727
vn 0.9724 0.0365 -0.2303
vn 0.2318 0.0013 0.9728
vn -0.9733 -0.0160 0.2290
vn -0.2350 0.0607 -0.9701
vn 0.9733 0.0168 -0.2289
vn 0.2350 -0.0539 0.9705
vn -0.9728 0.0657 0.2220
vn -0.2416 0.0969 -0.9655
vn 0.9623 -0.0238 -0.2708
vn 0.1829 -0.3133 0.9319
vn -0.1493 -0.7671 0.6239
vn -0.9914 0.0879 0.0971
vn 0.1662 0.8181 -0.5506
vn 0.9884 -0.0996 -0.1144
vn 0.0706 -0.8179 0.5710
vn -0.9924 -0.0000 0.1228
vn -0.0706 0.8179 -0.5710
vn 0.9924 0.0000 -0.1228
vn 0.0794 -0.7626 0.6419
vn -0.9793 0.0519 0.1956
vn -0.0613 0.8665 -0.4954
vn 0.9974 0.0519 -0.0490
vn -0.3049 -0.8373 -0.4538
vn 0.8864 -0.0162 -0.4626
vn 0.2265 0.9410 0.2513
vn -0.8917 -0.0314 0.4516
vn -0.2058 -0.9228 -0.3258
vn 0.8455 -0.0000 -0.5340
vn 0.2058 0.9228 0.3258
vn -0.8455 -0.0000 0.5340
vn -0.2540 -0.8796 -0.4022
vn 0.7919 0.0385 -0.6094
vn 0.1554 0.9567 0.2461
vn -0.8905 0.0385 0.4533
usemtl Material
s off
f 17//1 18//1 2//1 1//1
f 16//2 15//2 14//2 13//2
f 51//3 39//3 40//3
f 21//4 22//4 18//4 17//4
f 20//5 17//5 1//5 4//5
f 37//6 36//6 40//6
f 37//7 33//7 36//7
f 19//8 20//8 4//8 3//8
f 18//9 19//9 3//9 2//9
f 34//10 50//10 35//10
f 50//11 51//11 35//11
f 49//12 33//12 38//12 52//12
f 52//13 39//13 51//13
f 52//14 38//14 39//14
f 12//15 11//15 10//15 9//15
f 1//16 2//16 3//16 4//16
f 33//17 37//17 38//17
f 49//18 34//18 33//18
f 49//19 50//19 34//19
f 35//20 51//20 40//20 36//20
f 22//21 23//21 19//21 18//21
f 23//22 24//22 20//22 19//22
f 24//23 21//23 17//23 20//23
f 25//4 26//4 22//4 21//4
f 26//21 27//21 23//21 22//21
f 27//22 28//22 24//22 23//22
f 28//23 25//23 21//23 24//23
f 29//24 30//24 26//24 25//24
f 30//25 31//25 27//25 26//25
f 31//26 32//26 28//26 27//26
f 32//27 29//27 25//27 28//27
f 5//28 6//28 30//28 29//28
f 6//29 7//29 31//29 30//29
f 7//30 8//30 32//30 31//30
f 8//31 5//31 29//31 32//31
f 33//32 34//32 6//32 5//32
f 34//33 35//33 7//33 6//33
f 35//34 36//34 8//34 7//34
f 36//35 33//35 5//35 8//35
f 41//36 42//36 38//36 37//36
f 42//37 43//37 39//37 38//37
f 43//38 44//38 40//38 39//38
f 44//39 41//39 37//39 40//39
f 45//40 46//40 42//40 41//40
f 46//41 47//41 43//41 42//41
f 47//42 48//42 44//42 43//42
f 48//43 45//43 41//43 44//43
f 9//44 10//44 46//44 45//44
f 10//45 11//45 47//45 46//45
f 11//46 12//46 48//46 47//46
f 12//47 9//47 45//47 48//47
f 53//48 54//48 50//48 49//48
f 54//49 55//49 51//49 50//49
f 55//50 56//50 52//50 51//50
f 56//51 53//51 49//51 52//51
f 57//52 58//52 54//52 53//52
f 58//53 59//53 55//53 54//53
f 59//54 60//54 56//54 55//54
f 60//55 57//55 53//55 56//55
f 13//56 14//56 58//56 57//56
f 14//57 15//57 59//57 58//57
f 15//58 16//58 60//58 59//58
f 16//59 13//59 57//59 60//59
o Icosphere
v 0.102562 0.733968 0.618471
v 0.306597 0.889839 0.766710
v 0.024628 0.889839 0.858328
v -0.149641 0.889839 0.618471
v 0.024628 0.889839 0.378614
v 0.306597 0.889839 0.470232
v 0.180496 1.142043 0.858328
v -0.101474 1.142043 0.766710
v -0.101474 1.142043 0.470232
v 0.180496 1.142043 0.378614
v 0.354764 1.142043 0.618471
v 0.102562 1.297914 0.618471
v 0.056585 0.775198 0.759974
v 0.222932 0.775198 0.705925
v 0.176955 0.867153 0.847428
v 0.343303 0.867153 0.618471
v 0.222932 0.775198 0.531018
v -0.046225 0.775198 0.618471
v -0.092202 0.867153 0.759974
v 0.056585 0.775198 0.476968
v -0.092202 0.867153 0.476968
v 0.176955 0.867153 0.389515
v 0.371719 1.015941 0.705925
v 0.371719 1.015941 0.531018
v 0.102562 1.015941 0.901478
v 0.268909 1.015941 0.847428
v -0.166595 1.015941 0.705925
v -0.063786 1.015941 0.847428
v -0.063786 1.015941 0.389515
v -0.166595 1.015941 0.531018
v 0.268909 1.015941 0.389515
v 0.102562 1.015941 0.335465
v 0.297325 1.164729 0.759974
v 0.028168 1.164729 0.847428
v -0.138179 1.164729 0.618471
v 0.028168 1.164729 0.389515
v 0.297325 1.164729 0.476968
v 0.148539 1.256684 0.759974
v 0.251348 1.256684 0.618471
v -0.017809 1.256684 0.705925
v -0.017809 1.256684 0.531018
v 0.148539 1.256684 0.476968
v 0.156101 0.789145 0.783245
v 0.275817 0.789145 0.618471
v -0.037605 0.789145 0.720307
v -0.037605 0.789145 0.516635
v 0.156101 0.789145 0.453697
v 0.382895 0.962402 0.618471
v 0.189189 0.962402 0.885082
v -0.124232 0.962402 0.783245
v -0.124232 0.962402 0.453697
v 0.189189 0.962402 0.351861
v 0.329355 1.069480 0.783245
v 0.015934 1.069480 0.885082
v -0.177771 1.069480 0.618471
v 0.015934 1.069480 0.351861
v 0.329355 1.069480 0.453697
v 0.242728 1.242737 0.720307
v 0.049022 1.242737 0.783245
v -0.070693 1.242737 0.618471
v 0.049022 1.242737 0.453697
v 0.242728 1.242737 0.516635
vt 0.818181 0.000000
vt 0.772727 0.072170
vt 0.818181 0.103334
vt 0.863636 0.078730
vt 0.727272 0.104974
vt 0.818181 0.153087
vt 0.909090 0.157461
vt 0.681818 0.072170
vt 0.636363 0.101694
vt 0.636363 0.148713
vt 0.636363 0.000000
vt 0.590909 0.072170
vt 0.545454 0.104974
vt 0.090909 0.000000
vt 0.049242 0.078730
vt 0.091856 0.103334
vt 0.136364 0.072170
vt 0.030303 0.157461
vt 0.093434 0.153087
vt 0.181818 0.104974
vt 0.272727 0.000000
vt 0.227273 0.072170
vt 0.272727 0.101694
vt 0.318182 0.072170
vt 0.272727 0.148713
vt 0.363636 0.104974
vt 0.454545 0.000000
vt 0.409091 0.072170
vt 0.454545 0.101694
vt 0.500000 0.072170
vt 0.454545 0.148713
vt 0.636363 0.208307
vt 0.681818 0.236191
vt 0.590909 0.236191
vt 0.636363 0.367408
vt 0.818181 0.209948
vt 0.863636 0.240565
vt 0.772727 0.236191
vt 0.818181 0.367408
vt 0.091856 0.208307
vt 0.136364 0.231817
vt 0.049242 0.236191
vt 0.090909 0.314921
vt 0.272727 0.208307
vt 0.318181 0.236191
vt 0.227273 0.236191
vt 0.272727 0.367408
vt 0.454545 0.208307
vt 0.500000 0.236191
vt 0.409091 0.236191
vt 0.454545 0.367408
vt 0.727272 0.264075
vt 0.727272 0.323669
vt 0.908143 0.264075
vt 0.950757 0.236191
vt 0.906565 0.319295
vt 0.969697 0.314921
vt 0.181818 0.262434
vt 0.181818 0.319295
vt 0.363636 0.264075
vt 0.363636 0.323669
vt 0.545454 0.264075
vt 0.545454 0.323669
vt 0.727272 0.370688
vt 0.772727 0.400212
vt 0.681818 0.400212
vt 0.727272 0.472382
vt 0.908143 0.369048
vt 0.950757 0.393652
vt 0.863636 0.400212
vt 0.909090 0.472382
vt 0.181818 0.369048
vt 0.227273 0.400212
vt 0.136364 0.393652
vt 0.181818 0.472382
vt 0.363636 0.370688
vt 0.409091 0.400212
vt 0.318182 0.400212
vt 0.363636 0.472382
vt 0.545454 0.370688
vt 0.590909 0.400212
vt 0.500000 0.400212
vt 0.545454 0.472382
vn 0.0938 -0.9528 0.2886
vn 0.4958 -0.6457 0.5807
vn -0.0598 -0.6457 0.7612
vn 0.7055 -0.6457 0.2921
vn 0.3035 -0.9528 0.0000
vn 0.7055 -0.6457 -0.2921
vn -0.2455 -0.9528 0.1784
vn -0.3991 -0.6457 0.6510
vn -0.7425 -0.6457 0.1784
vn -0.2455 -0.9528 -0.1784
vn -0.7425 -0.6457 -0.1784
vn -0.3991 -0.6457 -0.6510
vn 0.0938 -0.9528 -0.2886
vn -0.0598 -0.6457 -0.7612
vn 0.4958 -0.6457 -0.5807
vn 0.8930 -0.3423 0.2921
vn 0.8930 -0.3423 -0.2921
vn 0.9880 0.1547 0.0000
vn -0.0018 -0.3423 0.9396
vn 0.5538 -0.3422 0.7591
vn 0.3053 0.1547 0.9396
vn -0.8942 -0.3423 0.2886
vn -0.5508 -0.3422 0.7612
vn -0.7993 0.1547 0.5807
vn -0.5508 -0.3422 -0.7612
vn -0.8942 -0.3423 -0.2886
vn -0.7993 0.1547 -0.5807
vn 0.5538 -0.3422 -0.7591
vn -0.0018 -0.3423 -0.9396
vn 0.3053 0.1547 -0.9396
vn 0.7993 -0.1547 0.5807
vn 0.8942 0.3423 0.2886
vn 0.5508 0.3422 0.7612
vn -0.3053 -0.1547 0.9396
vn 0.0018 0.3423 0.9396
vn -0.5538 0.3422 0.7591
vn -0.9880 -0.1547 0.0000
vn -0.8930 0.3423 0.2921
vn -0.8930 0.3423 -0.2921
vn -0.3053 -0.1547 -0.9396
vn -0.5538 0.3422 -0.7591
vn 0.0018 0.3422 -0.9396
vn 0.7993 -0.1547 -0.5807
vn 0.5508 0.3422 -0.7612
vn 0.8942 0.3423 -0.2886
vn 0.3991 0.6457 0.6510
vn 0.7425 0.6457 0.1784
vn 0.2455 0.9528 0.1784
vn -0.4958 0.6457 0.5807
vn 0.0598 0.6457 0.7612
vn -0.0938 0.9528 0.2886
vn -0.7055 0.6457 -0.2921
vn -0.7055 0.6457 0.2921
vn -0.3035 0.9528 0.0000
vn 0.0598 0.6457 -0.7612
vn -0.4958 0.6457 -0.5807
vn -0.0938 0.9528 -0.2886
vn 0.7425 0.6457 -0.1784
vn 0.3991 0.6457 -0.6510
vn 0.2455 0.9528 -0.1784
usemtl None
s off
f 61/1/60 74/2/60 103/3/60 73/4/60
f 62/5/61 75/6/61 103/3/61 74/2/61
f 63/7/62 73/4/62 103/3/62 75/6/62
f 62/5/63 74/8/63 104/9/63 76/10/63
f 61/11/64 77/12/64 104/9/64 74/8/64
f 66/13/65 76/10/65 104/9/65 77/12/65
f 61/14/66 73/15/66 105/16/66 78/17/66
f 63/18/67 79/19/67 105/16/67 73/15/67
f 64/20/68 78/17/68 105/16/68 79/19/68
f 61/21/69 78/22/69 106/23/69 80/24/69
f 64/20/70 81/25/70 106/23/70 78/22/70
f 65/26/71 80/24/71 106/23/71 81/25/71
f 61/27/72 80/28/72 107/29/72 77/30/72
f 65/26/73 82/31/73 107/29/73 80/28/73
f 66/13/74 77/30/74 107/29/74 82/31/74
f 62/5/75 76/10/75 108/32/75 83/33/75
f 66/13/76 84/34/76 108/32/76 76/10/76
f 71/35/77 83/33/77 108/32/77 84/34/77
f 63/7/78 75/6/78 109/36/78 85/37/78
f 62/5/79 86/38/79 109/36/79 75/6/79
f 67/39/80 85/37/80 109/36/80 86/38/80
f 64/20/81 79/19/81 110/40/81 87/41/81
f 63/18/82 88/42/82 110/40/82 79/19/82
f 68/43/83 87/41/83 110/40/83 88/42/83
f 65/26/84 81/25/84 111/44/84 89/45/84
f 64/20/85 90/46/85 111/44/85 81/25/85
f 69/47/86 89/45/86 111/44/86 90/46/86
f 66/13/87 82/31/87 112/48/87 91/49/87
f 65/26/88 92/50/88 112/48/88 82/31/88
f 70/51/89 91/49/89 112/48/89 92/50/89
f 62/5/90 83/33/90 113/52/90 86/38/90
f 71/35/91 93/53/91 113/52/91 83/33/91
f 67/39/92 86/38/92 113/52/92 93/53/92
f 63/7/93 85/37/93 114/54/93 88/55/93
f 67/39/94 94/56/94 114/54/94 85/37/94
f 68/57/95 88/55/95 114/54/95 94/56/95
f 64/20/96 87/41/96 115/58/96 90/46/96
f 68/43/97 95/59/97 115/58/97 87/41/97
f 69/47/98 90/46/98 115/58/98 95/59/98
f 65/26/99 89/45/99 116/60/99 92/50/99
f 69/47/100 96/61/100 116/60/100 89/45/100
f 70/51/101 92/50/101 116/60/101 96/61/101
f 66/13/102 91/49/102 117/62/102 84/34/102
f 70/51/103 97/63/103 117/62/103 91/49/103
f 71/35/104 84/34/104 117/62/104 97/63/104
f 67/39/105 93/53/105 118/64/105 98/65/105
f 71/35/106 99/66/106 118/64/106 93/53/106
f 72/67/107 98/65/107 118/64/107 99/66/107
f 68/57/108 94/56/108 119/68/108 100/69/108
f 67/39/109 98/70/109 119/68/109 94/56/109
f 72/71/110 100/69/110 119/68/110 98/70/110
f 69/47/111 95/59/111 120/72/111 101/73/111
f 68/43/112 100/74/112 120/72/112 95/59/112
f 72/75/113 101/73/113 120/72/113 100/74/113
f 70/51/114 96/61/114 121/76/114 102/77/114
f 69/47/115 101/78/115 121/76/115 96/61/115
f 72/79/116 102/77/116 121/76/116 101/78/116
f 71/35/117 97/63/117 122/80/117 99/81/117
f 70/51/118 102/82/118 122/80/118 97/63/118
f 72/83/119 99/81/119 122/80/119 102/82/119
o Icosphere.001
v -0.305061 0.683564 -0.439233
v -0.101025 0.839434 -0.290994
v -0.382995 0.839434 -0.199376
v -0.557263 0.839434 -0.439233
v -0.382995 0.839434 -0.679090
v -0.101025 0.839434 -0.587472
v -0.227127 1.091639 -0.199376
v -0.509096 1.091639 -0.290994
v -0.509096 1.091639 -0.587472
v -0.227127 1.091639 -0.679090
v -0.052858 1.091639 -0.439233
v -0.305061 1.247509 -0.439233
v -0.351038 0.724793 -0.297730
v -0.184690 0.724793 -0.351780
v -0.230667 0.816749 -0.210276
v -0.064320 0.816749 -0.439233
v -0.184690 0.724793 -0.526686
v -0.453847 0.724793 -0.439233
v -0.499824 0.816749 -0.297730
v -0.351038 0.724793 -0.580736
v -0.499824 0.816749 -0.580736
v -0.230667 0.816749 -0.668190
v -0.035904 0.965537 -0.351780
v -0.035904 0.965537 -0.526686
v -0.305061 0.965537 -0.156227
v -0.138713 0.965537 -0.210276
v -0.574218 0.965537 -0.351780
v -0.471408 0.965537 -0.210276
v -0.471408 0.965537 -0.668190
v -0.574218 0.965537 -0.526686
v -0.138713 0.965537 -0.668190
v -0.305061 0.965537 -0.722239
v -0.110297 1.114324 -0.297730
v -0.379454 1.114324 -0.210276
v -0.545802 1.114324 -0.439233
v -0.379454 1.114324 -0.668190
v -0.110297 1.114324 -0.580736
v -0.259084 1.206280 -0.297730
v -0.156274 1.206280 -0.439233
v -0.425431 1.206280 -0.351780
v -0.425431 1.206280 -0.526686
v -0.259084 1.206280 -0.580736
v -0.251521 0.738740 -0.274459
v -0.131806 0.738740 -0.439233
v -0.445227 0.738740 -0.337397
v -0.445227 0.738740 -0.541069
v -0.251521 0.738740 -0.604007
v -0.024728 0.911997 -0.439233
v -0.218433 0.911997 -0.172623
v -0.531854 0.911997 -0.274459
v -0.531854 0.911997 -0.604007
v -0.218433 0.911997 -0.705843
v -0.078267 1.019076 -0.274459
v -0.391688 1.019076 -0.172623
v -0.585394 1.019076 -0.439233
v -0.391688 1.019076 -0.705843
v -0.078267 1.019076 -0.604007
v -0.164895 1.192333 -0.337397
v -0.358600 1.192333 -0.274459
v -0.478316 1.192333 -0.439233
v -0.358600 1.192333 -0.604007
v -0.164895 1.192333 -0.541069
vt 0.818181 0.000000
vt 0.772727 0.072170
vt 0.818181 0.103334
vt 0.863636 0.078730
vt 0.727272 0.104974
vt 0.818181 0.153087
vt 0.909090 0.157461
vt 0.681818 0.072170
vt 0.636363 0.101694
vt 0.636363 0.148713
vt 0.636363 0.000000
vt 0.590909 0.072170
vt 0.545454 0.104974
vt 0.090909 0.000000
vt 0.049242 0.078730
vt 0.091856 0.103334
vt 0.136364 0.072170
vt 0.030303 0.157461
vt 0.093434 0.153087
vt 0.181818 0.104974
vt 0.272727 0.000000
vt 0.227273 0.072170
vt 0.272727 0.101694
vt 0.318182 0.072170
vt 0.272727 0.148713
vt 0.363636 0.104974
vt 0.454545 0.000000
vt 0.409091 0.072170
vt 0.454545 0.101694
vt 0.500000 0.072170
vt 0.454545 0.148713
vt 0.636363 0.208307
vt 0.681818 0.236191
vt 0.590909 0.236191
vt 0.636363 0.367408
vt 0.818181 0.209948
vt 0.863636 0.240565
vt 0.772727 0.236191
vt 0.818181 0.367408
vt 0.091856 0.208307
vt 0.136364 0.231817
vt 0.049242 0.236191
vt 0.090909 0.314921
vt 0.272727 0.208307
vt 0.318181 0.236191
vt 0.227273 0.236191
vt 0.272727 0.367408
vt 0.454545 0.208307
vt 0.500000 0.236191
vt 0.409091 0.236191
vt 0.454545 0.367408
vt 0.727272 0.264075
vt 0.727272 0.323669
vt 0.908143 0.264075
vt 0.950757 0.236191
vt 0.906565 0.319295
vt 0.969697 0.314921
vt 0.181818 0.262434
vt 0.181818 0.319295
vt 0.363636 0.264075
vt 0.363636 0.323669
vt 0.545454 0.264075
vt 0.545454 0.323669
vt 0.727272 0.370688
vt 0.772727 0.400212
vt 0.681818 0.400212
vt 0.727272 0.472382
vt 0.908143 0.369048
vt 0.950757 0.393652
vt 0.863636 0.400212
vt 0.909090 0.472382
vt 0.181818 0.369048
vt 0.227273 0.400212
vt 0.136364 0.393652
vt 0.181818 0.472382
vt 0.363636 0.370688
vt 0.409091 0.400212
vt 0.318182 0.400212
vt 0.363636 0.472382
vt 0.545454 0.370688
vt 0.590909 0.400212
vt 0.500000 0.400212
vt 0.545454 0.472382
vn 0.0938 -0.9528 0.2886
vn 0.4958 -0.6457 0.5807
vn -0.0598 -0.6457 0.7612
vn 0.7055 -0.6457 0.2921
vn 0.3035 -0.9528 0.0000
vn 0.7055 -0.6457 -0.2921
vn -0.2455 -0.9528 0.1784
vn -0.3991 -0.6457 0.6510
vn -0.7425 -0.6457 0.1784
vn -0.2455 -0.9528 -0.1784
vn -0.7425 -0.6457 -0.1784
vn -0.3991 -0.6457 -0.6510
vn 0.0938 -0.9528 -0.2886
vn -0.0598 -0.6457 -0.7612
vn 0.4958 -0.6457 -0.5807
vn 0.8930 -0.3423 0.2921
vn 0.8930 -0.3423 -0.2921
vn 0.9880 0.1547 0.0000
vn -0.0018 -0.3423 0.9396
vn 0.5538 -0.3422 0.7591
vn 0.3053 0.1547 0.9396
vn -0.8942 -0.3423 0.2886
vn -0.5508 -0.3422 0.7612
vn -0.7993 0.1547 0.5807
vn -0.5508 -0.3422 -0.7612
vn -0.8942 -0.3423 -0.2886
vn -0.7993 0.1547 -0.5807
vn 0.5538 -0.3422 -0.7591
vn -0.0018 -0.3423 -0.9396
vn 0.3053 0.1547 -0.9396
vn 0.7993 -0.1547 0.5807
vn 0.8942 0.3423 0.2886
vn 0.5508 0.3422 0.7612
vn -0.3053 -0.1547 0.9396
vn 0.0018 0.3422 0.9396
vn -0.5538 0.3422 0.7591
vn -0.9880 -0.1547 0.0000
vn -0.8930 0.3423 0.2921
vn -0.8930 0.3423 -0.2921
vn -0.3053 -0.1547 -0.9396
vn -0.5538 0.3422 -0.7591
vn 0.0018 0.3423 -0.9396
vn 0.7993 -0.1547 -0.5807
vn 0.5508 0.3422 -0.7612
vn 0.8942 0.3423 -0.2886
vn 0.3991 0.6457 0.6510
vn 0.7425 0.6457 0.1784
vn 0.2455 0.9528 0.1784
vn -0.4958 0.6457 0.5807
vn 0.0598 0.6457 0.7612
vn -0.0938 0.9528 0.2886
vn -0.7055 0.6457 -0.2921
vn -0.7055 0.6457 0.2921
vn -0.3035 0.9528 0.0000
vn 0.0598 0.6457 -0.7612
vn -0.4958 0.6457 -0.5807
vn -0.0938 0.9528 -0.2886
vn 0.7425 0.6457 -0.1784
vn 0.3991 0.6457 -0.6510
vn 0.2455 0.9528 -0.1784
usemtl None
s off
f 123/84/120 136/85/120 165/86/120 135/87/120
f 124/88/121 137/89/121 165/86/121 136/85/121
f 125/90/122 135/87/122 165/86/122 137/89/122
f 124/88/123 136/91/123 166/92/123 138/93/123
f 123/94/124 139/95/124 166/92/124 136/91/124
f 128/96/125 138/93/125 166/92/125 139/95/125
f 123/97/126 135/98/126 167/99/126 140/100/126
f 125/101/127 141/102/127 167/99/127 135/98/127
f 126/103/128 140/100/128 167/99/128 141/102/128
f 123/104/129 140/105/129 168/106/129 142/107/129
f 126/103/130 143/108/130 168/106/130 140/105/130
f 127/109/131 142/107/131 168/106/131 143/108/131
f 123/110/132 142/111/132 169/112/132 139/113/132
f 127/109/133 144/114/133 169/112/133 142/111/133
f 128/96/134 139/113/134 169/112/134 144/114/134
f 124/88/135 138/93/135 170/115/135 145/116/135
f 128/96/136 146/117/136 170/115/136 138/93/136
f 133/118/137 145/116/137 170/115/137 146/117/137
f 125/90/138 137/89/138 171/119/138 147/120/138
f 124/88/139 148/121/139 171/119/139 137/89/139
f 129/122/140 147/120/140 171/119/140 148/121/140
f 126/103/141 141/102/141 172/123/141 149/124/141
f 125/101/142 150/125/142 172/123/142 141/102/142
f 130/126/143 149/124/143 172/123/143 150/125/143
f 127/109/144 143/108/144 173/127/144 151/128/144
f 126/103/145 152/129/145 173/127/145 143/108/145
f 131/130/146 151/128/146 173/127/146 152/129/146
f 128/96/147 144/114/147 174/131/147 153/132/147
f 127/109/148 154/133/148 174/131/148 144/114/148
f 132/134/149 153/132/149 174/131/149 154/133/149
f 124/88/150 145/116/150 175/135/150 148/121/150
f 133/118/151 155/136/151 175/135/151 145/116/151
f 129/122/152 148/121/152 175/135/152 155/136/152
f 125/90/153 147/120/153 176/137/153 150/138/153
f 129/122/154 156/139/154 176/137/154 147/120/154
f 130/140/155 150/138/155 176/137/155 156/139/155
f 126/103/156 149/124/156 177/141/156 152/129/156
f 130/126/157 157/142/157 177/141/157 149/124/157
f 131/130/158 152/129/158 177/141/158 157/142/158
f 127/109/159 151/128/159 178/143/159 154/133/159
f 131/130/160 158/144/160 178/143/160 151/128/160
f 132/134/161 154/133/161 178/143/161 158/144/161
f 128/96/162 153/132/162 179/145/162 146/117/162
f 132/134/163 159/146/163 179/145/163 153/132/163
f 133/118/164 146/117/164 179/145/164 159/146/164
f 129/122/165 155/136/165 180/147/165 160/148/165
f 133/118/166 161/149/166 180/147/166 155/136/166
f 134/150/167 160/148/167 180/147/167 161/149/167
f 130/140/168 156/139/168 181/151/168 162/152/168
f 129/122/169 160/153/169 181/151/169 156/139/169
f 134/154/170 162/152/170 181/151/170 160/153/170
f 131/130/171 157/142/171 182/155/171 163/156/171
f 130/126/172 162/157/172 182/155/172 157/142/172
f 134/158/173 163/156/173 182/155/173 162/157/173
f 132/134/174 158/144/174 183/159/174 164/160/174
f 131/130/175 163/161/175 183/159/175 158/144/175
f 134/162/176 164/160/176 183/159/176 163/161/176
f 133/118/177 159/146/177 184/163/177 161/164/177
f 132/134/178 164/165/178 184/163/178 159/146/178
f 134/166/179 161/164/179 184/163/179 164/165/179
