# Blender v2.92.0 OBJ File: ''
# www.blender.org
mtllib stickball1.mtl
o Cube
v -0.032854 -0.457044 0.051189
v -0.052368 -0.457044 -0.030940
v 0.029706 -0.453977 -0.050441
v 0.049220 -0.453977 0.031688
v -0.064681 0.347622 0.079533
v -0.088756 0.364626 -0.022471
v 0.015098 0.362655 -0.047943
v 0.039173 0.345650 0.054061
v -0.028900 0.616665 0.167780
v -0.047264 0.678440 0.086570
v 0.057266 0.677571 0.064439
v 0.075630 0.615796 0.145649
v 0.042608 0.983204 0.640428
v 0.031429 1.052113 0.592967
v 0.114670 1.056421 0.579614
v 0.125849 0.987512 0.627075
v -0.045752 -0.330019 0.065888
v -0.070499 -0.330019 -0.038267
v 0.033587 -0.326129 -0.062998
v 0.058334 -0.326129 0.041157
v -0.051834 -0.158092 0.067333
v -0.076581 -0.158092 -0.036821
v 0.027505 -0.154202 -0.061552
v 0.052252 -0.154202 0.042602
v -0.057916 0.013834 0.068778
v -0.082663 0.013834 -0.035376
v 0.021422 0.017724 -0.060107
v 0.046170 0.017724 0.044047
v -0.064017 0.183978 0.070080
v -0.088708 0.189418 -0.033637
v 0.015358 0.191433 -0.058519
v 0.040049 0.185993 0.045198
v -0.048585 0.491183 0.113009
v -0.070473 0.529230 0.017569
v 0.033512 0.525628 -0.007364
v 0.055400 0.487582 0.088076
v -0.012656 0.712351 0.278446
v -0.028084 0.792254 0.210691
v 0.077172 0.795866 0.191886
v 0.092600 0.715963 0.259642
v 0.003484 0.804611 0.410475
v -0.010693 0.892000 0.350286
v 0.094872 0.897463 0.333352
v 0.109049 0.810074 0.393541
v 0.020404 0.901540 0.547222
v 0.006226 0.988929 0.487033
v 0.111791 0.994392 0.470099
v 0.125969 0.907003 0.530288
vn 0.0354 -0.9993 -0.0084
vn 0.1004 0.5754 0.8117
vn -0.9653 -0.1246 0.2294
vn -0.2271 -0.0884 -0.9698
vn 0.9716 -0.0522 -0.2309
vn 0.2334 -0.0884 0.9684
vn -0.9723 -0.0363 0.2310
vn -0.2312 -0.0000 -0.9729
vn 0.9723 0.0363 -0.2310
vn 0.2312 -0.0000 0.9729
vn -0.9724 -0.0362 0.2303
vn -0.2319 0.0012 -0.9727
vn 0.9724 0.0365 -0.2303
vn 0.2318 0.0013 0.9728
vn -0.9733 -0.0160 0.2290
vn -0.2350 0.0607 -0.9701
vn 0.9733 0.0168 -0.2289
vn 0.2350 -0.0539 0.9705
vn -0.9695 0.0509 0.2399
vn -0.2213 0.2564 -0.9409
vn 0.9694 -0.0514 -0.2400
vn 0.2220 -0.2481 0.9430
vn -0.9689 0.0413 0.2441
vn -0.1887 0.4399 -0.8780
vn 0.9691 -0.0398 -0.2433
vn 0.1909 -0.4224 0.8861
vn -0.9820 -0.0405 0.1843
vn -0.1384 0.7385 -0.6599
vn 0.9819 0.0392 -0.1854
vn 0.1347 -0.7567 0.6397
vn -0.9859 -0.0528 0.1590
vn -0.1311 0.8136 -0.5665
vn 0.9858 0.0524 -0.1595
vn 0.1299 -0.8194 0.5583
vn -0.9861 -0.0510 0.1582
vn -0.1324 0.8163 -0.5622
vn 0.9861 0.0510 -0.1582
vn 0.1324 -0.8163 0.5622
vn -0.9730 0.0011 0.2308
vn -0.1228 0.8649 -0.4867
vn 0.9911 0.1028 -0.0843
vn 0.1410 -0.7610 0.6332
usemtl Material
s off
f 1//1 2//1 3//1 4//1
f 16//2 15//2 14//2 13//2
f 17//3 18//3 2//3 1//3
f 18//4 19//4 3//4 2//4
f 19//5 20//5 4//5 3//5
f 20//6 17//6 1//6 4//6
f 21//7 22//7 18//7 17//7
f 22//8 23//8 19//8 18//8
f 23//9 24//9 20//9 19//9
f 24//10 21//10 17//10 20//10
f 25//7 26//7 22//7 21//7
f 26//8 27//8 23//8 22//8
f 27//9 28//9 24//9 23//9
f 28//10 25//10 21//10 24//10
f 29//11 30//11 26//11 25//11
f 30//12 31//12 27//12 26//12
f 31//13 32//13 28//13 27//13
f 32//14 29//14 25//14 28//14
f 5//15 6//15 30//15 29//15
f 6//16 7//16 31//16 30//16
f 7//17 8//17 32//17 31//17
f 8//18 5//18 29//18 32//18
f 33//19 34//19 6//19 5//19
f 34//20 35//20 7//20 6//20
f 35//21 36//21 8//21 7//21
f 36//22 33//22 5//22 8//22
f 9//23 10//23 34//23 33//23
f 10//24 11//24 35//24 34//24
f 11//25 12//25 36//25 35//25
f 12//26 9//26 33//26 36//26
f 37//27 38//27 10//27 9//27
f 38//28 39//28 11//28 10//28
f 39//29 40//29 12//29 11//29
f 40//30 37//30 9//30 12//30
f 41//31 42//31 38//31 37//31
f 42//32 43//32 39//32 38//32
f 43//33 44//33 40//33 39//33
f 44//34 41//34 37//34 40//34
f 45//35 46//35 42//35 41//35
f 46//36 47//36 43//36 42//36
f 47//37 48//37 44//37 43//37
f 48//38 45//38 41//38 44//38
f 13//39 14//39 46//39 45//39
f 14//40 15//40 47//40 46//40
f 15//41 16//41 48//41 47//41
f 16//42 13//42 45//42 48//42
o Icosphere
v 0.200146 0.784526 0.550560
v 0.404182 0.940396 0.698799
v 0.122212 0.940396 0.790417
v -0.052056 0.940396 0.550560
v 0.122212 0.940396 0.310703
v 0.404182 0.940396 0.402321
v 0.278080 1.192601 0.790417
v -0.003889 1.192601 0.698799
v -0.003889 1.192601 0.402321
v 0.278080 1.192601 0.310703
v 0.452349 1.192601 0.550560
v 0.200146 1.348471 0.550560
v 0.154169 0.825755 0.692063
v 0.320517 0.825755 0.638014
v 0.274540 0.917711 0.779517
v 0.440887 0.917711 0.550560
v 0.320517 0.825755 0.463107
v 0.051360 0.825755 0.550560
v 0.005383 0.917711 0.692063
v 0.154169 0.825755 0.409057
v 0.005383 0.917711 0.409057
v 0.274540 0.917711 0.321603
v 0.469303 1.066499 0.638014
v 0.469303 1.066499 0.463107
v 0.200146 1.066499 0.833566
v 0.366494 1.066499 0.779517
v -0.069011 1.066499 0.638014
v 0.033799 1.066499 0.779517
v 0.033799 1.066499 0.321603
v -0.069011 1.066499 0.463107
v 0.366494 1.066499 0.321603
v 0.200146 1.066499 0.267554
v 0.394909 1.215286 0.692063
v 0.125753 1.215286 0.779517
v -0.040595 1.215286 0.550560
v 0.125753 1.215286 0.321603
v 0.394909 1.215286 0.409057
v 0.246123 1.307242 0.692063
v 0.348932 1.307242 0.550560
v 0.079775 1.307242 0.638014
v 0.079775 1.307242 0.463107
v 0.246123 1.307242 0.409057
v 0.253685 0.839702 0.715334
v 0.373401 0.839702 0.550560
v 0.059980 0.839702 0.652396
v 0.059980 0.839702 0.448724
v 0.253685 0.839702 0.385786
v 0.480479 1.012959 0.550560
v 0.286774 1.012959 0.817171
v -0.026648 1.012959 0.715334
v -0.026648 1.012959 0.385786
v 0.286774 1.012959 0.283950
v 0.426940 1.120038 0.715334
v 0.113519 1.120038 0.817171
v -0.080187 1.120038 0.550560
v 0.113519 1.120038 0.283950
v 0.426940 1.120038 0.385786
v 0.340312 1.293295 0.652396
v 0.146607 1.293295 0.715334
v 0.026891 1.293295 0.550560
v 0.146607 1.293295 0.385786
v 0.340312 1.293295 0.448724
vt 0.818181 0.000000
vt 0.772727 0.072170
vt 0.818181 0.103334
vt 0.863636 0.078730
vt 0.727272 0.104974
vt 0.818181 0.153087
vt 0.909090 0.157461
vt 0.681818 0.072170
vt 0.636363 0.101694
vt 0.636363 0.148713
vt 0.636363 0.000000
vt 0.590909 0.072170
vt 0.545454 0.104974
vt 0.090909 0.000000
vt 0.049242 0.078730
vt 0.091856 0.103334
vt 0.136364 0.072170
vt 0.030303 0.157461
vt 0.093434 0.153087
vt 0.181818 0.104974
vt 0.272727 0.000000
vt 0.227273 0.072170
vt 0.272727 0.101694
vt 0.318182 0.072170
vt 0.272727 0.148713
vt 0.363636 0.104974
vt 0.454545 0.000000
vt 0.409091 0.072170
vt 0.454545 0.101694
vt 0.500000 0.072170
vt 0.454545 0.148713
vt 0.636363 0.208307
vt 0.681818 0.236191
vt 0.590909 0.236191
vt 0.636363 0.367408
vt 0.818181 0.209948
vt 0.863636 0.240565
vt 0.772727 0.236191
vt 0.818181 0.367408
vt 0.091856 0.208307
vt 0.136364 0.231817
vt 0.049242 0.236191
vt 0.090909 0.314921
vt 0.272727 0.208307
vt 0.318181 0.236191
vt 0.227273 0.236191
vt 0.272727 0.367408
vt 0.454545 0.208307
vt 0.500000 0.236191
vt 0.409091 0.236191
vt 0.454545 0.367408
vt 0.727272 0.264075
vt 0.727272 0.323669
vt 0.908143 0.264075
vt 0.950757 0.236191
vt 0.906565 0.319295
vt 0.969697 0.314921
vt 0.181818 0.262434
vt 0.181818 0.319295
vt 0.363636 0.264075
vt 0.363636 0.323669
vt 0.545454 0.264075
vt 0.545454 0.323669
vt 0.727272 0.370688
vt 0.772727 0.400212
vt 0.681818 0.400212
vt 0.727272 0.472382
vt 0.908143 0.369048
vt 0.950757 0.393652
vt 0.863636 0.400212
vt 0.909090 0.472382
vt 0.181818 0.369048
vt 0.227273 0.400212
vt 0.136364 0.393652
vt 0.181818 0.472382
vt 0.363636 0.370688
vt 0.409091 0.400212
vt 0.318182 0.400212
vt 0.363636 0.472382
vt 0.545454 0.370688
vt 0.590909 0.400212
vt 0.500000 0.400212
vt 0.545454 0.472382
vn 0.0938 -0.9528 0.2886
vn 0.4958 -0.6457 0.5807
vn -0.0598 -0.6457 0.7612
vn 0.7055 -0.6457 0.2921
vn 0.3035 -0.9528 0.0000
vn 0.7055 -0.6457 -0.2921
vn -0.2455 -0.9528 0.1784
vn -0.3991 -0.6457 0.6510
vn -0.7425 -0.6457 0.1784
vn -0.2455 -0.9528 -0.1784
vn -0.7425 -0.6457 -0.1784
vn -0.3991 -0.6457 -0.6510
vn 0.0938 -0.9528 -0.2886
vn -0.0598 -0.6457 -0.7612
vn 0.4958 -0.6457 -0.5807
vn 0.8930 -0.3423 0.2921
vn 0.8930 -0.3423 -0.2921
vn 0.9880 0.1547 0.0000
vn -0.0018 -0.3422 0.9396
vn 0.5538 -0.3422 0.7591
vn 0.3053 0.1547 0.9396
vn -0.8942 -0.3423 0.2886
vn -0.5508 -0.3422 0.7612
vn -0.7993 0.1547 0.5807
vn -0.5508 -0.3422 -0.7612
vn -0.8942 -0.3423 -0.2886
vn -0.7993 0.1547 -0.5807
vn 0.5538 -0.3422 -0.7591
vn -0.0018 -0.3422 -0.9396
vn 0.3053 0.1547 -0.9396
vn 0.7993 -0.1547 0.5807
vn 0.8942 0.3423 0.2886
vn 0.5508 0.3422 0.7612
vn -0.3053 -0.1547 0.9396
vn 0.0018 0.3423 0.9396
vn -0.5538 0.3422 0.7591
vn -0.9880 -0.1547 0.0000
vn -0.8930 0.3423 0.2921
vn -0.8930 0.3423 -0.2921
vn -0.3053 -0.1547 -0.9396
vn -0.5538 0.3422 -0.7591
vn 0.0018 0.3422 -0.9396
vn 0.7993 -0.1547 -0.5807
vn 0.5508 0.3422 -0.7612
vn 0.8942 0.3423 -0.2886
vn 0.3991 0.6457 0.6510
vn 0.7425 0.6457 0.1784
vn 0.2455 0.9528 0.1784
vn -0.4958 0.6457 0.5807
vn 0.0598 0.6457 0.7612
vn -0.0938 0.9528 0.2886
vn -0.7055 0.6457 -0.2921
vn -0.7055 0.6457 0.2921
vn -0.3035 0.9528 0.0000
vn 0.0598 0.6457 -0.7612
vn -0.4958 0.6457 -0.5807
vn -0.0938 0.9528 -0.2886
vn 0.7425 0.6457 -0.1784
vn 0.3991 0.6457 -0.6510
vn 0.2455 0.9528 -0.1784
usemtl None
s off
f 49/1/43 62/2/43 91/3/43 61/4/43
f 50/5/44 63/6/44 91/3/44 62/2/44
f 51/7/45 61/4/45 91/3/45 63/6/45
f 50/5/46 62/8/46 92/9/46 64/10/46
f 49/11/47 65/12/47 92/9/47 62/8/47
f 54/13/48 64/10/48 92/9/48 65/12/48
f 49/14/49 61/15/49 93/16/49 66/17/49
f 51/18/50 67/19/50 93/16/50 61/15/50
f 52/20/51 66/17/51 93/16/51 67/19/51
f 49/21/52 66/22/52 94/23/52 68/24/52
f 52/20/53 69/25/53 94/23/53 66/22/53
f 53/26/54 68/24/54 94/23/54 69/25/54
f 49/27/55 68/28/55 95/29/55 65/30/55
f 53/26/56 70/31/56 95/29/56 68/28/56
f 54/13/57 65/30/57 95/29/57 70/31/57
f 50/5/58 64/10/58 96/32/58 71/33/58
f 54/13/59 72/34/59 96/32/59 64/10/59
f 59/35/60 71/33/60 96/32/60 72/34/60
f 51/7/61 63/6/61 97/36/61 73/37/61
f 50/5/62 74/38/62 97/36/62 63/6/62
f 55/39/63 73/37/63 97/36/63 74/38/63
f 52/20/64 67/19/64 98/40/64 75/41/64
f 51/18/65 76/42/65 98/40/65 67/19/65
f 56/43/66 75/41/66 98/40/66 76/42/66
f 53/26/67 69/25/67 99/44/67 77/45/67
f 52/20/68 78/46/68 99/44/68 69/25/68
f 57/47/69 77/45/69 99/44/69 78/46/69
f 54/13/70 70/31/70 100/48/70 79/49/70
f 53/26/71 80/50/71 100/48/71 70/31/71
f 58/51/72 79/49/72 100/48/72 80/50/72
f 50/5/73 71/33/73 101/52/73 74/38/73
f 59/35/74 81/53/74 101/52/74 71/33/74
f 55/39/75 74/38/75 101/52/75 81/53/75
f 51/7/76 73/37/76 102/54/76 76/55/76
f 55/39/77 82/56/77 102/54/77 73/37/77
f 56/57/78 76/55/78 102/54/78 82/56/78
f 52/20/79 75/41/79 103/58/79 78/46/79
f 56/43/80 83/59/80 103/58/80 75/41/80
f 57/47/81 78/46/81 103/58/81 83/59/81
f 53/26/82 77/45/82 104/60/82 80/50/82
f 57/47/83 84/61/83 104/60/83 77/45/83
f 58/51/84 80/50/84 104/60/84 84/61/84
f 54/13/85 79/49/85 105/62/85 72/34/85
f 58/51/86 85/63/86 105/62/86 79/49/86
f 59/35/87 72/34/87 105/62/87 85/63/87
f 55/39/88 81/53/88 106/64/88 86/65/88
f 59/35/89 87/66/89 106/64/89 81/53/89
f 60/67/90 86/65/90 106/64/90 87/66/90
f 56/57/91 82/56/91 107/68/91 88/69/91
f 55/39/92 86/70/92 107/68/92 82/56/92
f 60/71/93 88/69/93 107/68/93 86/70/93
f 57/47/94 83/59/94 108/72/94 89/73/94
f 56/43/95 88/74/95 108/72/95 83/59/95
f 60/75/96 89/73/96 108/72/96 88/74/96
f 58/51/97 84/61/97 109/76/97 90/77/97
f 57/47/98 89/78/98 109/76/98 84/61/98
f 60/79/99 90/77/99 109/76/99 89/78/99
f 59/35/100 85/63/100 110/80/100 87/81/100
f 58/51/101 90/82/101 110/80/101 85/63/101
f 60/83/102 87/81/102 110/80/102 90/82/102
