# Blender v2.92.0 OBJ File: 'stump2.blend'
# www.blender.org
mtllib stump0.mtl
o Cube_Cube.001
v 2.094330 -0.524556 -1.787280
v 2.239194 -0.520072 -1.743197
v 2.261864 -0.398079 -1.830104
v 2.117000 -0.402563 -1.874187
v 1.847469 -0.040095 -1.132146
v 2.050155 -0.025507 -1.051935
v 2.054775 0.187034 -1.102265
v 1.852088 0.172446 -1.182476
v 1.426712 -0.299325 -0.404153
v 1.649728 -0.297414 -0.101792
v 1.625850 0.077232 -0.086548
v 1.402834 0.075320 -0.388909
v -1.603581 -0.667065 2.817593
v -1.664988 -0.662069 2.787437
v -1.681151 -0.609939 2.828988
v -1.619743 -0.614936 2.859143
v -0.961516 -0.102096 1.463468
v -1.222433 -0.102366 1.343081
v -1.228320 0.184670 1.355196
v -0.967403 0.184939 1.475584
v 0.207800 1.783739 -0.119454
v 0.378593 1.699794 0.309314
v -0.058199 1.677610 0.478960
v -0.228992 1.761555 0.050192
v -0.305873 3.680829 1.160623
v -0.175838 3.516260 1.334102
v -0.396442 3.357504 1.348859
v -0.526478 3.522074 1.175380
v 1.363608 -0.359312 2.945502
v 1.234619 -0.373519 2.969815
v 1.234201 -0.258574 3.034765
v 1.363190 -0.244366 3.010453
v -1.962278 -0.069214 -0.704934
v -1.846541 -0.056051 -0.797107
v -1.874858 0.089007 -0.811948
v -1.990595 0.075844 -0.719775
v -1.901511 -0.327218 -1.996716
v -1.879314 -0.321792 -1.997677
v -1.884806 -0.300337 -2.003382
v -1.907002 -0.305762 -2.002422
v -1.049980 -0.136982 -0.317094
v -0.887623 -0.133901 -0.687968
v -0.883243 0.270907 -0.682689
v -1.045601 0.267827 -0.311815
v 0.209623 0.907342 -0.464001
v 0.451397 0.824493 0.133857
v -0.147722 0.869638 0.382398
v -0.389496 0.952487 -0.215461
v 1.008359 -0.306279 0.693031
v 0.450852 -0.320786 0.930398
v 0.413422 0.282006 0.879327
v 0.970930 0.296514 0.641960
v 0.820041 -0.018900 1.366220
v 0.565423 -0.039581 1.406796
v 0.550083 0.216350 1.440981
v 0.804701 0.237030 1.400405
v 1.023866 -0.247647 1.841081
v 0.795510 -0.286538 1.948459
v 0.764518 -0.034382 1.973877
v 0.992874 0.004509 1.866499
v 1.243688 -0.037123 2.320063
v 1.064895 -0.068088 2.387767
v 1.041721 0.122437 2.413708
v 1.220515 0.153402 2.346005
v -1.154083 -0.204320 2.234708
v -1.425852 -0.200384 2.131756
v -1.464348 0.065132 2.243525
v -1.192579 0.061196 2.346477
v 0.169184 3.002587 0.084109
v 0.330921 2.843604 0.424398
v -0.036383 2.699234 0.531525
v -0.198120 2.858216 0.191237
v -1.957870 -0.129764 -1.000888
v -1.839272 -0.100773 -1.006019
v -1.868613 0.013866 -1.036504
v -1.987212 -0.015125 -1.031374
v -1.950521 -0.155513 -1.130750
v -1.844494 -0.129595 -1.135337
v -1.870725 -0.027108 -1.162591
v -1.976752 -0.053026 -1.158004
v -1.944644 -0.176102 -1.234588
v -1.848669 -0.152642 -1.238740
v -1.872414 -0.059871 -1.263410
v -1.968389 -0.083331 -1.259258
v -1.939557 -0.193924 -1.324469
v -1.852283 -0.172590 -1.328244
v -1.873875 -0.088230 -1.350678
v -1.961149 -0.109564 -1.346903
v -1.934987 -0.209935 -1.405219
v -1.855530 -0.190512 -1.408656
v -1.875188 -0.113708 -1.429081
v -1.954645 -0.133131 -1.425643
v -1.930791 -0.224637 -1.479367
v -1.858512 -0.206969 -1.482493
v -1.876394 -0.137103 -1.501073
v -1.948673 -0.154771 -1.497946
v -1.926881 -0.238333 -1.548439
v -1.861289 -0.222299 -1.551277
v -1.877517 -0.158897 -1.568137
v -1.943109 -0.174930 -1.565300
v -1.923202 -0.251222 -1.613445
v -1.863903 -0.236727 -1.616010
v -1.878574 -0.179407 -1.631253
v -1.937873 -0.193903 -1.628688
v -1.919713 -0.263446 -1.675092
v -1.866382 -0.250409 -1.677399
v -1.879576 -0.198858 -1.691108
v -1.932908 -0.211895 -1.688801
v -1.916385 -0.275107 -1.733902
v -1.868747 -0.263462 -1.735963
v -1.880533 -0.217414 -1.748208
v -1.928171 -0.229059 -1.746147
v -1.913195 -0.286284 -1.790271
v -1.871013 -0.275973 -1.792095
v -1.881449 -0.235199 -1.802938
v -1.923631 -0.245510 -1.801114
v -1.910125 -0.297038 -1.844510
v -1.873194 -0.288011 -1.846107
v -1.882331 -0.252313 -1.855600
v -1.919262 -0.261340 -1.854003
v -1.907162 -0.307420 -1.896868
v -1.875299 -0.299631 -1.898246
v -1.883182 -0.268832 -1.906436
v -1.915045 -0.276621 -1.905058
v -1.904294 -0.317469 -1.947547
v -1.877337 -0.310879 -1.948713
v -1.884006 -0.284823 -1.955642
v -1.910963 -0.291412 -1.954476
v -1.367015 -0.108328 -0.451074
v -1.287024 -0.106968 -0.745893
v -1.304407 0.198001 -0.749203
v -1.384398 0.196641 -0.454383
v -1.584506 -0.091540 -0.541207
v -1.520285 -0.090448 -0.777905
v -1.534241 0.154398 -0.780562
v -1.598462 0.153306 -0.543864
v -1.768561 -0.077333 -0.617484
v -1.717685 -0.076468 -0.804995
v -1.728741 0.117498 -0.807100
v -1.779617 0.116633 -0.619589
v 1.270175 -0.116003 2.467839
v 1.096519 -0.135130 2.500570
v 1.095955 0.019618 2.588012
v 1.269611 0.038746 2.555281
v 1.295928 -0.183066 2.599498
v 1.134584 -0.200838 2.629909
v 1.134060 -0.057060 2.711151
v 1.295404 -0.039289 2.680740
v 1.319616 -0.244751 2.720598
v 1.169596 -0.261275 2.748874
v 1.169109 -0.127589 2.824414
v 1.319129 -0.111065 2.796138
v 1.342055 -0.303184 2.835313
v 1.202762 -0.318527 2.861567
v 1.202310 -0.194399 2.931706
v 1.341603 -0.179057 2.905451
v 1.897895 -0.147458 -1.265744
v 2.090415 -0.141498 -1.207160
v 2.120542 0.020626 -1.322656
v 1.928023 0.014667 -1.381240
v 1.951849 -0.251032 -1.408990
v 2.131279 -0.245478 -1.354389
v 2.159358 -0.094376 -1.462033
v 1.979928 -0.099930 -1.516634
v 2.001628 -0.346595 -1.541155
v 2.168982 -0.341415 -1.490229
v 2.195171 -0.200483 -1.590628
v 2.027817 -0.205663 -1.641554
v 2.048877 -0.437300 -1.666603
v 2.204768 -0.432475 -1.619164
v 2.229164 -0.301196 -1.712687
v 2.073273 -0.306021 -1.760125
v 1.547556 -0.218792 -0.631330
v 1.835528 -0.196701 -0.486331
v 1.788919 0.120007 -0.442015
v 1.500947 0.097917 -0.587014
v 1.665501 -0.153682 -0.832749
v 1.919296 -0.134213 -0.704958
v 1.878219 0.144908 -0.665902
v 1.624424 0.125439 -0.793693
v 1.771153 -0.095359 -1.013176
v 1.994334 -0.078238 -0.900801
v 1.958212 0.167214 -0.866456
v 1.735031 0.150093 -0.978831
v 0.571053 -0.411343 -0.442262
v 0.647553 -0.405309 0.212257
v 0.602945 0.359699 0.197774
v 0.608369 0.285971 -0.448393
v 1.065558 -0.350410 -0.435132
v 1.150498 -0.350410 0.081865
v 1.178494 0.172750 0.077266
v 1.093554 0.172750 -0.439732
v -1.090275 -0.173554 1.979915
v -1.370421 -0.178358 1.906923
v -1.384400 0.108747 1.941678
v -1.104254 0.113551 2.014669
v -1.019516 -0.136120 1.703702
v -1.298603 -0.140906 1.630986
v -1.312528 0.145113 1.665610
v -1.033442 0.149899 1.738325
v -0.870226 -0.138384 1.392307
v -1.155975 -0.138384 1.192426
v -1.148703 0.210103 1.182030
v -0.862954 0.210103 1.381911
v -0.471862 -0.269138 1.016746
v -0.939791 -0.269138 0.689431
v -0.927883 0.301529 0.672407
v -0.459954 0.301529 0.999722
v 0.211915 1.434847 -0.265900
v 0.410816 1.295144 0.228006
v -0.101721 1.269664 0.427202
v -0.300621 1.409366 -0.066704
v -0.004355 3.278834 0.479801
v 0.170417 3.057646 0.712965
v -0.126084 2.844273 0.732799
v -0.300856 3.065461 0.499636
v -0.112770 3.423378 0.724601
v 0.045916 3.222548 0.936304
v -0.223295 3.028813 0.954313
v -0.381982 3.229643 0.742610
v -0.212068 3.555765 0.948813
v -0.068115 3.373581 1.140861
v -0.312332 3.197834 1.157198
v -0.456285 3.380018 0.965150
v -0.832080 -0.279679 -0.044714
v -0.498268 -0.279679 -0.576957
v -0.451632 0.346167 -0.547708
v -0.785445 0.346167 -0.015465
v 0.166178 0.416585 -0.530108
v -0.243070 0.564648 0.507324
v -0.553475 0.564648 -0.225128
v 0.095505 -0.399275 0.746321
v 0.091475 0.368120 0.742668
v 0.907044 -0.121013 1.203293
v 0.514412 -0.154585 1.192896
v 0.483232 0.231967 1.122184
v 0.875865 0.265539 1.132582
v 0.872883 -0.081886 1.476299
v 0.631796 -0.115059 1.560576
v 0.637652 0.118373 1.669210
v 0.878739 0.151546 1.584932
v 0.941955 -0.161218 1.644360
v 0.701908 -0.194248 1.728274
v 0.707739 0.038178 1.836439
v 0.947786 0.071208 1.752525
v 1.119892 -0.163479 2.048338
v 0.923410 -0.195158 2.167289
v 0.857664 0.021264 2.116329
v 1.054146 0.052943 1.997378
v 1.188155 -0.096948 2.198008
v 1.008364 -0.125937 2.306854
v 0.948203 0.072100 2.260222
v 1.127993 0.101089 2.151376
v -1.596801 -0.660023 2.808685
v -1.661146 -0.654788 2.777088
v -1.678082 -0.600164 2.820626
v -1.613737 -0.605399 2.852223
v -1.561942 -0.623816 2.762890
v -1.641394 -0.617352 2.723874
v -1.662306 -0.549904 2.777633
v -1.582854 -0.556367 2.816649
v -1.483187 -0.542014 2.659425
v -1.596768 -0.532773 2.603650
v -1.626663 -0.436352 2.680503
v -1.513082 -0.445593 2.736278
v -1.347860 -0.401452 2.481641
v -1.520087 -0.387441 2.397067
v -1.565418 -0.241235 2.513601
v -1.393191 -0.255246 2.598175
v 0.198575 2.165218 -0.062446
v 0.361775 2.119089 0.351765
v -0.054984 2.097468 0.513560
v -0.218183 2.143597 0.099349
v 0.190267 2.529560 -0.007982
v 0.346303 2.485456 0.388046
v -0.052161 2.464784 0.542739
v -0.208197 2.508887 0.146711
vn -0.1327 -0.9728 0.1897
vn -0.9684 -0.2493 -0.0054
vn 0.2544 -0.9455 0.2030
vn -0.1245 -0.9922 -0.0040
vn 0.4315 0.0066 0.9021
vn -0.1020 -0.9943 -0.0307
vn -0.0018 -1.0000 0.0094
vn -0.2389 0.9247 -0.2965
vn 0.9703 0.2246 -0.0892
vn 0.4206 0.0183 0.9071
vn 0.0198 -0.2522 -0.9675
vn 0.2133 -0.4800 0.8509
vn -0.3390 0.5425 0.7687
vn -0.3782 -0.6459 0.6632
vn 0.2408 -0.9494 0.2019
vn -0.9769 -0.2099 0.0398
vn -0.1131 -0.9910 -0.0709
vn -0.2842 0.9144 -0.2884
vn 0.3244 0.9002 0.2906
vn 0.1368 0.8474 0.5131
vn 0.1191 -0.0470 -0.9918
vn 0.1765 -0.0181 -0.9841
vn 0.9769 0.2120 -0.0282
vn -0.7809 0.5561 -0.2845
vn -0.9839 0.0499 -0.1719
vn -0.3026 0.9269 0.2222
vn -0.0764 0.8142 -0.5756
vn 0.2513 -0.5921 -0.7656
vn 0.0233 0.0449 -0.9987
vn 0.2996 0.9482 -0.1057
vn 0.9704 0.2246 -0.0892
vn -0.0689 -0.9971 -0.0317
vn 0.1496 0.0055 -0.9887
vn -0.1712 0.9837 -0.0558
vn -0.3880 -0.0097 0.9216
vn -0.0675 -0.9975 -0.0229
vn 0.1358 -0.0030 -0.9907
vn -0.1804 0.9826 -0.0444
vn -0.3836 -0.0118 0.9234
vn -0.0659 -0.9938 -0.0891
vn -0.0095 -0.0510 -0.9987
vn -0.1746 0.9831 -0.0547
vn -0.4204 -0.0035 0.9073
vn -0.0143 -0.8738 -0.4861
vn -0.9684 -0.1354 0.2095
vn 0.0157 0.8716 0.4899
vn 0.9826 0.1153 -0.1455
vn 0.0121 -0.8900 -0.4557
vn -0.9672 -0.1277 0.2198
vn 0.0058 0.8497 0.5273
vn 0.9851 0.0873 -0.1482
vn -0.1591 -0.8045 0.5722
vn 0.9666 0.0233 0.2553
vn 0.1583 0.8062 -0.5700
vn -0.9467 -0.0528 -0.3178
vn -0.1402 -0.8267 0.5449
vn 0.9649 0.0076 0.2624
vn 0.1589 0.7828 -0.6017
vn -0.9463 -0.0515 -0.3192
vn 0.2048 -0.9617 -0.1823
vn 0.8991 0.0542 0.4344
vn -0.1056 0.9921 0.0674
vn -0.8830 -0.0498 -0.4667
vn 0.1779 -0.9621 -0.2068
vn 0.9224 0.0830 0.3771
vn -0.1096 0.9917 0.0666
vn -0.8541 -0.0533 -0.5174
vn 0.1964 -0.9398 -0.2797
vn 0.9227 0.0767 0.3778
vn -0.0961 0.9942 0.0487
vn -0.8470 -0.0766 -0.5261
vn 0.1141 -0.9934 -0.0106
vn 0.2286 0.0174 0.9734
vn 0.2637 0.9614 -0.0790
vn 0.0156 -0.0096 -0.9998
vn 0.1130 -0.9928 -0.0401
vn 0.3441 -0.0127 0.9389
vn 0.2335 0.9682 -0.0900
vn 0.1219 0.0112 -0.9925
vn 0.0338 -0.9943 -0.1010
vn -0.9675 -0.0251 -0.2518
vn -0.0455 0.9894 0.1378
vn 0.9668 0.0244 0.2542
vn 0.0488 -0.9913 -0.1219
vn -0.9671 -0.0163 -0.2539
vn -0.0478 0.9918 0.1182
vn 0.9680 0.0168 0.2503
vn 0.0531 -0.9910 -0.1227
vn -0.9654 -0.0121 -0.2604
vn -0.0507 0.9920 0.1158
vn 0.9704 0.0139 0.2412
vn -0.1299 -0.9662 0.2226
vn -0.9115 0.0031 -0.4113
vn -0.0785 0.9880 0.1332
vn 0.6440 -0.0035 0.7650
vn -0.1358 -0.9715 0.1942
vn -0.9180 0.0073 -0.3965
vn -0.0950 0.9862 0.1358
vn 0.6872 0.0073 0.7264
vn 0.9279 0.1371 -0.3466
vn 0.3672 -0.1488 0.9182
vn -0.9215 0.0583 0.3839
vn -0.3461 0.3401 -0.8744
vn 0.9300 0.1467 -0.3371
vn 0.3645 -0.1554 0.9181
vn -0.9222 0.0548 0.3828
vn -0.3537 0.3586 -0.8639
vn 0.7876 0.6137 -0.0553
vn 0.4486 -0.5960 0.6660
vn -0.8110 -0.5776 0.0930
vn -0.4613 0.6365 -0.6181
vn 0.7905 0.6124 -0.0115
vn 0.4582 -0.5736 0.6790
vn -0.8280 -0.5523 0.0967
vn -0.4958 0.6337 -0.5938
vn -0.3257 -0.9278 -0.1821
vn 0.2884 0.0178 -0.9573
vn -0.1641 0.9826 -0.0868
vn -0.7645 0.0163 0.6444
vn 0.8899 0.1017 -0.4447
vn 0.3860 0.2463 0.8890
vn -0.8461 0.3790 0.3748
vn -0.3612 0.1644 -0.9179
vn 0.1087 -0.9834 0.1455
vn -0.4277 0.0231 0.9036
vn 0.0962 0.9856 0.1391
vn 0.7850 0.0174 -0.6192
vn 0.1447 -0.8980 0.4155
vn -0.9643 -0.0346 0.2624
vn -0.0243 0.9938 0.1089
vn 0.9798 0.0899 0.1784
vn 0.0955 -0.8585 0.5038
vn -0.9724 -0.0576 0.2259
vn -0.0799 0.9940 0.0742
vn 0.9399 0.0868 0.3303
vn -0.0188 -0.8888 -0.4579
vn -0.9383 -0.1135 0.3266
vn 0.0028 0.9142 0.4053
vn 0.9322 0.1179 -0.3421
vn -0.0218 -0.9075 -0.4194
vn -0.9351 -0.1299 0.3296
vn 0.0237 0.9053 0.4242
vn 0.9371 0.1277 -0.3249
vn -0.0169 -0.9215 -0.3879
vn -0.9341 -0.1391 0.3287
vn 0.0550 0.8827 0.4666
vn 0.9387 0.1360 -0.3167
vn 0.2803 -0.9304 0.2360
vn -0.8187 -0.1386 0.5573
vn -0.2669 0.9411 -0.2076
vn 0.8713 0.1545 -0.4659
vn 0.3081 -0.9135 0.2656
vn -0.8212 -0.1180 0.5584
vn -0.2582 0.9504 -0.1733
vn 0.8711 0.1549 -0.4661
vn 0.3154 -0.8861 0.3396
vn -0.8029 -0.1413 0.5792
vn -0.2371 0.9589 -0.1560
vn 0.8707 0.1620 -0.4644
vn 0.1865 -0.8348 -0.5180
vn -0.9355 -0.0085 -0.3532
vn -0.2811 0.6732 0.6839
vn 0.8409 -0.1530 0.5191
vn 0.1865 -0.8348 -0.5181
vn 0.1861 -0.8334 -0.5204
vn -0.9392 -0.0008 -0.3434
vn -0.2575 0.6908 0.6757
vn 0.8368 -0.1252 0.5330
vn 0.9310 0.0747 -0.3573
vn 0.3644 -0.0793 0.9279
vn -0.9306 -0.0219 0.3653
vn -0.3647 0.1290 -0.9221
vn 0.9306 0.0748 -0.3583
vn 0.3643 -0.0765 0.9281
vn -0.9310 -0.0218 0.3644
vn -0.3647 0.1295 -0.9221
vn 0.9233 0.0979 -0.3715
vn 0.3310 -0.0402 0.9428
vn -0.9162 0.0177 0.4003
vn -0.3485 0.1491 -0.9254
usemtl None
s off
f 232//1 205//1 206//1
f 80//2 77//2 73//2 76//2
f 73//3 74//3 34//3 33//3
f 225//4 232//4 206//4
f 233//5 205//5 232//5
f 225//6 185//6 232//6
f 185//7 186//7 232//7
f 79//8 80//8 76//8 75//8
f 78//9 79//9 75//9 74//9
f 233//10 208//10 205//10
f 40//11 39//11 38//11 37//11
f 32//12 31//12 30//12 29//12
f 28//13 27//13 26//13 25//13
f 16//14 15//14 14//14 13//14
f 77//15 78//15 74//15 73//15
f 76//16 73//16 33//16 36//16
f 226//17 185//17 225//17
f 75//18 76//18 36//18 35//18
f 187//19 230//19 233//19
f 230//20 208//20 233//20
f 226//21 229//21 185//21
f 229//22 188//22 185//22
f 74//23 75//23 35//23 34//23
f 227//24 228//24 207//24 231//24
f 228//25 225//25 206//25 207//25
f 230//26 231//26 207//26 208//26
f 229//27 227//27 231//27
f 4//28 3//28 2//28 1//28
f 227//29 229//29 226//29
f 188//30 229//30 187//30
f 81//15 82//15 78//15 77//15
f 82//9 83//9 79//9 78//9
f 83//8 84//8 80//8 79//8
f 84//2 81//2 77//2 80//2
f 85//15 86//15 82//15 81//15
f 86//9 87//9 83//9 82//9
f 87//8 88//8 84//8 83//8
f 88//2 85//2 81//2 84//2
f 89//15 90//15 86//15 85//15
f 90//9 91//9 87//9 86//9
f 91//8 92//8 88//8 87//8
f 92//2 89//2 85//2 88//2
f 93//15 94//15 90//15 89//15
f 94//9 95//9 91//9 90//9
f 95//8 96//8 92//8 91//8
f 96//2 93//2 89//2 92//2
f 97//15 98//15 94//15 93//15
f 98//9 99//9 95//9 94//9
f 99//8 100//8 96//8 95//8
f 100//2 97//2 93//2 96//2
f 101//15 102//15 98//15 97//15
f 102//31 103//31 99//31 98//31
f 103//8 104//8 100//8 99//8
f 104//2 101//2 97//2 100//2
f 105//15 106//15 102//15 101//15
f 106//9 107//9 103//9 102//9
f 107//8 108//8 104//8 103//8
f 108//2 105//2 101//2 104//2
f 109//15 110//15 106//15 105//15
f 110//9 111//9 107//9 106//9
f 111//8 112//8 108//8 107//8
f 112//2 109//2 105//2 108//2
f 113//15 114//15 110//15 109//15
f 114//9 115//9 111//9 110//9
f 115//8 116//8 112//8 111//8
f 116//2 113//2 109//2 112//2
f 117//15 118//15 114//15 113//15
f 118//31 119//31 115//31 114//31
f 119//8 120//8 116//8 115//8
f 120//2 117//2 113//2 116//2
f 121//15 122//15 118//15 117//15
f 122//9 123//9 119//9 118//9
f 123//8 124//8 120//8 119//8
f 124//2 121//2 117//2 120//2
f 125//15 126//15 122//15 121//15
f 126//31 127//31 123//31 122//31
f 127//8 128//8 124//8 123//8
f 128//2 125//2 121//2 124//2
f 37//15 38//15 126//15 125//15
f 38//31 39//31 127//31 126//31
f 39//8 40//8 128//8 127//8
f 40//2 37//2 125//2 128//2
f 129//32 130//32 42//32 41//32
f 130//33 131//33 43//33 42//33
f 131//34 132//34 44//34 43//34
f 132//35 129//35 41//35 44//35
f 133//36 134//36 130//36 129//36
f 134//37 135//37 131//37 130//37
f 135//38 136//38 132//38 131//38
f 136//39 133//39 129//39 132//39
f 137//36 138//36 134//36 133//36
f 138//37 139//37 135//37 134//37
f 139//38 140//38 136//38 135//38
f 140//39 137//39 133//39 136//39
f 33//40 34//40 138//40 137//40
f 34//41 35//41 139//41 138//41
f 35//42 36//42 140//42 139//42
f 36//43 33//43 137//43 140//43
f 141//44 142//44 62//44 61//44
f 142//45 143//45 63//45 62//45
f 143//46 144//46 64//46 63//46
f 144//47 141//47 61//47 64//47
f 145//48 146//48 142//48 141//48
f 146//49 147//49 143//49 142//49
f 147//50 148//50 144//50 143//50
f 148//51 145//51 141//51 144//51
f 149//48 150//48 146//48 145//48
f 150//49 151//49 147//49 146//49
f 151//50 152//50 148//50 147//50
f 152//51 149//51 145//51 148//51
f 153//48 154//48 150//48 149//48
f 154//49 155//49 151//49 150//49
f 155//50 156//50 152//50 151//50
f 156//51 153//51 149//51 152//51
f 29//48 30//48 154//48 153//48
f 30//49 31//49 155//49 154//49
f 31//50 32//50 156//50 155//50
f 32//51 29//51 153//51 156//51
f 157//52 158//52 6//52 5//52
f 158//53 159//53 7//53 6//53
f 159//54 160//54 8//54 7//54
f 160//55 157//55 5//55 8//55
f 161//56 162//56 158//56 157//56
f 162//57 163//57 159//57 158//57
f 163//58 164//58 160//58 159//58
f 164//59 161//59 157//59 160//59
f 165//56 166//56 162//56 161//56
f 166//57 167//57 163//57 162//57
f 167//58 168//58 164//58 163//58
f 168//59 165//59 161//59 164//59
f 169//56 170//56 166//56 165//56
f 170//57 171//57 167//57 166//57
f 171//58 172//58 168//58 167//58
f 172//59 169//59 165//59 168//59
f 1//56 2//56 170//56 169//56
f 2//57 3//57 171//57 170//57
f 3//58 4//58 172//58 171//58
f 4//59 1//59 169//59 172//59
f 173//60 174//60 10//60 9//60
f 174//61 175//61 11//61 10//61
f 175//62 176//62 12//62 11//62
f 176//63 173//63 9//63 12//63
f 177//64 178//64 174//64 173//64
f 178//65 179//65 175//65 174//65
f 179//66 180//66 176//66 175//66
f 180//67 177//67 173//67 176//67
f 181//64 182//64 178//64 177//64
f 182//65 183//65 179//65 178//65
f 183//66 184//66 180//66 179//66
f 184//67 181//67 177//67 180//67
f 5//68 6//68 182//68 181//68
f 6//69 7//69 183//69 182//69
f 7//70 8//70 184//70 183//70
f 8//71 5//71 181//71 184//71
f 189//72 190//72 186//72 185//72
f 190//73 191//73 187//73 186//73
f 191//74 192//74 188//74 187//74
f 192//75 189//75 185//75 188//75
f 9//76 10//76 190//76 189//76
f 10//77 11//77 191//77 190//77
f 11//78 12//78 192//78 191//78
f 12//79 9//79 189//79 192//79
f 65//80 66//80 194//80 193//80
f 66//81 67//81 195//81 194//81
f 67//82 68//82 196//82 195//82
f 68//83 65//83 193//83 196//83
f 193//84 194//84 198//84 197//84
f 194//85 195//85 199//85 198//85
f 195//86 196//86 200//86 199//86
f 196//87 193//87 197//87 200//87
f 197//88 198//88 18//88 17//88
f 198//89 199//89 19//89 18//89
f 199//90 200//90 20//90 19//90
f 200//91 197//91 17//91 20//91
f 17//92 18//92 202//92 201//92
f 18//93 19//93 203//93 202//93
f 19//94 20//94 204//94 203//94
f 20//95 17//95 201//95 204//95
f 201//96 202//96 206//96 205//96
f 202//97 203//97 207//97 206//97
f 203//98 204//98 208//98 207//98
f 204//99 201//99 205//99 208//99
f 209//100 210//100 46//100 45//100
f 210//101 211//101 47//101 46//101
f 211//102 212//102 48//102 47//102
f 212//103 209//103 45//103 48//103
f 21//104 22//104 210//104 209//104
f 22//105 23//105 211//105 210//105
f 23//106 24//106 212//106 211//106
f 24//107 21//107 209//107 212//107
f 213//108 214//108 70//108 69//108
f 214//109 215//109 71//109 70//109
f 215//110 216//110 72//110 71//110
f 216//111 213//111 69//111 72//111
f 217//112 218//112 214//112 213//112
f 218//113 219//113 215//113 214//113
f 219//114 220//114 216//114 215//114
f 220//115 217//115 213//115 216//115
f 221//112 222//112 218//112 217//112
f 222//113 223//113 219//113 218//113
f 223//114 224//114 220//114 219//114
f 224//115 221//115 217//115 220//115
f 25//112 26//112 222//112 221//112
f 26//113 27//113 223//113 222//113
f 27//114 28//114 224//114 223//114
f 28//115 25//115 221//115 224//115
f 41//116 42//116 226//116 225//116
f 42//117 43//117 227//117 226//117
f 43//118 44//118 228//118 227//118
f 44//119 41//119 225//119 228//119
f 45//120 46//120 187//120 229//120
f 46//121 47//121 230//121 187//121
f 47//122 48//122 231//122 230//122
f 48//123 45//123 229//123 231//123
f 49//124 50//124 232//124 186//124
f 50//125 51//125 233//125 232//125
f 51//126 52//126 187//126 233//126
f 52//127 49//127 186//127 187//127
f 234//128 235//128 50//128 49//128
f 235//129 236//129 51//129 50//129
f 236//130 237//130 52//130 51//130
f 237//131 234//131 49//131 52//131
f 53//132 54//132 235//132 234//132
f 54//133 55//133 236//133 235//133
f 55//134 56//134 237//134 236//134
f 56//135 53//135 234//135 237//135
f 238//136 239//136 54//136 53//136
f 239//137 240//137 55//137 54//137
f 240//138 241//138 56//138 55//138
f 241//139 238//139 53//139 56//139
f 242//140 243//140 239//140 238//140
f 243//141 244//141 240//141 239//141
f 244//142 245//142 241//142 240//142
f 245//143 242//143 238//143 241//143
f 57//144 58//144 243//144 242//144
f 58//145 59//145 244//145 243//145
f 59//146 60//146 245//146 244//146
f 60//147 57//147 242//147 245//147
f 246//148 247//148 58//148 57//148
f 247//149 248//149 59//149 58//149
f 248//150 249//150 60//150 59//150
f 249//151 246//151 57//151 60//151
f 250//152 251//152 247//152 246//152
f 251//153 252//153 248//153 247//153
f 252//154 253//154 249//154 248//154
f 253//155 250//155 246//155 249//155
f 61//156 62//156 251//156 250//156
f 62//157 63//157 252//157 251//157
f 63//158 64//158 253//158 252//158
f 64//159 61//159 250//159 253//159
f 13//160 14//160 255//160 254//160
f 14//161 15//161 256//161 255//161
f 15//162 16//162 257//162 256//162
f 16//163 13//163 254//163 257//163
f 254//160 255//160 259//160 258//160
f 255//161 256//161 260//161 259//161
f 256//162 257//162 261//162 260//162
f 257//163 254//163 258//163 261//163
f 258//164 259//164 263//164 262//164
f 259//161 260//161 264//161 263//161
f 260//162 261//162 265//162 264//162
f 261//163 258//163 262//163 265//163
f 262//164 263//164 267//164 266//164
f 263//161 264//161 268//161 267//161
f 264//162 265//162 269//162 268//162
f 265//163 262//163 266//163 269//163
f 266//165 267//165 66//165 65//165
f 267//166 268//166 67//166 66//166
f 268//167 269//167 68//167 67//167
f 269//168 266//168 65//168 68//168
f 270//169 271//169 22//169 21//169
f 271//170 272//170 23//170 22//170
f 272//171 273//171 24//171 23//171
f 273//172 270//172 21//172 24//172
f 274//173 275//173 271//173 270//173
f 275//174 276//174 272//174 271//174
f 276//175 277//175 273//175 272//175
f 277//176 274//176 270//176 273//176
f 69//177 70//177 275//177 274//177
f 70//178 71//178 276//178 275//178
f 71//179 72//179 277//179 276//179
f 72//180 69//180 274//180 277//180
