# Blender v2.92.0 OBJ File: ''
# www.blender.org
mtllib stump3.mtl
o Cube
v -2.627959 -0.306384 0.657569
v -2.589871 -0.306923 0.159022
v -2.574477 0.192840 0.159658
v -2.612566 0.193378 0.658205
v -1.547474 -0.167850 1.484319
v -1.949456 -0.172574 1.187018
v -1.983625 0.324785 1.225315
v -1.581643 0.329509 1.522616
v 3.010008 -0.295755 -0.292475
v 3.022120 -0.295755 -0.111701
v 3.034349 -0.114990 -0.112520
v 3.022237 -0.114990 -0.293295
v 0.261158 -0.562763 -2.429034
v 0.400845 -0.562763 -2.409925
v 0.404610 -0.424540 -2.437451
v 0.264924 -0.424540 -2.456560
v 0.377660 8.312355 -0.464132
v 0.843285 8.248619 -0.293453
v 0.668043 8.220072 0.173960
v 0.202418 8.283808 0.003282
v 0.006307 5.675920 -0.953305
v 0.806443 5.606793 -0.658669
v 0.510524 5.602587 0.143964
v -0.289612 5.671714 -0.150672
v -0.151465 2.545253 -0.864098
v 0.670995 2.530406 -0.563238
v 0.372409 2.605771 0.256727
v -0.450052 2.620617 -0.044132
v -2.127255 -0.211638 -1.855248
v -1.701328 -0.207353 -2.117103
v -1.729448 0.290438 -2.154696
v -2.155374 0.286153 -1.892841
v -5.533251 -0.052552 -0.263728
v -5.410278 -0.060211 -0.748309
v -5.466654 0.436107 -0.770461
v -5.589628 0.443766 -0.285879
v -6.974136 -0.414281 -0.671122
v -6.932228 -0.420560 -0.888414
v -6.999907 -0.210641 -0.907533
v -7.041815 -0.204362 -0.690241
v -2.103894 -0.355169 2.661690
v -2.328759 -0.368719 2.576804
v -2.360664 -0.134817 2.623983
v -2.135798 -0.121267 2.708869
v -2.573836 -0.391075 -3.688814
v -2.448164 -0.385766 -3.733067
v -2.461752 -0.255113 -3.755980
v -2.587423 -0.260422 -3.711727
v -2.278453 -0.271954 -2.460863
v -1.918308 -0.256741 -2.587681
v -1.957247 0.117679 -2.653345
v -2.317392 0.102466 -2.526527
v -2.355590 -0.303062 -2.781535
v -2.056677 -0.290435 -2.886791
v -2.088995 0.020327 -2.941291
v -2.387909 0.007700 -2.836035
v -2.419152 -0.328695 -3.045770
v -2.170693 -0.318199 -3.133259
v -2.197556 -0.059892 -3.178560
v -2.446015 -0.070388 -3.091070
v -2.475242 -0.351314 -3.278946
v -2.271308 -0.342700 -3.350757
v -2.293357 -0.130682 -3.387940
v -2.497292 -0.139296 -3.316129
v -2.526360 -0.371929 -3.491451
v -2.363003 -0.365028 -3.548974
v -2.380665 -0.195196 -3.578758
v -2.544022 -0.202097 -3.521235
v -1.715561 -0.223710 1.847973
v -2.095872 -0.246626 1.704408
v -2.149831 0.148967 1.784201
v -1.769520 0.171884 1.927766
v -1.860948 -0.272926 2.152619
v -2.183062 -0.292336 2.031022
v -2.228764 0.042722 2.098605
v -1.906650 0.062132 2.220201
v -1.987782 -0.315863 2.418388
v -2.259126 -0.332213 2.315957
v -2.297624 -0.049965 2.372887
v -2.026280 -0.033615 2.475318
v -5.941627 -0.155963 -0.381968
v -5.863494 -0.167669 -0.787084
v -5.989675 0.223698 -0.822729
v -6.067807 0.235405 -0.417613
v -6.247049 -0.232375 -0.467501
v -6.179632 -0.242476 -0.817058
v -6.288507 0.095218 -0.847814
v -6.355925 0.105319 -0.498258
v -6.510777 -0.298355 -0.541358
v -6.452613 -0.307070 -0.842940
v -6.546546 -0.015723 -0.869475
v -6.604711 -0.007008 -0.567894
v -6.750621 -0.358360 -0.608526
v -6.700871 -0.365814 -0.866478
v -6.781214 -0.116616 -0.889175
v -6.830964 -0.109162 -0.631223
v -3.111560 -0.266870 0.511777
v -2.960019 -0.273950 0.035347
v -2.919087 0.224340 0.040962
v -3.070627 0.231420 0.517392
v -3.525665 -0.231363 0.379533
v -3.374124 -0.238443 -0.096897
v -3.333192 0.259847 -0.091282
v -3.484732 0.266927 0.385148
v -3.939770 -0.195856 0.247289
v -3.788229 -0.202936 -0.229141
v -3.747297 0.295354 -0.223526
v -3.898837 0.302434 0.252904
v -4.353875 -0.160349 0.115045
v -4.202334 -0.167429 -0.361385
v -4.161401 0.330861 -0.355770
v -4.312942 0.337941 0.120660
v -4.767980 -0.124842 -0.017199
v -4.616439 -0.131922 -0.493629
v -4.575506 0.366368 -0.488014
v -4.727047 0.373448 -0.011584
v -5.182085 -0.089335 -0.149443
v -5.030544 -0.096415 -0.625873
v -4.989611 0.401876 -0.620258
v -5.141152 0.408955 -0.143828
v -0.951704 -0.395654 -0.336112
v -0.386604 -0.379078 -0.968498
v -0.378894 0.406285 -0.960481
v -0.956211 0.389656 -0.330790
v -1.381407 -0.316712 -0.945966
v -0.891449 -0.316712 -1.417200
v -0.884776 0.363014 -1.410261
v -1.374734 0.363014 -0.939027
v -1.760660 -0.261540 -1.407700
v -1.338063 -0.261540 -1.814147
v -1.332307 0.324735 -1.808162
v -1.754903 0.324735 -1.401715
v -0.844231 -0.388808 0.346186
v -0.845540 0.373028 0.530358
v -1.468482 -0.373178 0.574742
v -1.573974 -0.373178 -0.096817
v -1.588450 0.306459 -0.094543
v -1.482958 0.306459 0.577016
v -2.034366 -0.338629 0.616331
v -2.125355 -0.338629 0.037100
v -2.137841 0.247569 0.039062
v -2.046852 0.247569 0.618292
v -0.381488 -0.365384 0.787762
v -0.837691 0.419569 0.147791
v -0.359531 0.419569 0.770913
v -0.840009 -0.293579 1.073030
v -1.253854 -0.293579 0.533722
v -1.234850 0.385793 0.519140
v -0.821005 0.385793 1.058448
v -1.245642 -0.230056 1.325395
v -1.602590 -0.230056 0.860233
v -1.586199 0.355914 0.847655
v -1.229251 0.355914 1.312817
v 0.991889 -0.408162 -0.405663
v 1.037142 -0.408162 0.269710
v 1.082829 0.267174 0.266649
v 1.037577 0.267174 -0.408724
v 1.532292 -0.378062 -0.375354
v 1.568671 -0.378062 0.167577
v 1.605399 0.164840 0.165117
v 1.569020 0.164840 -0.377815
v 1.968991 -0.353739 -0.350862
v 1.998199 -0.353739 0.085044
v 2.027687 0.082144 0.083068
v 1.998479 0.082144 -0.352837
v 2.349567 -0.332541 -0.329517
v 2.372525 -0.332541 0.013118
v 2.395704 0.010075 0.011565
v 2.372746 0.010075 -0.331070
v 2.693204 -0.313401 -0.310244
v 2.710519 -0.313401 -0.051827
v 2.728000 -0.054998 -0.052998
v 2.710685 -0.054998 -0.311415
v 0.259580 -0.562540 -2.423776
v 0.400952 -0.562540 -2.404435
v 0.404764 -0.422650 -2.432295
v 0.263392 -0.422650 -2.451635
v 0.238884 -0.559622 -2.354811
v 0.402365 -0.559622 -2.332446
v 0.406772 -0.397855 -2.364662
v 0.243292 -0.397855 -2.387027
v 0.156362 -0.547987 -2.079823
v 0.407997 -0.547987 -2.045398
v 0.414780 -0.298990 -2.094986
v 0.163146 -0.298990 -2.129412
v -0.053274 -0.518431 -1.381256
v 0.422303 -0.518431 -1.316194
v 0.435125 -0.047836 -1.409913
v -0.040452 -0.047836 -1.474975
v 0.132598 6.583205 -0.788344
v 0.818865 6.489266 -0.536787
v 0.560583 6.447191 0.152117
v -0.125685 6.541130 -0.099440
v 0.222306 7.216184 -0.669661
v 0.827804 7.133301 -0.447711
v 0.599920 7.096179 0.160113
v -0.005578 7.179061 -0.061837
v 0.302729 7.783648 -0.563263
v 0.835818 7.710677 -0.367855
v 0.635186 7.677993 0.167281
v 0.102097 7.750965 -0.028127
v -0.111188 3.348044 -0.887744
v 0.705703 3.318482 -0.587866
v 0.407309 3.359818 0.229057
v -0.409582 3.389380 -0.070820
v -0.072684 4.113964 -0.909713
v 0.739416 4.084575 -0.611594
v 0.442772 4.125669 0.200537
v -0.369327 4.155057 -0.097581
v -0.034414 4.875223 -0.931548
v 0.772923 4.846006 -0.635178
v 0.478019 4.886858 0.172191
v -0.329318 4.916075 -0.124179
v -0.236676 0.832345 -0.687993
v 0.623406 0.832345 -0.375121
v 0.312967 0.946286 0.478270
v -0.547115 0.946286 0.165398
v -0.194254 1.683762 -0.775604
v 0.647190 1.683762 -0.469511
v 0.343479 1.795234 0.365386
v -0.497965 1.795234 0.059294
v -0.951704 -0.395654 -0.336112
v -0.378894 0.406285 -0.960481
v -0.956211 0.389656 -0.330790
v -0.359531 0.419569 0.770913
v -0.844231 -0.388808 0.346186
v -0.381488 -0.365384 0.787762
vn -0.9665 -0.0444 0.2530
vn -0.1475 0.9568 -0.2504
vn 0.9070 0.0199 -0.4208
vn -0.7240 0.2063 -0.6583
vn 0.0640 -0.9948 0.0795
vn 0.7229 -0.5754 -0.3825
vn -0.3183 -0.1958 -0.9275
vn -0.3316 -0.2298 0.9150
vn -0.9331 -0.3164 -0.1708
vn -0.7084 0.6027 0.3673
vn -0.2468 0.6920 0.6784
vn 0.1329 -0.1971 -0.9713
vn -0.6171 0.6695 -0.4133
vn 0.2379 0.7181 -0.6541
vn 0.0999 0.6755 -0.7306
vn -0.3374 0.5845 -0.7379
vn 0.7298 0.6795 0.0759
vn 0.7931 0.2493 -0.5557
vn 0.0997 0.9902 0.0978
vn 0.0000 0.0000 1.0000
vn 0.9998 -0.0031 0.0201
vn -0.0094 -0.9976 0.0690
vn -0.0042 -0.9975 0.0710
vn 0.3425 -0.0189 0.9393
vn 0.3310 0.0110 0.9436
vn 0.3372 0.0902 0.9371
vn 0.1516 -0.9816 -0.1163
vn -0.8173 -0.0259 -0.5756
vn 0.7240 -0.2063 0.6583
vn -0.7365 0.1742 -0.6536
vn 0.9955 -0.0676 -0.0667
vn -0.0497 -0.9974 0.0521
vn 0.0700 -0.9944 0.0796
vn 0.9065 0.0203 -0.4217
vn -0.1328 0.9558 -0.2624
vn -0.9693 -0.0589 0.2389
vn 0.0975 -0.9890 -0.1110
vn -0.9553 -0.0559 -0.2904
vn -0.1809 0.9481 0.2615
vn 0.9035 0.0326 0.4274
vn 0.1016 -0.9886 -0.1112
vn -0.9605 -0.0771 -0.2672
vn -0.1624 0.9464 0.2791
vn 0.8997 0.0350 0.4350
vn 0.2247 -0.9718 0.0719
vn 0.1066 -0.0427 -0.9934
vn -0.3691 0.9236 -0.1035
vn -0.2735 0.0064 0.9619
vn 0.2233 -0.9722 0.0712
vn 0.1073 -0.0558 -0.9927
vn -0.3858 0.9170 -0.1009
vn -0.2698 0.0007 0.9629
vn -0.0820 -0.9966 -0.0082
vn 0.3201 -0.0121 -0.9473
vn 0.0836 0.9965 0.0085
vn -0.2904 0.0104 0.9569
vn -0.0819 -0.9966 -0.0112
vn 0.3031 -0.0142 -0.9529
vn 0.0819 0.9966 0.0112
vn -0.3031 0.0142 0.9529
vn -0.0955 -0.9954 -0.0120
vn 0.3024 -0.0112 -0.9531
vn 0.0727 0.9973 0.0055
vn -0.3043 0.0111 0.9525
vn -0.0641 -0.9950 -0.0762
vn 0.6644 0.0011 -0.7474
vn -0.0440 0.9987 -0.0276
vn -0.8207 -0.0036 0.5713
vn -0.0639 -0.9957 -0.0665
vn -0.0444 0.9980 -0.0461
vn -0.7727 0.0011 0.6348
vn -0.0587 -0.9950 -0.0809
vn 0.6493 -0.0088 -0.7605
vn -0.0420 0.9980 -0.0469
vn -0.7743 0.0025 0.6328
vn -0.0271 -0.9996 0.0093
vn -0.3545 0.0003 -0.9351
vn -0.1113 0.9934 0.0265
vn 0.2162 -0.1229 0.9686
vn -0.0602 -0.9981 0.0095
vn -0.2361 -0.0018 -0.9717
vn -0.1027 0.9946 0.0161
vn 0.0732 -0.0018 0.9973
vn -0.0598 -0.9982 0.0034
vn -0.2599 0.0030 -0.9656
vn -0.1073 0.9942 0.0048
vn 0.0699 -0.0026 0.9976
vn -0.1188 -0.9844 0.1297
vn -0.5717 -0.1066 -0.8135
vn -0.0494 0.9981 0.0379
vn 0.5286 0.0034 0.8488
vn -0.1051 -0.9912 0.0806
vn -0.6831 0.0034 -0.7303
vn -0.1019 -0.9890 0.1076
vn -0.6873 0.0060 -0.7264
vn -0.0458 0.9982 0.0394
vn 0.4904 -0.0126 0.8714
vn 0.0558 -0.9984 -0.0037
vn 0.1891 -0.0083 0.9819
vn 0.1898 0.9817 -0.0127
vn 0.0565 -0.0083 -0.9984
vn -0.0056 -0.9992 0.0406
vn 0.9994 -0.0309 -0.0184
vn 0.0472 0.9374 -0.3451
vn -0.9577 -0.0309 -0.2861
vn 0.3541 0.1212 -0.9273
vn 0.9363 -0.0599 0.3460
vn -0.3439 0.0104 0.9390
vn -0.9220 0.1916 -0.3366
vn 0.3564 0.1232 -0.9262
vn 0.9358 -0.0610 0.3471
vn -0.3430 0.0092 0.9393
vn -0.9225 0.1934 -0.3341
vn 0.3427 -0.0446 -0.9384
vn 0.9383 -0.0307 0.3444
vn -0.3424 0.0504 0.9382
vn -0.9380 0.0372 -0.3447
vn 0.3429 -0.0442 -0.9383
vn 0.9384 -0.0306 0.3443
vn -0.3425 0.0508 0.9381
vn -0.9380 0.0373 -0.3445
vn 0.3424 -0.0435 -0.9385
vn 0.9381 -0.0299 0.3450
vn -0.3418 0.0517 0.9383
vn -0.9378 0.0378 -0.3450
vn 0.3397 -0.1130 -0.9337
vn 0.9402 0.0115 0.3405
vn -0.3387 0.1360 0.9310
vn -0.9392 0.0115 -0.3432
vn 0.3396 -0.1129 -0.9338
vn 0.9401 0.0117 0.3408
vn -0.3384 0.1366 0.9310
vn -0.9392 0.0115 -0.3431
usemtl Material
s off
f 52//1 49//1 29//1 32//1
f 51//2 52//2 32//2 31//2
f 50//3 51//3 31//3 30//3
f 123//4 189//4 124//4
f 49//5 50//5 30//5 29//5
f 154//6 155//6 187//6 188//6
f 48//7 47//7 46//7 45//7
f 44//8 43//8 42//8 41//8
f 40//9 39//9 38//9 37//9
f 145//10 217//10 124//10 134//10
f 145//11 216//11 217//11
f 16//12 15//12 14//12 13//12
f 214//13 123//13 124//13 217//13
f 215//14 188//14 214//14
f 188//15 189//15 214//15
f 189//16 123//16 214//16
f 156//17 157//17 215//17 216//17
f 157//18 154//18 188//18 215//18
f 20//19 19//19 18//19 17//19
f 143//20 227//20 226//20 133//20
f 133//21 226//21 144//21 134//21
f 186//22 187//22 143//22
f 187//23 155//23 143//23
f 155//24 156//24 143//24
f 156//25 145//25 143//25
f 156//26 216//26 145//26
f 134//27 144//27 225//27 145//27
f 186//28 122//28 223//28 189//28
f 189//29 223//29 224//29 124//29
f 124//20 224//20 222//20 121//20
f 121//30 222//30 122//30 186//30
f 12//31 11//31 10//31 9//31
f 145//20 225//20 227//20 143//20
f 186//32 143//32 133//32 121//32
f 53//33 54//33 50//33 49//33
f 54//34 55//34 51//34 50//34
f 55//35 56//35 52//35 51//35
f 56//36 53//36 49//36 52//36
f 57//33 58//33 54//33 53//33
f 58//34 59//34 55//34 54//34
f 59//35 60//35 56//35 55//35
f 60//36 57//36 53//36 56//36
f 61//33 62//33 58//33 57//33
f 62//34 63//34 59//34 58//34
f 63//35 64//35 60//35 59//35
f 64//36 61//36 57//36 60//36
f 65//33 66//33 62//33 61//33
f 66//34 67//34 63//34 62//34
f 67//35 68//35 64//35 63//35
f 68//36 65//36 61//36 64//36
f 45//33 46//33 66//33 65//33
f 46//34 47//34 67//34 66//34
f 47//35 48//35 68//35 67//35
f 48//36 45//36 65//36 68//36
f 69//37 70//37 6//37 5//37
f 70//38 71//38 7//38 6//38
f 71//39 72//39 8//39 7//39
f 72//40 69//40 5//40 8//40
f 73//41 74//41 70//41 69//41
f 74//42 75//42 71//42 70//42
f 75//43 76//43 72//43 71//43
f 76//44 73//44 69//44 72//44
f 77//41 78//41 74//41 73//41
f 78//42 79//42 75//42 74//42
f 79//43 80//43 76//43 75//43
f 80//44 77//44 73//44 76//44
f 41//41 42//41 78//41 77//41
f 42//42 43//42 79//42 78//42
f 43//43 44//43 80//43 79//43
f 44//44 41//44 77//44 80//44
f 81//45 82//45 34//45 33//45
f 82//46 83//46 35//46 34//46
f 83//47 84//47 36//47 35//47
f 84//48 81//48 33//48 36//48
f 85//49 86//49 82//49 81//49
f 86//50 87//50 83//50 82//50
f 87//51 88//51 84//51 83//51
f 88//52 85//52 81//52 84//52
f 89//49 90//49 86//49 85//49
f 90//50 91//50 87//50 86//50
f 91//51 92//51 88//51 87//51
f 92//52 89//52 85//52 88//52
f 93//49 94//49 90//49 89//49
f 94//50 95//50 91//50 90//50
f 95//51 96//51 92//51 91//51
f 96//52 93//52 89//52 92//52
f 37//49 38//49 94//49 93//49
f 38//50 39//50 95//50 94//50
f 39//51 40//51 96//51 95//51
f 40//52 37//52 93//52 96//52
f 97//53 98//53 2//53 1//53
f 98//54 99//54 3//54 2//54
f 99//55 100//55 4//55 3//55
f 100//56 97//56 1//56 4//56
f 101//57 102//57 98//57 97//57
f 102//58 103//58 99//58 98//58
f 103//59 104//59 100//59 99//59
f 104//60 101//60 97//60 100//60
f 105//57 106//57 102//57 101//57
f 106//58 107//58 103//58 102//58
f 107//59 108//59 104//59 103//59
f 108//60 105//60 101//60 104//60
f 109//57 110//57 106//57 105//57
f 110//58 111//58 107//58 106//58
f 111//59 112//59 108//59 107//59
f 112//60 109//60 105//60 108//60
f 113//57 114//57 110//57 109//57
f 114//58 115//58 111//58 110//58
f 115//59 116//59 112//59 111//59
f 116//60 113//60 109//60 112//60
f 117//57 118//57 114//57 113//57
f 118//58 119//58 115//58 114//58
f 119//59 120//59 116//59 115//59
f 120//60 117//60 113//60 116//60
f 33//61 34//61 118//61 117//61
f 34//62 35//62 119//62 118//62
f 35//63 36//63 120//63 119//63
f 36//64 33//64 117//64 120//64
f 125//65 126//65 122//65 222//65
f 126//66 127//66 223//66 122//66
f 127//67 128//67 224//67 223//67
f 128//68 125//68 222//68 224//68
f 129//69 130//69 126//69 125//69
f 130//66 131//66 127//66 126//66
f 131//70 132//70 128//70 127//70
f 132//71 129//71 125//71 128//71
f 29//72 30//72 130//72 129//72
f 30//73 31//73 131//73 130//73
f 31//74 32//74 132//74 131//74
f 32//75 29//75 129//75 132//75
f 135//76 136//76 121//76 133//76
f 136//77 137//77 124//77 121//77
f 137//78 138//78 134//78 124//78
f 138//79 135//79 133//79 134//79
f 139//80 140//80 136//80 135//80
f 140//81 141//81 137//81 136//81
f 141//82 142//82 138//82 137//82
f 142//83 139//83 135//83 138//83
f 1//84 2//84 140//84 139//84
f 2//85 3//85 141//85 140//85
f 3//86 4//86 142//86 141//86
f 4//87 1//87 139//87 142//87
f 146//88 147//88 226//88 227//88
f 147//89 148//89 144//89 226//89
f 148//90 149//90 225//90 144//90
f 149//91 146//91 227//91 225//91
f 150//92 151//92 147//92 146//92
f 151//93 152//93 148//93 147//93
f 152//90 153//90 149//90 148//90
f 153//91 150//91 146//91 149//91
f 5//94 6//94 151//94 150//94
f 6//95 7//95 152//95 151//95
f 7//96 8//96 153//96 152//96
f 8//97 5//97 150//97 153//97
f 158//98 159//98 155//98 154//98
f 159//99 160//99 156//99 155//99
f 160//100 161//100 157//100 156//100
f 161//101 158//101 154//101 157//101
f 162//98 163//98 159//98 158//98
f 163//99 164//99 160//99 159//99
f 164//100 165//100 161//100 160//100
f 165//101 162//101 158//101 161//101
f 166//98 167//98 163//98 162//98
f 167//99 168//99 164//99 163//99
f 168//100 169//100 165//100 164//100
f 169//101 166//101 162//101 165//101
f 170//98 171//98 167//98 166//98
f 171//99 172//99 168//99 167//99
f 172//100 173//100 169//100 168//100
f 173//101 170//101 166//101 169//101
f 9//98 10//98 171//98 170//98
f 10//99 11//99 172//99 171//99
f 11//100 12//100 173//100 172//100
f 12//101 9//101 170//101 173//101
f 13//102 14//102 175//102 174//102
f 14//103 15//103 176//103 175//103
f 15//104 16//104 177//104 176//104
f 16//105 13//105 174//105 177//105
f 174//102 175//102 179//102 178//102
f 175//103 176//103 180//103 179//103
f 176//104 177//104 181//104 180//104
f 177//105 174//105 178//105 181//105
f 178//102 179//102 183//102 182//102
f 179//103 180//103 184//103 183//103
f 180//104 181//104 185//104 184//104
f 181//105 178//105 182//105 185//105
f 182//102 183//102 187//102 186//102
f 183//103 184//103 188//103 187//103
f 184//104 185//104 189//104 188//104
f 185//105 182//105 186//105 189//105
f 190//106 191//106 22//106 21//106
f 191//107 192//107 23//107 22//107
f 192//108 193//108 24//108 23//108
f 193//109 190//109 21//109 24//109
f 194//110 195//110 191//110 190//110
f 195//111 196//111 192//111 191//111
f 196//112 197//112 193//112 192//112
f 197//113 194//113 190//113 193//113
f 198//110 199//110 195//110 194//110
f 199//111 200//111 196//111 195//111
f 200//112 201//112 197//112 196//112
f 201//113 198//113 194//113 197//113
f 17//110 18//110 199//110 198//110
f 18//111 19//111 200//111 199//111
f 19//112 20//112 201//112 200//112
f 20//113 17//113 198//113 201//113
f 202//114 203//114 26//114 25//114
f 203//115 204//115 27//115 26//115
f 204//116 205//116 28//116 27//116
f 205//117 202//117 25//117 28//117
f 206//118 207//118 203//118 202//118
f 207//119 208//119 204//119 203//119
f 208//120 209//120 205//120 204//120
f 209//121 206//121 202//121 205//121
f 210//118 211//118 207//118 206//118
f 211//119 212//119 208//119 207//119
f 212//120 213//120 209//120 208//120
f 213//121 210//121 206//121 209//121
f 21//122 22//122 211//122 210//122
f 22//123 23//123 212//123 211//123
f 23//124 24//124 213//124 212//124
f 24//125 21//125 210//125 213//125
f 218//126 219//126 215//126 214//126
f 219//127 220//127 216//127 215//127
f 220//128 221//128 217//128 216//128
f 221//129 218//129 214//129 217//129
f 25//130 26//130 219//130 218//130
f 26//131 27//131 220//131 219//131
f 27//132 28//132 221//132 220//132
f 28//133 25//133 218//133 221//133
