# Blender v2.92.0 OBJ File: 'stump0.blend'
# www.blender.org
mtllib stump1.mtl
o Cube_Cube.001
v 3.317657 -0.143768 0.040907
v 3.403534 -0.171329 0.162622
v 3.467953 -0.034996 0.148042
v 3.382077 -0.007435 0.026327
v 2.728454 0.161119 0.509835
v 2.758555 0.152950 0.726065
v 2.796461 0.368086 0.728916
v 2.766361 0.376254 0.512686
v 1.723030 -0.052042 0.025989
v 1.633735 -0.055894 0.390918
v 1.597842 0.318072 0.386083
v 1.687137 0.321924 0.021154
v -0.781891 -0.260573 4.248173
v -0.849838 -0.259245 4.238865
v -0.850507 -0.192195 4.253322
v -0.782561 -0.193523 4.262630
v -0.501155 -0.089168 1.868379
v -0.784593 -0.088187 1.821123
v -0.783065 0.199143 1.817922
v -0.499627 0.198162 1.865178
v 0.409136 1.839475 -0.004092
v 0.144444 1.854373 0.382916
v -0.242761 1.854249 0.118094
v 0.021931 1.839351 -0.268914
v 0.254815 3.658400 -0.130403
v 0.101266 3.675680 0.093677
v -0.123463 3.660711 -0.059162
v 0.030085 3.643431 -0.283242
v 1.353961 -0.625358 2.412456
v 1.232448 -0.608626 2.461301
v 1.283512 -0.551214 2.568667
v 1.405025 -0.567946 2.519821
v -1.400316 -0.008386 -1.448730
v -1.261896 -0.009170 -1.502613
v -1.261391 0.139367 -1.503474
v -1.399811 0.140150 -1.449591
v -1.351617 0.010073 -2.554021
v -1.328748 0.010141 -2.554222
v -1.328824 0.032992 -2.555153
v -1.351693 0.032924 -2.554952
v -0.820239 -0.169578 -0.607449
v -0.519543 -0.169578 -0.878556
v -0.510615 0.235068 -0.868653
v -0.811310 0.235068 -0.597546
v 0.493135 0.905706 -0.056193
v 0.125615 0.905706 0.480168
v -0.409948 0.941156 0.113194
v -0.042427 0.941156 -0.423167
v 0.880290 -0.258800 0.875140
v 0.318480 -0.264657 1.102525
v 0.294038 0.339297 1.057693
v 0.855847 0.345155 0.830308
v 0.806518 -0.025695 1.346853
v 0.559463 -0.032788 1.423127
v 0.563606 0.223145 1.460348
v 0.810661 0.230238 1.384074
v 0.994739 -0.248034 1.802447
v 0.781631 -0.278432 1.939742
v 0.793644 -0.033995 2.012511
v 1.006753 -0.003596 1.875216
v 1.351267 -0.273097 2.194127
v 1.185996 -0.286139 2.294253
v 1.236038 -0.129913 2.397203
v 1.401309 -0.116870 2.297077
v -0.491741 -0.096073 2.973040
v -0.781740 -0.093737 2.953860
v -0.781500 0.195186 2.985420
v -0.491501 0.192851 3.004600
v 0.358595 2.751473 -0.072407
v 0.127903 2.777434 0.264252
v -0.209731 2.754945 0.034625
v 0.020960 2.728984 -0.302033
v -1.392750 -0.004610 -1.718654
v -1.272824 -0.004255 -1.719710
v -1.273222 0.115576 -1.724591
v -1.393147 0.115221 -1.723535
v -1.386788 -0.002481 -1.839731
v -1.280930 -0.002169 -1.840663
v -1.281281 0.103606 -1.844971
v -1.387139 0.103293 -1.844039
v -1.382021 -0.000780 -1.936544
v -1.287411 -0.000500 -1.937377
v -1.287724 0.094035 -1.941228
v -1.382335 0.093756 -1.940395
v -1.377895 0.000693 -2.020345
v -1.293021 0.000944 -2.021092
v -1.293302 0.085751 -2.024546
v -1.378176 0.085500 -2.023799
v -1.374188 0.002016 -2.095632
v -1.298061 0.002241 -2.096303
v -1.298313 0.078308 -2.099401
v -1.374440 0.078083 -2.098730
v -1.370784 0.003231 -2.164764
v -1.302689 0.003433 -2.165363
v -1.302915 0.071474 -2.168135
v -1.371010 0.071272 -2.167535
v -1.367613 0.004363 -2.229164
v -1.307000 0.004543 -2.229697
v -1.307201 0.065107 -2.232164
v -1.367814 0.064928 -2.231630
v -1.364629 0.005429 -2.289772
v -1.311058 0.005587 -2.290243
v -1.311235 0.059116 -2.292423
v -1.364806 0.058957 -2.291952
v -1.361799 0.006439 -2.347248
v -1.314906 0.006578 -2.347661
v -1.315061 0.053433 -2.349570
v -1.361954 0.053295 -2.349157
v -1.359099 0.007403 -2.402080
v -1.318576 0.007522 -2.402436
v -1.318711 0.048013 -2.404086
v -1.359233 0.047893 -2.403729
v -1.356511 0.008326 -2.454636
v -1.322095 0.008428 -2.454939
v -1.322209 0.042817 -2.456339
v -1.356625 0.042716 -2.456036
v -1.354021 0.009215 -2.505205
v -1.325480 0.009300 -2.505457
v -1.325575 0.037818 -2.506618
v -1.354115 0.037734 -2.506367
v -1.040240 -0.107217 -0.925671
v -0.813358 -0.107217 -1.130228
v -0.806621 0.198099 -1.122756
v -1.033503 0.198099 -0.918199
v -1.173554 -0.069428 -1.118504
v -0.991400 -0.069428 -1.282733
v -0.985992 0.175697 -1.276734
v -1.168145 0.175697 -1.112505
v -1.286373 -0.037448 -1.281691
v -1.142071 -0.037448 -1.411793
v -1.137787 0.156739 -1.407040
v -1.282088 0.156739 -1.276938
v 1.348753 -0.402575 2.272947
v 1.193029 -0.381132 2.335545
v 1.258470 -0.307555 2.473139
v 1.414194 -0.328998 2.410542
v 1.351466 -0.518620 2.345615
v 1.213562 -0.499631 2.401050
v 1.271514 -0.434474 2.522898
v 1.409418 -0.453463 2.467464
v 2.823934 0.101719 0.413831
v 2.938061 0.065091 0.575586
v 3.023672 0.246272 0.556210
v 2.909545 0.282900 0.394455
v 2.959541 0.034293 0.311403
v 3.065909 0.000155 0.462161
v 3.145700 0.169018 0.444102
v 3.039332 0.203156 0.293344
v 3.084658 -0.027917 0.216898
v 3.183867 -0.059757 0.357509
v 3.258287 0.097741 0.340666
v 3.159078 0.129581 0.200055
v 3.203416 -0.086965 0.127197
v 3.295829 -0.116624 0.258177
v 3.365152 0.030086 0.242487
v 3.272738 0.059745 0.111508
v 2.103103 0.020053 0.195649
v 1.990396 0.012824 0.498445
v 1.954229 0.333914 0.492649
v 2.066937 0.341143 0.189854
v 2.363061 0.070773 0.314090
v 2.263730 0.064401 0.580950
v 2.231856 0.347385 0.575843
v 2.331187 0.353756 0.308983
v 2.595927 0.116207 0.420188
v 2.508578 0.110604 0.654857
v 2.480549 0.359452 0.650366
v 2.567899 0.365055 0.415696
v 0.847408 -0.285831 -0.246696
v 0.715831 -0.323158 0.405260
v 0.681283 0.408378 0.390188
v 0.684163 0.453855 -0.170556
v 1.307423 -0.160639 -0.101741
v 1.242906 -0.160639 0.418200
v 1.201701 0.361641 0.413087
v 1.266218 0.361641 -0.106854
v -0.493685 -0.094561 2.691579
v -0.783493 -0.093397 2.692985
v -0.782322 0.196411 2.694365
v -0.492515 0.195247 2.692959
v -0.495467 -0.092790 2.407568
v -0.784452 -0.091630 2.408970
v -0.783285 0.197355 2.410346
v -0.494300 0.196195 2.408944
v -0.497244 -0.091024 2.124397
v -0.785409 -0.089867 2.125795
v -0.784245 0.198297 2.127167
v -0.496080 0.197140 2.125769
v -0.462520 -0.107451 1.813775
v -0.764573 -0.107451 1.708547
v -0.761610 0.212280 1.700040
v -0.459557 0.212280 1.805268
v -0.298608 -0.175633 1.522259
v -0.711874 -0.175633 1.378287
v -0.707819 0.261819 1.366649
v -0.294554 0.261819 1.510621
v 0.009405 -0.331083 0.873002
v -0.614448 -0.301681 0.767740
v -0.608377 0.353401 0.750312
v 0.005354 0.379923 0.852624
v 0.446786 1.416930 -0.027509
v 0.135633 1.416930 0.426589
v -0.317790 1.446943 0.115899
v -0.006637 1.446943 -0.338199
v 0.317026 3.114740 -0.095637
v 0.117234 3.137224 0.195928
v -0.175177 3.117747 -0.002941
v 0.024615 3.095263 -0.294506
v 0.284555 3.398502 -0.113783
v 0.108900 3.418269 0.142559
v -0.148185 3.401145 -0.032286
v 0.027470 3.381378 -0.288627
v -0.648115 -0.293889 -0.249732
v -0.181502 -0.293889 -0.670429
v -0.123533 0.437401 -0.595827
v -0.634260 0.334032 -0.234365
v 0.126180 0.497398 0.568633
v -0.529078 0.540770 0.119643
v 0.849783 -0.114150 1.213035
v 0.465553 -0.124767 1.300496
v 0.443959 0.265975 1.253067
v 0.828190 0.276593 1.165606
v 0.861513 -0.093274 1.475600
v 0.621886 -0.105689 1.569147
v 0.649023 0.129761 1.669909
v 0.888649 0.142176 1.576362
v 0.930634 -0.172556 1.643664
v 0.692041 -0.184919 1.736808
v 0.719060 0.049516 1.837135
v 0.957653 0.061879 1.743991
v 1.131446 -0.259430 1.952671
v 0.969066 -0.296197 2.114038
v 0.961014 -0.068645 2.157782
v 1.123394 -0.031878 1.996415
v 1.251835 -0.270653 2.085409
v 1.103250 -0.304297 2.233068
v 1.095882 -0.096076 2.273096
v 1.244468 -0.062432 2.125438
v -0.780636 -0.259859 4.242648
v -0.849532 -0.258513 4.233210
v -0.850212 -0.190525 4.247868
v -0.781315 -0.191872 4.257306
v -0.774185 -0.256191 4.214240
v -0.847963 -0.254749 4.204133
v -0.848691 -0.181944 4.219830
v -0.774912 -0.183386 4.229937
v -0.759610 -0.247903 4.150059
v -0.844419 -0.246246 4.138441
v -0.845255 -0.162556 4.156485
v -0.760446 -0.164214 4.168102
v -0.734566 -0.233663 4.039776
v -0.838328 -0.231635 4.025561
v -0.839351 -0.129242 4.047638
v -0.735589 -0.131270 4.061852
v -0.697002 -0.212302 3.874357
v -0.829192 -0.209719 3.856249
v -0.830495 -0.079273 3.884373
v -0.698305 -0.081857 3.902482
v -0.645057 -0.182765 3.645615
v -0.816558 -0.179413 3.622121
v -0.818249 -0.010175 3.658610
v -0.646748 -0.013527 3.682104
v -0.577011 -0.144072 3.345972
v -0.800008 -0.139714 3.315423
v -0.802207 0.080341 3.362868
v -0.579210 0.075982 3.393417
v 0.391074 2.169130 -0.028716
v 0.138581 2.197545 0.339758
v -0.230962 2.172930 0.088431
v 0.021531 2.144516 -0.280043
v 0.374561 2.465194 -0.050928
v 0.133153 2.492361 0.301370
v -0.220168 2.468827 0.061076
v 0.021241 2.441659 -0.291223
vn -0.9988 -0.0053 -0.0493
vn -0.0195 -0.9996 -0.0217
vn -0.0460 -0.9989 -0.0061
vn -0.0054 -0.9998 -0.0178
vn -0.0087 -0.0407 -0.9991
vn 0.0578 -0.8915 0.4492
vn -0.0038 0.9951 -0.0987
vn -0.0096 0.9965 -0.0834
vn 0.3796 0.0641 -0.9229
vn 0.0289 -0.9983 -0.0513
vn -0.0044 -0.9997 -0.0235
vn 0.9978 0.0006 -0.0669
vn 0.0028 -0.9998 -0.0174
vn -0.9997 -0.0002 -0.0261
vn -0.0978 0.9336 0.3446
vn -0.1209 0.9556 0.2687
vn -0.0191 0.9950 -0.0977
vn 0.9987 -0.0015 -0.0518
vn 0.4544 0.1899 -0.8703
vn -0.6865 0.6980 -0.2037
vn 0.2219 0.9509 0.2159
vn -0.9994 0.0156 0.0296
vn -0.1367 -0.2101 0.9681
vn 0.7056 -0.3962 -0.5875
vn -0.1074 -0.9870 -0.1192
vn 0.6510 0.0042 -0.7590
vn -0.0637 0.9955 -0.0706
vn -0.8222 0.0042 0.5692
vn -0.0915 -0.9864 -0.1364
vn 0.6097 0.0005 -0.7926
vn -0.0499 0.9955 -0.0809
vn -0.8261 0.0051 0.5636
vn -0.4161 -0.4355 -0.7983
vn -0.9222 0.0643 0.3813
vn 0.4176 0.4275 0.8018
vn 0.9391 -0.1465 -0.3109
vn -0.3817 -0.4969 -0.7793
vn -0.9139 0.0632 0.4009
vn 0.3899 0.3706 0.8430
vn 0.9221 -0.1896 -0.3372
vn -0.4307 -0.9007 0.0576
vn 0.5692 -0.1436 0.8095
vn 0.4592 0.8855 -0.0703
vn -0.6030 0.1553 -0.7825
vn -0.3985 -0.9142 0.0742
vn 0.5929 -0.1967 0.7809
vn 0.4514 0.8845 -0.1182
vn -0.5401 0.1670 -0.8249
vn 0.1744 -0.9840 0.0364
vn -0.2859 -0.0150 0.9581
vn -0.0483 0.9988 0.0020
vn 0.4038 0.0279 -0.9144
vn 0.1733 -0.9840 0.0410
vn -0.2863 -0.0150 0.9580
vn -0.0500 0.9987 0.0052
vn 0.4096 0.0297 -0.9118
vn 0.2230 -0.9748 -0.0015
vn -0.2566 0.0089 0.9665
vn -0.0469 0.9986 0.0245
vn 0.4929 -0.0136 -0.8700
vn 0.2775 -0.9606 0.0158
vn -0.0357 0.0139 0.9993
vn 0.1211 0.9914 0.0493
vn 0.1930 0.0863 -0.9774
vn 0.2510 -0.9672 0.0394
vn 0.0675 0.0169 0.9976
vn 0.0988 0.9949 0.0215
vn 0.2912 0.0144 -0.9565
vn -0.0059 -1.0000 -0.0034
vn -1.0000 0.0022 0.0047
vn 0.0059 1.0000 0.0060
vn 1.0000 -0.0022 -0.0050
vn -0.0040 -1.0000 -0.0062
vn -1.0000 0.0040 0.0034
vn 0.0040 1.0000 0.0033
vn 1.0000 -0.0040 -0.0063
vn -0.0032 -1.0000 -0.0063
vn -1.0000 0.0047 -0.0032
vn 0.0035 1.0000 0.0033
vn 0.9999 -0.0047 -0.0145
vn -0.0539 -0.9782 0.2008
vn -0.9842 0.0039 -0.1772
vn -0.0347 0.9896 0.1397
vn 0.8242 0.0048 0.5663
vn -0.0667 -0.9792 0.1915
vn -0.9873 0.0049 -0.1586
vn -0.0485 0.9891 0.1391
vn 0.8721 0.0049 0.4892
vn -0.0745 -0.9781 0.1946
vn -0.0600 0.9878 0.1437
vn 0.9068 0.0117 0.4214
vn 0.8242 0.0430 0.5647
vn -0.5582 0.0973 0.8240
vn -0.8154 0.1516 -0.5587
vn 0.5669 0.0973 -0.8180
vn 0.8248 0.0409 0.5640
vn -0.5600 0.0960 0.8229
vn -0.8138 0.1555 -0.5599
vn 0.5645 0.0995 -0.8194
vn 0.8226 0.1295 0.5537
vn -0.5633 0.1380 0.8147
vn -0.8240 0.0199 -0.5662
vn 0.5618 0.0114 -0.8272
vn -0.2077 -0.9507 -0.2304
vn 0.5503 0.0297 -0.8345
vn -0.2760 0.9400 -0.2005
vn -0.8998 0.0092 0.4362
vn 0.8014 0.1612 0.5760
vn -0.5484 0.1763 0.8174
vn -0.8078 0.2748 -0.5215
vn 0.4874 0.3021 -0.8192
vn 0.0817 -0.9882 0.1295
vn -0.5886 0.0273 0.8080
vn 0.0439 0.9908 0.1280
vn 0.9368 0.0257 -0.3490
vn 0.1604 -0.8858 0.4355
vn -0.7994 0.0187 0.6005
vn 0.0643 0.9677 0.2439
vn 0.9954 0.0535 0.0800
vn 0.1646 -0.8217 0.5456
vn -0.8384 -0.0140 0.5448
vn 0.0242 0.9796 0.1994
vn 0.9856 0.0292 0.1666
vn -0.1087 -0.9032 -0.4153
vn -0.9296 -0.0436 0.3661
vn 0.0948 0.9212 0.3774
vn 0.9302 0.0431 -0.3644
vn -0.1044 -0.9154 -0.3889
vn -0.9295 -0.0493 0.3656
vn 0.1064 0.9131 0.3936
vn 0.9314 0.0471 -0.3609
vn -0.1083 -0.9175 -0.3826
vn -0.9256 -0.0597 0.3738
vn 0.1158 0.9109 0.3960
vn 0.9381 0.0475 -0.3431
vn 0.0591 -0.9873 -0.1477
vn -0.6732 -0.1719 0.7192
vn 0.0047 0.9743 0.2251
vn 0.7333 0.1571 -0.6615
vn 0.0738 -0.9859 -0.1503
vn -0.6601 -0.1643 0.7330
vn 0.0045 0.9740 0.2264
vn 0.7384 0.1524 -0.6569
vn 0.1192 -0.9922 -0.0360
vn -0.6330 -0.2174 0.7430
vn 0.0470 0.9691 0.2421
vn 0.7444 0.1665 -0.6467
vn -0.0018 -0.9917 -0.1285
vn -0.9986 0.0016 -0.0537
vn -0.0212 0.9563 0.2915
vn 0.9755 -0.0370 0.2168
vn -0.0213 0.9563 0.2915
vn -0.0006 -0.9919 -0.1270
vn -0.9987 0.0042 -0.0518
vn -0.0154 0.9577 0.2874
vn 0.9761 -0.0297 0.2152
vn 0.8244 0.0857 0.5595
vn -0.5630 0.0954 0.8209
vn -0.8256 -0.0218 -0.5639
vn 0.5639 -0.0301 -0.8253
vn 0.8249 0.0879 0.5585
vn -0.5641 0.0964 0.8200
vn -0.8255 -0.0220 -0.5640
vn 0.5635 -0.0305 -0.8256
usemtl None
s off
f 80//1 77//1 73//1 76//1
f 214//2 197//2 213//2
f 197//3 198//3 213//3
f 73//4 74//4 34//4 33//4
f 40//5 39//5 38//5 37//5
f 32//6 31//6 30//6 29//6
f 79//7 80//7 76//7 75//7
f 28//8 27//8 26//8 25//8
f 215//9 169//9 214//9
f 169//10 170//10 214//10
f 170//11 197//11 214//11
f 78//12 79//12 75//12 74//12
f 77//13 78//13 74//13 73//13
f 76//14 73//14 33//14 36//14
f 200//15 217//15 199//15
f 217//16 218//16 199//16
f 75//17 76//17 36//17 35//17
f 74//18 75//18 35//18 34//18
f 172//19 169//19 215//19
f 199//20 218//20 215//20 216//20
f 171//21 172//21 217//21 200//21
f 199//22 216//22 213//22 198//22
f 16//23 15//23 14//23 13//23
f 4//24 3//24 2//24 1//24
f 81//13 82//13 78//13 77//13
f 82//12 83//12 79//12 78//12
f 83//7 84//7 80//7 79//7
f 84//1 81//1 77//1 80//1
f 85//13 86//13 82//13 81//13
f 86//12 87//12 83//12 82//12
f 87//7 88//7 84//7 83//7
f 88//1 85//1 81//1 84//1
f 89//13 90//13 86//13 85//13
f 90//12 91//12 87//12 86//12
f 91//7 92//7 88//7 87//7
f 92//1 89//1 85//1 88//1
f 93//13 94//13 90//13 89//13
f 94//12 95//12 91//12 90//12
f 95//7 96//7 92//7 91//7
f 96//1 93//1 89//1 92//1
f 97//13 98//13 94//13 93//13
f 98//12 99//12 95//12 94//12
f 99//7 100//7 96//7 95//7
f 100//1 97//1 93//1 96//1
f 101//13 102//13 98//13 97//13
f 102//12 103//12 99//12 98//12
f 103//7 104//7 100//7 99//7
f 104//1 101//1 97//1 100//1
f 105//13 106//13 102//13 101//13
f 106//12 107//12 103//12 102//12
f 107//7 108//7 104//7 103//7
f 108//1 105//1 101//1 104//1
f 109//13 110//13 106//13 105//13
f 110//12 111//12 107//12 106//12
f 111//7 112//7 108//7 107//7
f 112//1 109//1 105//1 108//1
f 113//13 114//13 110//13 109//13
f 114//12 115//12 111//12 110//12
f 115//7 116//7 112//7 111//7
f 116//1 113//1 109//1 112//1
f 117//13 118//13 114//13 113//13
f 118//12 119//12 115//12 114//12
f 119//7 120//7 116//7 115//7
f 120//1 117//1 113//1 116//1
f 37//13 38//13 118//13 117//13
f 38//12 39//12 119//12 118//12
f 39//7 40//7 120//7 119//7
f 40//1 37//1 117//1 120//1
f 121//25 122//25 42//25 41//25
f 122//26 123//26 43//26 42//26
f 123//27 124//27 44//27 43//27
f 124//28 121//28 41//28 44//28
f 125//25 126//25 122//25 121//25
f 126//26 127//26 123//26 122//26
f 127//27 128//27 124//27 123//27
f 128//28 125//28 121//28 124//28
f 129//25 130//25 126//25 125//25
f 130//26 131//26 127//26 126//26
f 131//27 132//27 128//27 127//27
f 132//28 129//28 125//28 128//28
f 33//29 34//29 130//29 129//29
f 34//30 35//30 131//30 130//30
f 35//31 36//31 132//31 131//31
f 36//32 33//32 129//32 132//32
f 133//33 134//33 62//33 61//33
f 134//34 135//34 63//34 62//34
f 135//35 136//35 64//35 63//35
f 136//36 133//36 61//36 64//36
f 137//37 138//37 134//37 133//37
f 138//38 139//38 135//38 134//38
f 139//39 140//39 136//39 135//39
f 140//40 137//40 133//40 136//40
f 29//37 30//37 138//37 137//37
f 30//38 31//38 139//38 138//38
f 31//39 32//39 140//39 139//39
f 32//40 29//40 137//40 140//40
f 141//41 142//41 6//41 5//41
f 142//42 143//42 7//42 6//42
f 143//43 144//43 8//43 7//43
f 144//44 141//44 5//44 8//44
f 145//45 146//45 142//45 141//45
f 146//46 147//46 143//46 142//46
f 147//47 148//47 144//47 143//47
f 148//48 145//48 141//48 144//48
f 149//45 150//45 146//45 145//45
f 150//46 151//46 147//46 146//46
f 151//47 152//47 148//47 147//47
f 152//48 149//48 145//48 148//48
f 153//45 154//45 150//45 149//45
f 154//46 155//46 151//46 150//46
f 155//47 156//47 152//47 151//47
f 156//48 153//48 149//48 152//48
f 1//45 2//45 154//45 153//45
f 2//46 3//46 155//46 154//46
f 3//47 4//47 156//47 155//47
f 4//48 1//48 153//48 156//48
f 157//49 158//49 10//49 9//49
f 158//50 159//50 11//50 10//50
f 159//51 160//51 12//51 11//51
f 160//52 157//52 9//52 12//52
f 161//53 162//53 158//53 157//53
f 162//54 163//54 159//54 158//54
f 163//55 164//55 160//55 159//55
f 164//56 161//56 157//56 160//56
f 165//53 166//53 162//53 161//53
f 166//54 167//54 163//54 162//54
f 167//55 168//55 164//55 163//55
f 168//56 165//56 161//56 164//56
f 5//57 6//57 166//57 165//57
f 6//58 7//58 167//58 166//58
f 7//59 8//59 168//59 167//59
f 8//60 5//60 165//60 168//60
f 173//61 174//61 170//61 169//61
f 174//62 175//62 171//62 170//62
f 175//63 176//63 172//63 171//63
f 176//64 173//64 169//64 172//64
f 9//65 10//65 174//65 173//65
f 10//66 11//66 175//66 174//66
f 11//67 12//67 176//67 175//67
f 12//68 9//68 173//68 176//68
f 65//69 66//69 178//69 177//69
f 66//70 67//70 179//70 178//70
f 67//71 68//71 180//71 179//71
f 68//72 65//72 177//72 180//72
f 177//73 178//73 182//73 181//73
f 178//74 179//74 183//74 182//74
f 179//75 180//75 184//75 183//75
f 180//76 177//76 181//76 184//76
f 181//73 182//73 186//73 185//73
f 182//74 183//74 187//74 186//74
f 183//75 184//75 188//75 187//75
f 184//76 181//76 185//76 188//76
f 185//77 186//77 18//77 17//77
f 186//78 187//78 19//78 18//78
f 187//79 188//79 20//79 19//79
f 188//80 185//80 17//80 20//80
f 17//81 18//81 190//81 189//81
f 18//82 19//82 191//82 190//82
f 19//83 20//83 192//83 191//83
f 20//84 17//84 189//84 192//84
f 189//85 190//85 194//85 193//85
f 190//86 191//86 195//86 194//86
f 191//87 192//87 196//87 195//87
f 192//88 189//88 193//88 196//88
f 193//89 194//89 198//89 197//89
f 194//86 195//86 199//86 198//86
f 195//90 196//90 200//90 199//90
f 196//91 193//91 197//91 200//91
f 201//92 202//92 46//92 45//92
f 202//93 203//93 47//93 46//93
f 203//94 204//94 48//94 47//94
f 204//95 201//95 45//95 48//95
f 21//96 22//96 202//96 201//96
f 22//97 23//97 203//97 202//97
f 23//98 24//98 204//98 203//98
f 24//99 21//99 201//99 204//99
f 205//100 206//100 70//100 69//100
f 206//101 207//101 71//101 70//101
f 207//102 208//102 72//102 71//102
f 208//103 205//103 69//103 72//103
f 209//100 210//100 206//100 205//100
f 210//101 211//101 207//101 206//101
f 211//102 212//102 208//102 207//102
f 212//103 209//103 205//103 208//103
f 25//100 26//100 210//100 209//100
f 26//101 27//101 211//101 210//101
f 27//102 28//102 212//102 211//102
f 28//103 25//103 209//103 212//103
f 41//104 42//104 214//104 213//104
f 42//105 43//105 215//105 214//105
f 43//106 44//106 216//106 215//106
f 44//107 41//107 213//107 216//107
f 45//108 46//108 217//108 172//108
f 46//109 47//109 218//109 217//109
f 47//110 48//110 215//110 218//110
f 48//111 45//111 172//111 215//111
f 49//112 50//112 197//112 170//112
f 50//113 51//113 200//113 197//113
f 51//114 52//114 171//114 200//114
f 52//115 49//115 170//115 171//115
f 219//116 220//116 50//116 49//116
f 220//117 221//117 51//117 50//117
f 221//118 222//118 52//118 51//118
f 222//119 219//119 49//119 52//119
f 53//120 54//120 220//120 219//120
f 54//121 55//121 221//121 220//121
f 55//122 56//122 222//122 221//122
f 56//123 53//123 219//123 222//123
f 223//124 224//124 54//124 53//124
f 224//125 225//125 55//125 54//125
f 225//126 226//126 56//126 55//126
f 226//127 223//127 53//127 56//127
f 227//128 228//128 224//128 223//128
f 228//129 229//129 225//129 224//129
f 229//130 230//130 226//130 225//130
f 230//131 227//131 223//131 226//131
f 57//132 58//132 228//132 227//132
f 58//133 59//133 229//133 228//133
f 59//134 60//134 230//134 229//134
f 60//135 57//135 227//135 230//135
f 231//136 232//136 58//136 57//136
f 232//137 233//137 59//137 58//137
f 233//138 234//138 60//138 59//138
f 234//139 231//139 57//139 60//139
f 235//140 236//140 232//140 231//140
f 236//141 237//141 233//141 232//141
f 237//142 238//142 234//142 233//142
f 238//143 235//143 231//143 234//143
f 61//144 62//144 236//144 235//144
f 62//145 63//145 237//145 236//145
f 63//146 64//146 238//146 237//146
f 64//147 61//147 235//147 238//147
f 13//148 14//148 240//148 239//148
f 14//149 15//149 241//149 240//149
f 15//150 16//150 242//150 241//150
f 16//151 13//151 239//151 242//151
f 239//148 240//148 244//148 243//148
f 240//149 241//149 245//149 244//149
f 241//152 242//152 246//152 245//152
f 242//151 239//151 243//151 246//151
f 243//148 244//148 248//148 247//148
f 244//149 245//149 249//149 248//149
f 245//150 246//150 250//150 249//150
f 246//151 243//151 247//151 250//151
f 247//148 248//148 252//148 251//148
f 248//149 249//149 253//149 252//149
f 249//150 250//150 254//150 253//150
f 250//151 247//151 251//151 254//151
f 251//148 252//148 256//148 255//148
f 252//149 253//149 257//149 256//149
f 253//150 254//150 258//150 257//150
f 254//151 251//151 255//151 258//151
f 255//148 256//148 260//148 259//148
f 256//149 257//149 261//149 260//149
f 257//150 258//150 262//150 261//150
f 258//151 255//151 259//151 262//151
f 259//148 260//148 264//148 263//148
f 260//149 261//149 265//149 264//149
f 261//150 262//150 266//150 265//150
f 262//151 259//151 263//151 266//151
f 263//153 264//153 66//153 65//153
f 264//154 265//154 67//154 66//154
f 265//155 266//155 68//155 67//155
f 266//156 263//156 65//156 68//156
f 267//157 268//157 22//157 21//157
f 268//158 269//158 23//158 22//158
f 269//159 270//159 24//159 23//159
f 270//160 267//160 21//160 24//160
f 271//161 272//161 268//161 267//161
f 272//162 273//162 269//162 268//162
f 273//163 274//163 270//163 269//163
f 274//164 271//164 267//164 270//164
f 69//161 70//161 272//161 271//161
f 70//162 71//162 273//162 272//162
f 71//163 72//163 274//163 273//163
f 72//164 69//164 271//164 274//164
